<svg width="242" height="189" fill="none" xmlns="http://www.w3.org/2000/svg"><g filter="url(#filter0_f_266_3387)" fill="#F3F3F3"><path d="M8.46 142.969a3.684 3.684 0 01-4.508-2.602 3.684 3.684 0 012.603-4.507 3.684 3.684 0 014.507 2.602 3.684 3.684 0 01-2.602 4.507zm-1.27-4.739a1.227 1.227 0 10.635 2.37 1.227 1.227 0 00-.635-2.37zm11.555 14.683a3.685 3.685 0 01-4.507-2.603 3.685 3.685 0 012.602-4.507 3.685 3.685 0 014.507 2.603 3.685 3.685 0 01-2.602 4.507zm-1.27-4.74a1.23 1.23 0 00-.868 1.503 1.23 1.23 0 001.503.867 1.23 1.23 0 00.867-1.502 1.23 1.23 0 00-1.502-.868zm-8.209 7.279a1.226 1.226 0 01-1.464-1.616l7.403-19.763a1.226 1.226 0 112.298.86L10.1 154.696a1.232 1.232 0 01-.833.756z"/></g><g filter="url(#filter1_f_266_3387)" fill="#F3F3F3"><path d="M219.85 164.482a5.86 5.86 0 01-4.859-6.7 5.86 5.86 0 016.701-4.859 5.86 5.86 0 014.858 6.7 5.858 5.858 0 01-6.7 4.859zm1.228-7.706a1.952 1.952 0 00-.614 3.853 1.951 1.951 0 00.614-3.853zm7.26 28.812a5.858 5.858 0 01-4.858-6.7 5.86 5.86 0 016.7-4.859 5.861 5.861 0 014.859 6.701 5.86 5.86 0 01-6.701 4.858zm1.228-7.706a1.957 1.957 0 00-2.233 1.62 1.955 1.955 0 001.619 2.233 1.957 1.957 0 002.234-1.619 1.958 1.958 0 00-1.62-2.234zm-16.638 5.251a1.951 1.951 0 01-1.079-3.297l23.562-23.902a1.95 1.95 0 012.78 2.738l-23.562 23.902a1.96 1.96 0 01-1.701.559z"/></g><path d="M104.44 71.432c-13.87 3.716-28.18-4.546-31.897-18.416-3.716-13.87 4.547-28.18 18.416-31.897 13.87-3.716 28.181 4.546 31.897 18.416 3.716 13.87-4.546 28.18-18.416 31.897zM95.453 37.89c-4.629 1.24-7.379 6.004-6.139 10.633 1.24 4.628 6.004 7.378 10.633 6.138 4.628-1.24 7.378-6.004 6.138-10.632-1.24-4.629-6.003-7.38-10.632-6.139zm81.767 103.916c-13.87 3.716-28.181-4.546-31.897-18.416-3.717-13.869 4.546-28.18 18.415-31.897 13.87-3.716 28.181 4.547 31.897 18.416 3.717 13.87-4.546 28.181-18.415 31.897zm-8.988-33.542c-4.612 1.236-7.374 6.021-6.138 10.633 1.235 4.612 6.02 7.374 10.632 6.138 4.612-1.236 7.374-6.02 6.138-10.632-1.235-4.612-6.02-7.375-10.632-6.139zm-58.095 51.516a8.597 8.597 0 01-5.281-.256 8.68 8.68 0 01-5.082-11.185L152.172 8.474a8.68 8.68 0 0111.185-5.082c4.492 1.672 6.754 6.692 5.077 11.168l-52.398 139.865a8.718 8.718 0 01-5.899 5.355z" fill="#F3F3F3"/><g filter="url(#filter2_f_266_3387)" fill="#F3F3F3"><path d="M45.998 19.805a3.664 3.664 0 003.039-4.19 3.664 3.664 0 00-4.19-3.038 3.664 3.664 0 00-3.038 4.19 3.664 3.664 0 004.19 3.038zm-.767-4.818a1.22 1.22 0 11.383 2.41 1.22 1.22 0 01-.383-2.41zM40.69 33.004a3.664 3.664 0 003.038-4.19 3.664 3.664 0 00-4.19-3.038 3.664 3.664 0 00-3.038 4.19 3.664 3.664 0 004.19 3.038zm-.768-4.819a1.223 1.223 0 011.397 1.013 1.224 1.224 0 01-1.013 1.396 1.223 1.223 0 01-1.397-1.012 1.223 1.223 0 011.013-1.397zm10.404 3.283a1.22 1.22 0 00.675-2.062L36.267 14.46a1.22 1.22 0 10-1.738 1.712L49.263 31.12c.29.292.687.41 1.063.35z"/></g><g filter="url(#filter3_f_266_3387)" fill="#F3F3F3"><path d="M217.998 55.805a3.665 3.665 0 003.039-4.19 3.665 3.665 0 00-4.19-3.038 3.665 3.665 0 00-3.039 4.19 3.665 3.665 0 004.19 3.038zm-.767-4.818a1.22 1.22 0 11.383 2.409 1.22 1.22 0 01-.383-2.41zm-4.541 18.017a3.664 3.664 0 003.038-4.19 3.664 3.664 0 00-4.19-3.038 3.664 3.664 0 00-3.038 4.19 3.664 3.664 0 004.19 3.038zm-.768-4.819a1.224 1.224 0 011.397 1.013 1.224 1.224 0 01-1.013 1.397 1.224 1.224 0 01-1.397-1.013 1.224 1.224 0 011.013-1.397zm10.404 3.284a1.22 1.22 0 00.675-2.062L208.267 50.46a1.22 1.22 0 10-1.738 1.712l14.734 14.947c.291.292.687.41 1.063.35z"/></g><defs><filter id="filter0_f_266_3387" x=".826" y="130.276" width="23.646" height="28.219" filterUnits="userSpaceOnUse" color-interpolation-filters="sRGB"><feFlood flood-opacity="0" result="BackgroundImageFix"/><feBlend in="SourceGraphic" in2="BackgroundImageFix" result="shape"/><feGaussianBlur stdDeviation="1.5" result="effect1_foregroundBlur_266_3387"/></filter><filter id="filter1_f_266_3387" x="208.285" y="149.85" width="33.467" height="38.812" filterUnits="userSpaceOnUse" color-interpolation-filters="sRGB"><feFlood flood-opacity="0" result="BackgroundImageFix"/><feBlend in="SourceGraphic" in2="BackgroundImageFix" result="shape"/><feGaussianBlur stdDeviation="1.5" result="effect1_foregroundBlur_266_3387"/></filter><filter id="filter2_f_266_3387" x="31.178" y="9.531" width="23.176" height="26.519" filterUnits="userSpaceOnUse" color-interpolation-filters="sRGB"><feFlood flood-opacity="0" result="BackgroundImageFix"/><feBlend in="SourceGraphic" in2="BackgroundImageFix" result="shape"/><feGaussianBlur stdDeviation="1.5" result="effect1_foregroundBlur_266_3387"/></filter><filter id="filter3_f_266_3387" x="203.178" y="45.531" width="23.176" height="26.519" filterUnits="userSpaceOnUse" color-interpolation-filters="sRGB"><feFlood flood-opacity="0" result="BackgroundImageFix"/><feBlend in="SourceGraphic" in2="BackgroundImageFix" result="shape"/><feGaussianBlur stdDeviation="1.5" result="effect1_foregroundBlur_266_3387"/></filter></defs></svg>