<svg width="187" height="209" fill="none" xmlns="http://www.w3.org/2000/svg"><path opacity=".2" d="M300.909 203.217l-8.876-45.395a3.917 3.917 0 00-4.598-3.089 3.91 3.91 0 00-3.097 4.585l7.502 38.368-6.062-4.071c-6.725-4.517-14.995-5.48-22.381-2.894L239.24 36.735a12.23 12.23 0 0113.401.184l8.938 6.003 19.502 99.739a3.918 3.918 0 004.598 3.088 3.91 3.91 0 003.097-4.584L269.038 40.22a4.82 4.82 0 00-2.058-3.095l-9.96-6.69a20.065 20.065 0 00-22.455 0l-1.248.838a12.24 12.24 0 01-13.696 0l-1.248-.838a20.066 20.066 0 00-22.456 0l-1.246.838a12.24 12.24 0 01-13.697 0l-1.247-.838a20.067 20.067 0 00-22.456 0l-1.247.838a12.238 12.238 0 01-13.696 0l-1.247-.838a20.067 20.067 0 00-22.456 0l-1.247.838a12.236 12.236 0 01-13.696 0l-1.247-.838a20.066 20.066 0 00-22.456 0l-9.963 6.692a4.823 4.823 0 00-2.054 3.093l-31.87 162.997a4.831 4.831 0 002.086 4.972 4.864 4.864 0 005.406-.019l12.017-8.072a17.334 17.334 0 0119.401 0l2.02 1.357c8.553 5.744 19.606 5.744 28.16 0l2.018-1.357a17.334 17.334 0 0119.401 0l2.02 1.357c8.553 5.744 19.606 5.744 28.16 0l2.018-1.357a17.334 17.334 0 0119.401 0l2.019 1.357c8.554 5.744 19.607 5.744 28.161 0l2.018-1.357a17.336 17.336 0 0119.401 0l2.019 1.357c8.554 5.744 19.607 5.744 28.161 0l2.019-1.357a17.334 17.334 0 0119.401 0l12.017 8.072a4.863 4.863 0 005.406.019 4.83 4.83 0 002.087-4.972zm-219.508-8.246l-.48-.322 3.415-21.763a3.91 3.91 0 00-3.267-4.466 3.92 3.92 0 00-4.478 3.258l-2.988 19.043c-7.385-2.586-15.656-1.623-22.382 2.894l-6.061 4.071L75.42 42.921l8.939-6.003a12.227 12.227 0 0113.4-.182L79.205 155.02a3.91 3.91 0 003.877 4.513 3.917 3.917 0 003.868-3.305l18.166-115.795c3.81 1.071 7.85.99 11.625-.242L101.815 194.29l-1.013.681a17.338 17.338 0 01-19.401 0zm28.68-4.716l14.958-154.434a12.222 12.222 0 0111.545 1.025L124.786 190.58a25.093 25.093 0 00-14.705-.326zM133 194.971l-.655-.44 11.818-153.992a20.004 20.004 0 0011.79-.542l-2.699 154.4-.853.574a17.338 17.338 0 01-19.401 0zm28.165-4.568l2.703-154.66a12.204 12.204 0 019.264 0l2.704 154.66a25.102 25.102 0 00-14.671 0zm51.05.177l-8.561-111.54a3.917 3.917 0 00-4.207-3.6 3.913 3.913 0 00-3.61 4.196l8.818 114.895-.655.44a17.33 17.33 0 01-19.4 0l-.854-.573-2.698-154.4a20.003 20.003 0 0011.79.542l1.722 22.44a3.915 3.915 0 004.207 3.599 3.913 3.913 0 003.61-4.196l-1.96-25.537a12.221 12.221 0 0111.544-1.025l14.958 154.435a25.09 25.09 0 00-14.704.324zm23.984 4.391l-1.014-.682-14.926-154.097a20.002 20.002 0 0011.626.242l24.193 154.215-.478.321a17.334 17.334 0 01-19.401.001z" fill="#fff"/><path d="M222.923 148.139l-7.469-38.162a3.296 3.296 0 00-3.869-2.597 3.287 3.287 0 00-2.606 3.854l6.313 32.255-5.101-3.423a21.183 21.183 0 00-18.835-2.432L171.029 8.184a10.3 10.3 0 0111.277.154l7.521 5.047 16.411 83.846a3.297 3.297 0 003.869 2.597 3.286 3.286 0 002.606-3.854l-16.609-84.86a4.056 4.056 0 00-1.732-2.602l-8.382-5.624a16.899 16.899 0 00-18.896 0l-1.05.704a10.308 10.308 0 01-11.525 0l-1.05-.704a16.9 16.9 0 00-18.897 0l-1.049.704a10.308 10.308 0 01-11.526 0l-1.05-.704a16.899 16.899 0 00-18.896 0l-1.05.704a10.306 10.306 0 01-11.525 0l-1.05-.704a16.9 16.9 0 00-18.896 0l-1.05.704a10.306 10.306 0 01-11.525 0l-1.05-.704a16.9 16.9 0 00-18.896 0l-8.384 5.625a4.054 4.054 0 00-1.729 2.6L.076 148.139a4.06 4.06 0 001.756 4.18 4.095 4.095 0 004.55-.016l10.112-6.785a14.598 14.598 0 0116.327-.001l1.699 1.141a21.192 21.192 0 0023.697 0l1.699-1.14a14.6 14.6 0 0116.326-.001l1.7 1.141a21.192 21.192 0 0023.696 0l1.699-1.14a14.6 14.6 0 0116.326-.001l1.699 1.141a21.192 21.192 0 0023.697 0l1.699-1.14a14.6 14.6 0 0116.326-.001l1.699 1.141a21.194 21.194 0 0023.698 0l1.698-1.14a14.596 14.596 0 0116.326 0l10.113 6.786a4.098 4.098 0 004.549.015 4.055 4.055 0 001.756-4.179zm-184.718-6.933l-.403-.27 2.873-18.296a3.287 3.287 0 00-2.749-3.754 3.298 3.298 0 00-3.769 2.739l-2.513 16.009a21.183 21.183 0 00-18.835 2.432l-5.1 3.423L33.172 13.384l7.522-5.046a10.298 10.298 0 0111.277-.154l-15.615 99.437a3.287 3.287 0 003.262 3.794c1.597 0 3-1.158 3.255-2.778L58.16 11.293c3.206.9 6.605.832 9.783-.204l-12.56 129.545-.852.572a14.6 14.6 0 01-16.327 0zm24.135-3.964L74.928 7.415a10.293 10.293 0 019.714.862l-9.928 129.239a21.143 21.143 0 00-12.374-.274zm19.287 3.964l-.551-.37L91.02 11.382a16.85 16.85 0 009.922-.456l-2.271 129.798-.719.482a14.6 14.6 0 01-16.325 0zm23.701-3.84l2.274-130.017a10.28 10.28 0 017.796 0l2.275 130.017a21.144 21.144 0 00-12.345 0zm42.958.149l-7.203-93.768a3.296 3.296 0 00-3.541-3.026 3.29 3.29 0 00-3.037 3.528l7.42 96.588-.551.369a14.598 14.598 0 01-16.326 0l-.718-.481-2.271-129.798a16.848 16.848 0 009.921.456l1.449 18.863a3.294 3.294 0 003.541 3.026 3.29 3.29 0 003.037-3.527l-1.649-21.468a10.294 10.294 0 019.715-.861l12.587 129.826a21.15 21.15 0 00-12.374.273zm20.183 3.691l-.853-.573-12.56-129.543a16.847 16.847 0 009.783.203l20.359 129.643-.402.27a14.602 14.602 0 01-16.327 0z" fill="#F3F3F3"/></svg>