<svg width="50" height="50" fill="none" xmlns="http://www.w3.org/2000/svg"><path d="M49.857 34.285c-.436-1.372-1.957-2.584-4.264-2.006a.658.658 0 00-.017.005l-9.642 2.599a3.08 3.08 0 00-3.379-2.358c-.557.07-2.442.337-4.437.62-1.904.27-3.873.55-4.415.618-1.191.148-2.778.023-4.458-.11-.592-.047-1.205-.096-1.832-.135a.977.977 0 10-.123 1.95c.611.038 1.216.086 1.801.132 1.782.14 3.464.274 4.853.101.558-.07 2.448-.338 4.45-.622a485.33 485.33 0 014.402-.616 1.124 1.124 0 011.254.969c.025.193.089.707-1.262 1.326-2.777 1.273-5.737 2.363-8.12 2.99a.977.977 0 10.496 1.889c2.487-.654 5.563-1.786 8.438-3.104 1-.458 1.609-.992 1.964-1.528l10.51-2.833c1.157-.288 1.75.175 1.92.705.162.51-.042 1.168-.863 1.488-.818.308-2.775 1.16-5.252 2.237-3.285 1.429-7.373 3.208-10.634 4.515-4.01 1.608-5.15 1.822-9.394 1.777l-6.685-.074h-.01a.977.977 0 00-.87.53l-.917 1.785a.99.99 0 00-.075.194c-.135.506-.306.717-1.012.717H2.456c-.107 0-.222-.066-.315-.18-.08-.1-.256-.376-.16-.829 1.175-5.614 3.493-9.091 7.084-10.632a.977.977 0 10-.77-1.795c-4.22 1.81-6.91 5.744-8.226 12.027-.188.897.014 1.793.555 2.46.467.573 1.134.903 1.832.903h9.828c1.478 0 2.468-.711 2.869-2.058l.597-1.162 6.082.067c4.484.05 5.907-.22 10.142-1.917 3.287-1.318 7.39-3.103 10.687-4.537 2.359-1.027 4.397-1.913 5.165-2.202l.01-.004c1.906-.738 2.46-2.522 2.02-3.902zM21.094 11.996a2.933 2.933 0 002.93-2.93 2.933 2.933 0 00-2.93-2.93 2.933 2.933 0 00-2.93 2.93 2.933 2.933 0 002.93 2.93zm0-3.906a.978.978 0 010 1.953.978.978 0 010-1.953zm4.883 8.789a2.933 2.933 0 002.93 2.93 2.933 2.933 0 002.929-2.93 2.933 2.933 0 00-2.93-2.93 2.933 2.933 0 00-2.93 2.93zm3.906 0a.978.978 0 01-1.953 0 .978.978 0 011.953 0zm-8.754 2.799a.976.976 0 001.334-.357L29.229 7.6a.976.976 0 10-1.692-.976l-6.765 11.719a.977.977 0 00.357 1.334z" fill="#0F5ADB"/><path d="M11.76 19.361l11.725 11.813c.403.405.94.63 1.512.631h.006a2.13 2.13 0 001.513-.627l11.813-11.9a2.143 2.143 0 00-1.518-3.653h-1.068V2.93A2.933 2.933 0 0032.813 0H17.188a2.933 2.933 0 00-2.93 2.93v12.695h-1.063a2.143 2.143 0 00-1.435 3.736zm1.434-1.783h2.041c.54 0 .977-.437.977-.976V2.93c0-.539.438-.977.976-.977h15.625c.539 0 .977.438.977.977v13.672c0 .539.437.976.976.976h2.045a.19.19 0 01.132.058.188.188 0 010 .265L25.134 29.797a.183.183 0 01-.131.055h-.001a.183.183 0 01-.132-.055L13.124 17.963a1.022 1.022 0 00-.054-.05.19.19 0 01.125-.335zm-.237 15.937a.976.976 0 10-.001 1.953.976.976 0 00.001-1.953z" fill="#0F5ADB"/></svg>