<svg width="50" height="44" fill="none" xmlns="http://www.w3.org/2000/svg"><path d="M47.97 6.16c1.12 0 2.03-.911 2.03-2.03V2.915c0-1.12-.91-2.03-2.03-2.03h-8.703a.732.732 0 000 1.465h8.703c.312 0 .565.254.565.565V4.13a.566.566 0 01-.565.565H2.03a.566.566 0 01-.565-.565V2.915c0-.311.253-.565.565-.565h34.307a.732.732 0 000-1.465H2.03C.91.885 0 1.795 0 2.915V4.13c0 1.119.91 2.03 2.03 2.03h.627v8.815H2.03c-1.12 0-2.03.91-2.03 2.03v1.215c0 1.119.91 2.03 2.03 2.03h45.94c1.12 0 2.03-.911 2.03-2.03v-1.215c0-1.12-.91-2.03-2.03-2.03h-.627V6.16h.627zm-20.909 8.815l8.816-8.815h3.899l-8.816 8.815h-3.899zm-5.97 0l8.815-8.815h3.9l-8.816 8.815h-3.9zm-5.97 0l8.815-8.815h3.899l-8.816 8.815H15.12zm-5.971 0l8.815-8.815h3.9l-8.816 8.815h-3.9zM4.12 6.16h11.773l-8.816 8.815H4.121V6.16zm44.414 10.845v1.215a.566.566 0 01-.565.565H2.03a.566.566 0 01-.565-.565v-1.215c0-.311.253-.565.565-.565h45.94c.312 0 .565.254.565.565zm-2.656-2.03H33.032l8.815-8.815h4.032v8.815zm2.092 8.776H12.302a.732.732 0 000 1.465H47.97c.312 0 .565.253.565.565v1.214a.566.566 0 01-.565.565H2.03a.566.566 0 01-.565-.565v-1.214c0-.312.253-.565.565-.565h7.343a.732.732 0 100-1.465H2.03c-1.12 0-2.03.91-2.03 2.03v1.214c0 1.12.91 2.03 2.03 2.03h.627v8.816H2.03c-1.12 0-2.03.91-2.03 2.03v1.214c0 1.12.91 2.03 2.03 2.03h45.94c1.12 0 2.03-.91 2.03-2.03v-1.214c0-1.12-.91-2.03-2.03-2.03h-.627v-8.816h.627c1.12 0 2.03-.91 2.03-2.03v-1.214c0-1.12-.91-2.03-2.03-2.03zm-20.975 14.09l8.815-8.816h3.9l-8.816 8.816h-3.9zm-5.197-8.816l-8.816 8.816H9.083l8.816-8.816h3.899zm2.071 0h3.9l-8.816 8.816h-3.9l8.816-8.816zm5.97 0h3.9l-8.816 8.816h-3.899l8.816-8.816zm-25.718 0h11.706l-8.815 8.816h-2.89v-8.816zm44.414 10.846v1.214a.566.566 0 01-.565.566H2.03a.566.566 0 01-.565-.566v-1.214c0-.312.253-.565.565-.565h45.94c.312 0 .565.253.565.565zm-2.656-2.03H32.965l8.816-8.816h4.098v8.816z" fill="#0F5ADB"/></svg>