<svg width="51" height="32" fill="none" xmlns="http://www.w3.org/2000/svg"><path d="M10.355 23.815a2.346 2.346 0 00-2.343 2.344 2.346 2.346 0 002.343 2.343A2.346 2.346 0 0012.7 26.16a2.346 2.346 0 00-2.344-2.344zm0 3.125a.782.782 0 11.002-1.564.782.782 0 01-.002 1.564zm29.688-3.125a2.346 2.346 0 00-2.344 2.344 2.346 2.346 0 002.344 2.343 2.346 2.346 0 002.344-2.343 2.346 2.346 0 00-2.344-2.344zm0 3.125a.782.782 0 11.002-1.564.782.782 0 01-.002 1.564z" fill="#0F5ADB"/><path d="M49.418 23.815v-5.342a3.12 3.12 0 00-2.137-2.965l-2.741-.913-2.401-6.003a3.11 3.11 0 00-2.902-1.965H32.23V2.721A2.346 2.346 0 0029.887.377H3.324A2.346 2.346 0 00.98 2.721v21.1a.88.88 0 00-.78.873v1.465a2.346 2.346 0 002.343 2.343h2.872c1.98 4.155 7.896 4.167 9.88 0h19.808c1.98 4.155 7.895 4.167 9.88 0h2.873a2.346 2.346 0 002.343-2.343v-1.563a.781.781 0 00-.781-.781zM39.238 8.19c.642 0 1.212.385 1.45.982l2.536 6.34c.085.213.26.378.478.45l3.085 1.029a1.56 1.56 0 011.068 1.482v2.217h-.78a.781.781 0 000 1.563h.78v1.562h-2.872c-1.98-4.155-7.895-4.166-9.88 0H32.23V8.19h7.007zM3.323 1.94h26.563c.43 0 .781.35.781.781v21.094H15.296c-1.98-4.155-7.896-4.166-9.88 0H2.543V2.72c0-.43.35-.781.781-.781zm-.781 25a.782.782 0 01-.781-.781v-.782h3.181a5.415 5.415 0 000 1.563h-2.4zm7.812 3.125a3.912 3.912 0 01-3.62-2.44.776.776 0 00-.114-.32 3.906 3.906 0 010-2.292c.06-.095.1-.203.115-.32a3.912 3.912 0 013.62-2.44 3.912 3.912 0 013.62 2.44.776.776 0 00.114.32c.229.744.23 1.546 0 2.291a.775.775 0 00-.115.32 3.912 3.912 0 01-3.62 2.44zm5.412-3.125a5.414 5.414 0 000-1.563H34.63a5.414 5.414 0 000 1.563H15.767zm24.276 3.125a3.912 3.912 0 01-3.62-2.44.774.774 0 00-.114-.32 3.906 3.906 0 010-2.292c.06-.095.1-.203.114-.32a3.912 3.912 0 013.62-2.44 3.912 3.912 0 013.62 2.44.776.776 0 00.114.32 3.89 3.89 0 010 2.291.775.775 0 00-.114.32 3.912 3.912 0 01-3.62 2.44zm8.594-3.906c0 .43-.35.78-.782.78h-2.4a5.414 5.414 0 000-1.562h3.182v.782z" fill="#0F5ADB"/><path d="M34.574 16.002h5.469c.532 0 .91-.522.741-1.028l-1.562-4.687a.781.781 0 00-.742-.535h-3.906a.781.781 0 00-.781.782v4.687c0 .432.35.781.781.781zm.782-4.687h2.561l1.042 3.125h-3.604v-3.125zm.781 6.25h-1.563a.781.781 0 000 1.562h1.563a.781.781 0 100-1.562z" fill="#0F5ADB"/></svg>