<?xml version="1.0" standalone="no"?>
<!DOCTYPE svg PUBLIC "-//W3C//DTD SVG 20010904//EN"
 "http://www.w3.org/TR/2001/REC-SVG-20010904/DTD/svg10.dtd">
<svg version="1.0" xmlns="http://www.w3.org/2000/svg"
 width="700.000000pt" height="700.000000pt" viewBox="0 0 700.000000 700.000000"
 preserveAspectRatio="xMidYMid meet">
<metadata>
Created by potrace 1.14, written by Peter Selinger 2001-2017
</metadata>
<g transform="translate(0.000000,700.000000) scale(0.100000,-0.100000)"
fill="#000000" stroke="none">
<path d="M6940 6043 c-30 -12 -71 -28 -90 -36 -19 -8 -96 -38 -170 -67 -74
-29 -265 -104 -425 -167 -159 -62 -411 -161 -560 -219 -148 -58 -283 -112
-300 -119 -16 -6 -91 -36 -165 -65 -74 -28 -144 -56 -155 -61 -28 -12 -377
-149 -381 -149 -1 0 -2 201 -2 446 0 245 -2 448 -5 451 -3 3 -66 -18 -139 -47
-369 -145 -617 -242 -648 -255 -50 -20 -497 -196 -610 -240 -52 -21 -106 -42
-120 -48 -14 -6 -27 -11 -30 -11 -19 -5 -207 -81 -215 -88 -5 -4 -15 -8 -23
-8 -8 0 -30 -7 -50 -16 -21 -9 -46 -20 -57 -25 -11 -5 -108 -42 -215 -84 -193
-74 -228 -89 -262 -106 -10 -5 -23 -9 -30 -9 -7 0 -24 -6 -38 -13 -14 -7 -47
-21 -75 -31 -27 -10 -66 -25 -85 -33 -59 -25 -68 -29 -285 -113 -367 -143
-389 -152 -432 -171 -24 -10 -47 -19 -53 -19 -6 0 -29 -9 -53 -19 -23 -11
-125 -52 -227 -91 -102 -40 -194 -76 -205 -81 -11 -5 -150 -60 -310 -123 -159
-62 -342 -134 -405 -159 l-115 -45 -3 -1616 -2 -1615 37 15 c21 9 70 29 108
46 39 16 79 33 90 38 11 4 46 20 78 34 32 14 60 26 62 26 2 0 28 11 57 24 29
13 109 47 178 76 69 29 143 60 165 70 22 10 175 75 340 145 165 69 324 137
353 151 29 13 55 24 58 24 3 0 24 9 47 19 23 10 87 38 142 61 55 23 124 53
153 66 29 13 55 24 57 24 2 0 28 11 57 24 29 13 98 42 153 65 55 23 114 49
132 57 17 8 33 14 36 14 3 0 5 -219 5 -486 0 -267 2 -487 4 -489 1 -1 35 11
73 27 39 17 79 34 90 39 11 4 47 20 80 35 33 14 82 35 109 46 27 10 68 27 90
37 23 11 208 90 411 176 522 222 576 245 610 260 17 8 185 79 375 160 190 80
359 152 375 160 17 7 118 50 225 95 107 46 223 96 258 111 34 16 64 29 66 29
3 0 617 260 671 285 17 7 91 39 165 70 74 31 144 60 155 65 42 19 116 50 280
120 94 39 188 80 210 90 22 10 128 55 235 100 107 45 198 85 203 89 4 4 6 698
5 1542 l-3 1534 -55 -22z"/>
</g>
</svg>
