<svg width="50" height="50" fill="none" xmlns="http://www.w3.org/2000/svg"><g clip-path="url(#clip0_201_1181)"><path fill="#F5F5F5" d="M0 0h50v50H0z"/><path d="M.495 32.462l5.877.735 1.435 4.305a.798.798 0 00.643.537l5.578.797a.797.797 0 00.825-.433l1.342-2.683 5.317.665 1.435 4.304a.798.798 0 00.643.537l5.578.797a.796.796 0 00.826-.433l1.342-2.683 5.814.727a.798.798 0 00.822-.453l11.156-23.906a.797.797 0 00-.623-1.128l-6.375-.797a.803.803 0 00-.82.454l-1.245 2.667-4.605-.659-1.438-4.314a.797.797 0 00-.658-.538l-6.375-.797a.801.801 0 00-.82.453l-1.245 2.666-4.605-.658L18.88 8.31a.797.797 0 00-.657-.539l-6.375-.797a.804.804 0 00-.82.454L-.13 31.334a.796.796 0 00.624 1.128zM18 10.712l.861 2.582L8.686 35.101l-.86-2.583 10.176-21.806zm15.141 3.187l.86 2.583-10.175 21.806-.861-2.582 10.176-21.807zm9.366 1.104l4.713.59L36.774 37.98l-4.714-.59 10.448-22.388zM30.153 37.709l-1.328 2.655-3.945-.563 10.452-22.397 4.028.575-9.207 19.73zm-2.786-25.894l4.714.59-10.448 22.388-4.713-.59 10.447-22.388zM15.018 34.51l-1.333 2.667-3.946-.564 10.452-22.398 4.03.576-9.203 19.72zM12.226 8.628l4.714.59L6.492 31.606l-4.713-.59L12.227 8.628z" fill="#0F5ADB"/></g><defs><clipPath id="clip0_201_1181"><path fill="#fff" d="M0 0h50v50H0z"/></clipPath></defs></svg>