<svg width="50" height="50" fill="none" xmlns="http://www.w3.org/2000/svg"><g clip-path="url(#clip0_201_1206)"><path fill="#F5F5F5" d="M0 0h50v50H0z"/><g clip-path="url(#clip1_201_1206)" fill="#0F5ADB"><path d="M26.417 8.373A25.01 25.01 0 001.042 40.485c.217.702.866 1.18 1.6 1.182h44.716a1.678 1.678 0 001.6-1.183 25 25 0 00-22.541-32.11zM47.358 40l-44.72.006a23.333 23.333 0 0123.687-29.97A23.324 23.324 0 0147.358 40z"/><path d="M25 11.667a21.681 21.681 0 00-21.233 26 .833.833 0 001.633-.334 20.05 20.05 0 01-.38-3.166H7.5a.833.833 0 000-1.667H5.02c.12-2.944.893-5.824 2.264-8.433l2.143 1.238a.833.833 0 10.834-1.443l-2.14-1.236a20.153 20.153 0 016.171-6.172l1.236 2.14a.833.833 0 101.444-.833l-1.238-2.143a19.936 19.936 0 0118.532 0l-1.238 2.143a.833.833 0 101.444.833l1.236-2.14a20.153 20.153 0 016.171 6.172l-2.14 1.236a.833.833 0 10.834 1.443l2.143-1.238a19.857 19.857 0 012.263 8.433H42.5a.833.833 0 100 1.667h2.48a20.058 20.058 0 01-.38 3.166.833.833 0 001.633.333 21.681 21.681 0 00-21.233-26z"/><path d="M27.894 29.263l-1.156-12.666a1.745 1.745 0 00-3.476 0l-1.156 12.666a5 5 0 105.788 0zM24.922 16.74a.083.083 0 01.156 0l1.07 11.73a4.834 4.834 0 00-2.296 0l1.07-11.73zM25 36.667A3.333 3.333 0 1125 30a3.333 3.333 0 010 6.667z"/></g></g><defs><clipPath id="clip0_201_1206"><path fill="#fff" d="M0 0h50v50H0z"/></clipPath><clipPath id="clip1_201_1206"><path fill="#fff" d="M0 0h50v50H0z"/></clipPath></defs></svg>