<svg width="50" height="50" fill="none" xmlns="http://www.w3.org/2000/svg"><g clip-path="url(#clip0_201_1189)"><path fill="#F5F5F5" d="M0 0h50v50H0z"/><path d="M.977 18.164a.976.976 0 00.976-.977V9.375a.977.977 0 00-1.953 0v7.813c0 .539.437.976.977.976zm9.609 0c.54 0 .976-.437.976-.977V9.375a.977.977 0 00-1.953 0v7.813c0 .539.438.976.977.976zm9.609 0c.54 0 .977-.437.977-.977V9.375a.977.977 0 00-1.953 0v7.813c0 .539.437.976.976.976zm9.61 0a.976.976 0 00.976-.977V9.375a.977.977 0 00-1.953 0v7.813c0 .539.437.976.977.976zm9.609 0c.54 0 .977-.437.977-.977V9.375a.977.977 0 00-1.953 0v7.813c0 .539.437.976.976.976zm9.609-9.766a.977.977 0 00-.976.977v7.813a.977.977 0 001.953 0V9.375a.977.977 0 00-.977-.977zm0 25.157H45.84v-1.62a.977.977 0 00-.286-.69l-5.45-5.45a.977.977 0 00-1.667.691v4.283h-9.005a.977.977 0 000 1.953h9.006v3.62H11.561v-3.62h9.08a.977.977 0 000-1.953h-9.08v-4.283a.977.977 0 00-1.667-.69l-5.45 5.45a.977.977 0 00-.285.69v1.62H.977a.977.977 0 000 1.953H4.16v5.116c0 .54.437.977.976.977h5.45c.54 0 .976-.438.976-.977v-2.33h26.876v2.33c0 .54.437.977.976.977h5.45a.977.977 0 00.976-.977v-5.117h3.183a.977.977 0 000-1.953zM9.61 39.648H6.113V32.34l3.496-3.496v10.804zm34.278 0h-3.496V28.844l3.496 3.496v7.308z" fill="#0F5ADB"/><path d="M25.037 32.722a.977.977 0 100-1.954.977.977 0 000 1.954z" fill="#0F5ADB"/></g><defs><clipPath id="clip0_201_1189"><path fill="#fff" d="M0 0h50v50H0z"/></clipPath></defs></svg>