<?xml version="1.0" encoding="utf-8"?><svg xmlns="http://www.w3.org/2000/svg" xmlns:xlink="http://www.w3.org/1999/xlink"><symbol viewBox="0 0 35 19" id="arrow" xmlns="http://www.w3.org/2000/svg"><path d="M25.292 18.87l9.208-9-9.208-9-1.002.98 7.498 7.329H.5v1.384h31.288l-7.498 7.329 1.002.979z"/></symbol><symbol viewBox="0 0 16 9" id="arrow-prev" xmlns="http://www.w3.org/2000/svg"><path d="M4.705 8.845L.586 4.862 4.705.879l.448.433-3.354 3.244h13.994v.612H1.8l3.354 3.243-.448.434z"/></symbol><symbol viewBox="0 0 16 16" id="caret" xmlns="http://www.w3.org/2000/svg"><path d="M5.809 2.538A.5.5 0 005.5 3v10a.5.5 0 00.854.354l5-5a.498.498 0 000-.708l-5-5a.5.5 0 00-.545-.108z"/></symbol><symbol viewBox="0 0 21 21" id="cart" xmlns="http://www.w3.org/2000/svg"><path d="M5.25.875H2.625a.875.875 0 000 1.75h1.75v12.25a.875.875 0 00.875.875h10.5a.875.875 0 100-1.75H6.125v-1.75h10.5a.875.875 0 00.83-.598l1.75-5.25a.875.875 0 00-.83-1.152H6.125v-3.5A.875.875 0 005.25.875zM17.16 7l-1.166 3.5H6.125V7H17.16zM5.688 19.25a1.312 1.312 0 100-2.625 1.312 1.312 0 000 2.625zm8.75 0a1.312 1.312 0 100-2.625 1.312 1.312 0 000 2.625z"/></symbol><symbol viewBox="0 0 14 15" id="check" xmlns="http://www.w3.org/2000/svg"><path d="M11.813 4.438l-6.126 6.125L2.626 7.5"/></symbol><symbol viewBox="0 0 24 24" id="down" xmlns="http://www.w3.org/2000/svg"><path d="M4 9l8 8 8-8"/></symbol><symbol viewBox="0 0 10 7" id="dropdown" xmlns="http://www.w3.org/2000/svg"><path d="M5 6.5l5-6H0l5 6z"/></symbol><symbol viewBox="0 0 16 17" id="email" xmlns="http://www.w3.org/2000/svg"><g clip-path="url(#ha)"><path d="M9.337 10.303a2.403 2.403 0 01-2.674 0L.107 5.932A2.383 2.383 0 010 5.856v7.163c0 .821.666 1.473 1.473 1.473h13.054c.821 0 1.473-.667 1.473-1.473V5.856c-.035.027-.07.052-.107.076l-6.556 4.371z"/><path d="M.627 5.152l6.556 4.37a1.47 1.47 0 001.634 0l6.556-4.37c.393-.262.627-.7.627-1.171 0-.812-.66-1.473-1.472-1.473H1.472C.661 2.508 0 3.168 0 3.981c0 .472.234.91.627 1.17z"/></g><defs><clipPath id="ha"><path transform="translate(0 .5)" d="M0 0h16v16H0z"/></clipPath></defs></symbol><symbol viewBox="0 0 20 20" id="grid" xmlns="http://www.w3.org/2000/svg"><g clip-path="url(#ia)"><path d="M8.462 0H.769A.77.77 0 000 .77v7.692a.77.77 0 00.77.769h7.692a.77.77 0 00.769-.77V.77A.77.77 0 008.46 0zm-.77 7.692H1.538V1.538h6.154v6.154zM19.231 0H11.54a.77.77 0 00-.77.77v7.692a.77.77 0 00.77.769h7.692a.77.77 0 00.77-.77V.77A.77.77 0 0019.23 0zm-.77 7.692h-6.153V1.538h6.154v6.154zm-9.999 3.077H.769a.77.77 0 00-.769.77v7.692A.77.77 0 00.77 20h7.692a.77.77 0 00.769-.77v-7.692a.77.77 0 00-.77-.769zm-.77 7.692H1.538v-6.153h6.154v6.153zm11.539-7.691H11.54a.77.77 0 00-.77.769v7.692c0 .425.345.77.77.77h7.692a.77.77 0 00.77-.77V11.54a.77.77 0 00-.77-.77zm-.77 7.692h-6.153v-6.154h6.154v6.154z"/></g><defs><clipPath id="ia"><path d="M0 0h20v20H0z"/></clipPath></defs></symbol><symbol viewBox="0 0 20 20" id="grid-view" xmlns="http://www.w3.org/2000/svg"><g clip-path="url(#ja)"><path d="M8.462 0H.769A.77.77 0 000 .77v7.692a.77.77 0 00.77.769h7.692a.77.77 0 00.769-.77V.77A.77.77 0 008.46 0zm-.77 7.692H1.538V1.538h6.154v6.154zM19.231 0H11.54a.77.77 0 00-.77.77v7.692a.77.77 0 00.77.769h7.692a.77.77 0 00.77-.77V.77A.77.77 0 0019.23 0zm-.77 7.692h-6.153V1.538h6.154v6.154zm-9.999 3.077H.769a.77.77 0 00-.769.77v7.692A.77.77 0 00.77 20h7.692a.77.77 0 00.769-.77v-7.692a.77.77 0 00-.77-.769zm-.77 7.692H1.538v-6.153h6.154v6.153zm11.539-7.691H11.54a.77.77 0 00-.77.769v7.692c0 .425.345.77.77.77h7.692a.77.77 0 00.77-.77V11.54a.77.77 0 00-.77-.77zm-.77 7.692h-6.153v-6.154h6.154v6.154z"/></g><defs><clipPath id="ja"><path d="M0 0h20v20H0z"/></clipPath></defs></symbol><symbol viewBox="0 0 19 18" id="list" xmlns="http://www.w3.org/2000/svg"><g clip-path="url(#ka)"><path d="M11.5 14.625H.5v2.25h11v-2.25zm7-6.75H.5v2.25h18v-2.25zm0-6.75H.5v2.25h18v-2.25z"/></g><defs><clipPath id="ka"><path transform="translate(.5)" d="M0 0h18v18H0z"/></clipPath></defs></symbol><symbol viewBox="0 0 24 20" id="list-view" xmlns="http://www.w3.org/2000/svg"><path d="M24 13v5a2.002 2.002 0 01-2 2H2a2.002 2.002 0 01-2-2v-5a2.002 2.002 0 012-2h20a2.002 2.002 0 012 2zM22 0H2a2.002 2.002 0 00-2 2v5a2.002 2.002 0 002 2h20a2.002 2.002 0 002-2V2a2.002 2.002 0 00-2-2z"/></symbol><symbol viewBox="0 0 24 24" id="load" xmlns="http://www.w3.org/2000/svg"><path d="M12 3a9 9 0 109 9"/></symbol><symbol viewBox="0 0 24 24" id="more" xmlns="http://www.w3.org/2000/svg"><g stroke-width="2"><circle cx="4" cy="12" r="1"/><circle cx="12" cy="12" r="1"/><circle cx="20" cy="12" r="1"/></g></symbol><symbol viewBox="0 0 24 24" id="option" xmlns="http://www.w3.org/2000/svg"><path d="M19 9a3 3 0 00-2.82 2H3a1 1 0 000 2h13.18A3 3 0 1019 9zm0 4a1 1 0 111-1 1 1 0 01-1 1zM3 7h1.18a3 3 0 005.64 0H21a1 1 0 000-2H9.82a3 3 0 00-5.64 0H3a1 1 0 000 2zm4-2a1 1 0 11-1 1 1 1 0 011-1zm14 12h-7.18a3 3 0 00-5.64 0H3a1 1 0 000 2h5.18a3 3 0 005.64 0H21a1 1 0 000-2zm-10 2a1 1 0 111-1 1 1 0 01-1 1z"/></symbol><symbol viewBox="0 0 18 18" id="pancil" xmlns="http://www.w3.org/2000/svg"><path d="M15.75 5.392L12.608 2.25a1.124 1.124 0 00-1.591 0L9.165 4.102 2.58 10.687a1.118 1.118 0 00-.33.796v3.142a1.126 1.126 0 001.125 1.125h3.142a1.119 1.119 0 00.795-.33l8.438-8.437a1.126 1.126 0 000-1.591zm-2.25 2.25L10.358 4.5l1.454-1.455 3.143 3.142L13.5 7.642z"/></symbol><symbol viewBox="0 0 18 18" id="pencil" xmlns="http://www.w3.org/2000/svg"><path d="M15.75 5.392L12.608 2.25a1.124 1.124 0 00-1.591 0L9.165 4.102 2.58 10.687a1.118 1.118 0 00-.33.796v3.142a1.126 1.126 0 001.125 1.125h3.142a1.119 1.119 0 00.795-.33l8.438-8.437a1.126 1.126 0 000-1.591zm-2.25 2.25L10.358 4.5l1.454-1.455 3.143 3.142L13.5 7.642z"/></symbol><symbol viewBox="0 0 16 17" id="phone" xmlns="http://www.w3.org/2000/svg"><path d="M14.716 11.002c-.98 0-1.941-.153-2.853-.454-.446-.153-.995-.013-1.268.267l-1.799 1.358C6.71 11.06 5.424 9.775 4.326 7.704l1.318-1.752c.343-.342.465-.842.318-1.31a9.098 9.098 0 01-.456-2.858C5.506 1.076 4.93.5 4.222.5H1.284C.576.5 0 1.076 0 1.784 0 9.898 6.602 16.5 14.716 16.5c.708 0 1.284-.576 1.284-1.284v-2.93c0-.708-.576-1.284-1.284-1.284z"/></symbol><symbol viewBox="0 0 17 18" id="search" xmlns="http://www.w3.org/2000/svg"><path opacity=".9" d="M15.293 17.207a1 1 0 001.414-1.414l-1.414 1.414zm-3.586-6.414a1 1 0 00-1.414 1.414l1.414-1.414zm-.04-3.46a4.833 4.833 0 01-4.834 4.834v2a6.833 6.833 0 006.834-6.834h-2zm-4.834 4.834A4.833 4.833 0 012 7.333H0a6.833 6.833 0 006.833 6.834v-2zM2 7.333A4.833 4.833 0 016.833 2.5v-2A6.833 6.833 0 000 7.333h2zM6.833 2.5a4.833 4.833 0 014.834 4.833h2A6.833 6.833 0 006.833.5v2zm9.874 13.293l-5-5-1.414 1.414 5 5 1.414-1.414z"/></symbol><symbol viewBox="0 0 20 20" id="tag" xmlns="http://www.w3.org/2000/svg"><g clip-path="url(#ta)"><path d="M6.667 18.333a1.68 1.68 0 01-1.179-.488l-5-5A1.68 1.68 0 010 11.667c0-.439.178-.868.488-1.179l7.5-7.5c.311-.31.74-.488 1.179-.488h5c.107 0 .209.013.309.038.758.115 1.357.819 1.357 1.629v5c0 .438-.178.867-.488 1.178l-7.5 7.5c-.31.31-.74.488-1.178.488zm2.5-15c-.22 0-.434.09-.59.244l-7.5 7.5a.841.841 0 00-.244.59c0 .219.09.433.244.589l5 5a.86.86 0 001.178 0l7.5-7.5a.839.839 0 00.245-.59v-5a.825.825 0 00-.69-.813.565.565 0 00-.143-.02h-5z"/><path d="M18.275 20h-7.383c-.454 0-.897-.176-1.215-.484a1.659 1.659 0 01-.51-1.183v-2.816a.42.42 0 01.122-.295l5.466-5.467A.835.835 0 0015 9.167v-5a.825.825 0 00-.689-.814.417.417 0 01-.012-.821c.541-.1 1.105.068 1.5.452l3.69 3.54c.325.315.511.747.511 1.184v10.625c0 .438-.186.87-.51 1.183-.318.308-.76.484-1.215.484zM10 15.69v2.643c0 .214.094.427.257.585a.918.918 0 00.635.249h7.383c.24 0 .471-.091.635-.25a.821.821 0 00.257-.584V7.708a.82.82 0 00-.257-.584l-3.076-2.951v4.994c0 .438-.179.867-.489 1.178L10 15.69z"/><path d="M12.917 6.667a1.251 1.251 0 010-2.5 1.25 1.25 0 010 2.5zm0-1.667a.417.417 0 100 .834.417.417 0 000-.834z"/><path d="M17.917 5.833a.417.417 0 01-.417-.416v-2.5A2.086 2.086 0 0015.417.833a2.086 2.086 0 00-2.084 2.084v1.666a.417.417 0 01-.833 0V2.917A2.92 2.92 0 0115.417 0a2.92 2.92 0 012.916 2.917v2.5c0 .23-.186.416-.416.416z"/></g><defs><clipPath id="ta"><path d="M0 0h20v20H0z"/></clipPath></defs></symbol><symbol viewBox="0 0 19 19" id="trash" xmlns="http://www.w3.org/2000/svg"><path d="M12.12 6.884a.444.444 0 00-.444.445v8.41a.445.445 0 00.89 0v-8.41c0-.246-.2-.445-.445-.445zm-5.25 0a.445.445 0 00-.445.445v8.41a.445.445 0 00.89 0v-8.41c0-.246-.2-.445-.445-.445z"/><path d="M3.043 5.656V16.62c0 .648.238 1.257.653 1.694.413.437.988.686 1.59.687h8.418a2.19 2.19 0 001.59-.687 2.455 2.455 0 00.653-1.694V5.656a1.7 1.7 0 00-.436-3.342h-2.278v-.556A1.748 1.748 0 0011.47 0H7.519a1.748 1.748 0 00-1.762 1.758v.556H3.48a1.7 1.7 0 00-.436 3.342zM13.705 18.11h-8.42c-.76 0-1.352-.654-1.352-1.49V5.695h11.124v10.923c0 .837-.592 1.491-1.353 1.491zM6.646 1.758A.857.857 0 017.52.89h3.952a.857.857 0 01.872.868v.556H6.647v-.556zM3.48 3.204h12.032a.8.8 0 110 1.602H3.479a.8.8 0 110-1.602z"/><path d="M9.496 6.884a.445.445 0 00-.445.445v8.41a.445.445 0 00.89 0v-8.41c0-.246-.2-.445-.445-.445z"/></symbol><symbol viewBox="0 0 17 17" id="triangle" xmlns="http://www.w3.org/2000/svg"><path d="M12.063 8.124L6.751 2.812a.531.531 0 00-.907.376v10.625a.53.53 0 00.907.375l5.312-5.312a.53.53 0 000-.752z"/></symbol><symbol viewBox="0 0 24 24" id="up" xmlns="http://www.w3.org/2000/svg"><path d="M4 15l8-8 8 8-2 2-6-6-6 6z" fill-rule="evenodd"/></symbol></svg>