<svg width="615" height="255" fill="none" xmlns="http://www.w3.org/2000/svg"><path d="M101.5 250.6v-41.65H0v-44.8L111.3 3.85h51.45V161h32.2v47.95h-32.2v41.65H101.5zm0-89.6V80.15h9.1L45.15 175.7V161h56.35zm202.863 93.45c-30.333 0-53.666-11.083-70-33.25-16.1-22.4-24.15-54.017-24.15-94.85 0-41.3 8.05-72.683 24.15-94.15 16.334-21.467 39.667-32.2 70-32.2 30.567 0 53.9 10.733 70 32.2 16.1 21.467 24.15 52.733 24.15 93.8s-8.166 72.8-24.5 95.2c-16.1 22.167-39.316 33.25-69.65 33.25zm0-51.45c11.2 0 19.484-6.067 24.85-18.2 5.6-12.133 8.4-31.617 8.4-58.45 0-27.067-2.8-46.317-8.4-57.75-5.366-11.667-13.65-17.5-24.85-17.5-11.2 0-19.6 5.833-25.2 17.5-5.366 11.433-8.05 30.567-8.05 57.4 0 27.067 2.684 46.667 8.05 58.8 5.6 12.133 14 18.2 25.2 18.2zm216.864 47.6v-41.65h-101.5v-44.8l111.3-160.3h51.45V161h32.2v47.95h-32.2v41.65h-61.25zm0-89.6V80.15h9.1l-65.45 95.55V161h56.35z" fill="#fff"/></svg>