<svg width="165" height="165" fill="none" xmlns="http://www.w3.org/2000/svg"><path d="M41.25 6.875H20.625a6.875 6.875 0 000 13.75h13.75v96.25a6.874 6.874 0 006.875 6.875h82.5a6.872 6.872 0 004.861-2.014 6.872 6.872 0 000-9.722A6.872 6.872 0 00123.75 110H48.125V96.25h82.5a6.873 6.873 0 006.518-4.703l13.75-41.25a6.878 6.878 0 00-6.518-9.047h-96.25v-27.5a6.875 6.875 0 00-6.875-6.875zM134.832 55l-9.164 27.5H48.125V55h86.707zm-90.144 96.25c5.695 0 10.312-4.617 10.312-10.312 0-5.696-4.617-10.313-10.313-10.313-5.695 0-10.312 4.617-10.312 10.313 0 5.695 4.617 10.312 10.313 10.312zm68.75 0c5.695 0 10.312-4.617 10.312-10.312 0-5.696-4.617-10.313-10.312-10.313-5.696 0-10.313 4.617-10.313 10.313 0 5.695 4.617 10.312 10.313 10.312z" fill="#A6A4AA"/><circle cx="146.5" cy="40.5" r="18.5" fill="#011320"/><path d="M146 46.2c-1.653 0-2.927-.627-3.82-1.88-.893-1.267-1.34-3.067-1.34-5.4 0-2.36.447-4.153 1.34-5.38.893-1.227 2.167-1.84 3.82-1.84 1.667 0 2.94.613 3.82 1.84.893 1.227 1.34 3.013 1.34 5.36 0 2.347-.447 4.153-1.34 5.42-.88 1.253-2.153 1.88-3.82 1.88zm0-2.12c.907 0 1.58-.413 2.02-1.24.44-.84.66-2.153.66-3.94s-.22-3.08-.66-3.88c-.44-.813-1.113-1.22-2.02-1.22-.893 0-1.567.407-2.02 1.22-.44.8-.66 2.093-.66 3.88s.22 3.1.66 3.94c.453.827 1.127 1.24 2.02 1.24z" fill="#fff"/></svg>