<svg width="150" height="44" fill="none" xmlns="http://www.w3.org/2000/svg"><path fill-rule="evenodd" clip-rule="evenodd" d="M55.794 19.407c-1.15 0-1.924.424-2.625.85a8.117 8.117 0 00-1.843 1.553c-.388.452-.848.815-1.251 1.248-.383.41-1.89 1.982-2.274 2.074-.233-.396.006-.756.164-1.179.737-1.967 2.206-4.138 2.22-6.292.005-.695-.639-1.954-1.53-1.954-2.167 0-3.268 1.32-4.6 2.564l-4.498 4.47c-.582.564-1.093 1.23-1.743 1.714-.272.203-.479.442-.74.661-.138.117-.718.505-.913.505-.757 0-1.3-.567-1.489-1.104-.281-.803.626-4.202-1.071-4.202-.71 0-2.03.893-2.518 1.226L28.46 23.51c-.888.704-2.906 2.522-3.939 2.6.086-.928 2.998-3.663 3.814-4.249l1.819-1.575c.2-.214.14-.13.36-.304l4.193-3.909c.133-.128.6-.616.6-.785 0-.48-.57-1.187-1.086-1.187-1.072 0-2.156.604-3.003 1.068-.227.125-.244.16-.463.281l-5.44 3.694c-.622.499-1.521 1.173-2.004 1.757-.155.189-.194.266-.36.445l-.536.565c-.093.07-.133.091-.22.15-.404.267-2.562 1.797-2.562 2.024 0 .546.93 1.566.93 2.374 0 .462-1.085.694-1.085 2.653 0 1.17.852 1.815 2.172 1.815 1.373 0 4.217-2.044 5.298-2.983.21-.182.297-.284.522-.438.725-.497 2.455-2.169 3.027-2.513l.983 2.815c.835 1.763 3.954 1.678 5.827.1.392-.33.744-.6 1.124-.943l1.066-1.066c.313-.374.707-.64 1.07-.993.204-.2.271-.32.502-.525l1.115-.952c.552-.46 1.203-1.138 1.97-1.299.226.136.104.141.388.21 0 .77-.91 2.558-1.251 3.412-.472 1.18-2.286 5.455.398 5.455 1.443 0 4.964-3.512 6.226-4.661.21-.19.282-.222.502-.387.488-.367.873-.787 1.375-1.137l1.473-1.05c.558-.344.714-.018 1.075.305.184.164.246.204.4.407.158.21.257.294.4.479.748.968 1.23 2.023 2.272 2.773 1.623 1.168 3.356-.494 4.535-1.387.681-.515 1.293-1.128 1.84-1.766.131-.154.172-.184.33-.33.311-.288.754-.93 1.067-1.136.236.8-.374 2.662-.59 3.518-.339 1.334-1.166 3.505-.19 4.723.315.393.821.64 1.397.618.41-.016.98-.467 1.263-.674.44-.323.691-.55 1.088-.906.336-.303.7-.595 1.008-.909l.971-1.01c.36-.368 1.553-1.694 1.959-1.939l.974.73c.76.512 2.586 1.923 3.294 1.923 1.408 0 2.535-.942 3.473-1.692.792-.633 3-2.674 3.821-2.846.058.224.13.3.202.586.554 2.212-.71 4.301 1.738 4.301 2.105 0 3.154-1.62 3.555-1.898.17-.12.377-.175.591-.306.808-.496 2.79-2.176 3.556-2.875.243-.222.754-.71 1.067-.785.25.965.187 1.29-.044 2.333a9.106 9.106 0 01-.732 2.065 20.13 20.13 0 01-1.786 2.932l-.82 1.077c-.164.206-.264.348-.42.53l-2.25 2.513c-1.033 1.194-2.862 2.72-3.544 4.073-.43.85-.728.45-1.708 2.094-.504.846-.916 1.378-.137 1.822.193.11.543.32.732.32 1.374 0 2.373-.536 3.38-1.218 2.136-1.445 3.752-4.186 5.075-6.257.836-1.31 1.726-2.74 2.854-3.855l2.988-2.688c.24-.215.41-.295.66-.523.988-.903 2.246-1.574 3.297-2.41.167-.133.135-.128.339-.253.621-.381.303-.41-.092-1.258-.152-.328-.334-.688-.42-1.018-.373.028-.486.27-.743.448l-2.73 2.222c-1.528 1.4-.208-1.002.203-2.12.67-1.822 2.184-4.688 2.184-6.485 0-.626-.739-.628-1.242-.628-.376 0-1.355.551-1.675.727l-5.55 4.152-.039.036a2.61 2.61 0 01-.038.035c-.04.034-.11.086-.165.131l-3.63 3.018c-.388-.66-.148-.63.2-2.055l.84-3.223c.201-.72.313-1.154-.665-1.693-.496-.273-.47-.242-.934.044l-4.927 3.527c-.278.212-.51.407-.781.623l-.864.69-.04.034-1.474 1.117c-.203.126-.205.154-.388.28-.182.124-.277.16-.485.261-.39.191-.504.392-1.007.236-.805-.25-1.235-.587-1.718-1.114-.362-.394-.54-.808-.755-1.28-.112-.246-.133-.26-.035-.509.273-.692.65-1.161 1.005-1.756.182-.304.366-.506.568-.815 1.07-1.633 3.156-3.578 2.262-5.64-.097-.223-.457-.526-.734-.526-.43 0-1.323 1.088-1.585 1.436l-.622.907c-.218.324-.387.636-.583.942l-1.168 1.881a16.23 16.23 0 01-.605.922c-.242.347-.4.576-.812.736-.84.325-1.249.746-1.755 1.353-.784.94-1.514 2.794-2.103 3.972-.173.345-.314.674-.477 1.037-.134.298-.29.777-.766.777-.473 0-.06-1.237-.009-1.473.328-1.48.925-3.03 1.473-4.4l2.394-5.457c.999-2.08 2.823-6.25 3.562-8.245.649-1.75 1.775-5.093-.873-6.012-.297-.103-.345-.108-.55.047-1.279.963-1.807 2.542-2.405 3.917-.172.394-.307.709-.46 1.123-.49 1.337-2.525 6.479-3.158 7.7-.78 1.509-1.75 2.964-2.6 4.433-.11.19-.17.314-.29.507-.213.34-.338.64-.55.972-.367.573-1.049 1.176-1.559 1.67-.277.268-.493.577-.775.838-.156.145-.231.192-.376.36-.76.887-1.67 1.118-2.311-.073a10.399 10.399 0 01-.486-1.1c-.158-.4-.291-.648-.445-1.065a3.778 3.778 0 00-1.39-1.821c-.274-.196-.84-.369-1.298-.369zm62.002-.977c0 .289-1.438 2.022-1.764 2.322-.136.126-.224.187-.343.32-.151.171-.171.213-.355.378-.5.447-.937.846-1.438 1.29l-1.377 1.415c.105.177.18.251.279.448.182.366.623 1.261.653 1.577.286-.173 1.283-1.263 1.649-1.589.603-.538 1.145-1.03 1.746-1.57.24-.217 3.32-2.986 3.589-2.986.778 0 1.552 1.017 1.552 1.746 0 1.786-.028 1.426-.543 3.212-.429 1.491-1.15 2.812-1.381 4.49-.141 1.024.95 1.235 1.924 1.235 1.008 0 3.199-1.391 4.169-2.044l2.471-1.686c2.067-1.451.959-.791 2.226-1.908.375-.33.645-.741 1.066-.995.265.45.317 1.243.403 1.872.215 1.585.672 4.202 3.012 4.202.915 0 1.808-.502 2.362-.876.642-.434 1.132-.97 1.629-1.537.154-.176.198-.205.339-.393.352-.472 2.291-2.584 2.731-2.85.944 1.606 1.191 3.282 3.803 3.282 1.015 0 2.9-1.062 3.802-1.605l-1.009-2.095c-.858.37-1.734.266-2.142-.586-.177-.37-.343-1.14-.344-1.646-.001-1.457.281-2.586-1.471-2.586-.193 0-.734.066-.879.118-.213.076-.38.28-.538.424a55.81 55.81 0 01-.505.453l-3.127 3.54c-.21.297-1.505 1.988-1.714 2.088l-1.385.639c-.032-.342-.208-.589-.28-1.006-.361-2.103.452-4.152 1.142-6.108.273-.771 1.268-3.164.623-3.718-.684-.587-2.599.44-2.826.62-.316.248-.444.473-.662.8-.796 1.191-1.844 2.186-2.831 3.247-.134.144-.248.214-.384.353-.17.172-.195.243-.388.419l-1.079 1.123c-.135.15-.253.287-.377.43l-1.375 1.695c-.182.154-.254.173-.428.313l-1.311.985c-4.133 2.8-.611-1.172-.611-4.18 0-2.453-2.128-6.144-4.656-6.144-1.124 0-1.977.442-2.806 1.035-1.566 1.118-.841 1.409-.841 2.037zM0 19.058c.109.113.216.223.31.35.31-.007.515-.086.782-.136.29-.055.573-.086.848-.144.464.79.063.31.078 1.816.005.45-.068.602-.08.974-.047 1.405-.002 1.544-.15 3.148l-.08 2.161c.001.437-.043.646-.074.981l.15 3.139c.018.378.173 1.681.319 1.877.436.584 1.244.496 1.932.496.108-.363.259-.176.575-1.298.38-1.347.21-2.719.322-3.41.096-.595.145-1.083.235-1.675.09-.592.113-1.073.109-1.717-.004-.59.101-1.199.154-1.746.108-1.13.326-2.191.482-3.337.075-.55.142-1.018.32-1.526.125-.354.095-.35.47-.486 2.157-.783 4.712-.707 6.99-1.114.79-.142 1.507.125 2.557.363l1.754.307c.796-1.07.699-2.1.699-3.421 0-.963-1.986-1.188-2.794-1.188-2.516 0-4.617.342-6.781 1.02l-1.91.726c-.692-.456-.288-1.127-.032-2.263.302-1.347.828-4.022 1.36-5.199 1.074-2.369 3.686-3.15 6.51-3.15.3 0 2.06.56 2.715.698.41-.55.666-.718.886-1.507.225-.804.278-1.442.278-2.333 0-.71-.52-1.103-1.151-1.268-.438-.115-.616-.104-1.176-.13-.339-.014-.266-.058-.548-.065-.319-.008-.27.049-.616.067C14.213.13 14.64.01 13.04.21c-2.81.35-5.06 1.388-7.007 3.12-1.266 1.126-2.34 3.2-2.529 4.776-.184 1.543-.158 2.503-.434 4.288-.13.844-.365 3.698-.684 4.062-.759.867-1.815 1.63-2.386 2.601z" fill="#FAFAFA"/><path fill-rule="evenodd" clip-rule="evenodd" d="M105.07 27.855c0 2.179 2.726 4.177 3.59 2.742l.079-.139c.425-.588.754-.303.754-1.486 0-1.296-1.099-3.35-2.949-3.35-.531 0-.779.52-.954.886-.096.201-.52 1.18-.52 1.347z" fill="#4880F8"/></svg>