<svg width="50" height="50" fill="none" xmlns="http://www.w3.org/2000/svg"><g clip-path="url(#clip0_201_1218)"><path fill="#F5F5F5" d="M0 0h50v50H0z"/><g clip-path="url(#clip1_201_1218)" fill="#0F5ADB"><path d="M48.53 44.212h-.749V5.768a1.472 1.472 0 001.242-1.451v-2.16c0-.81-.66-1.47-1.47-1.47H12.06a.732.732 0 000 1.464l35.499.006-.006 2.166L2.44 4.317l.006-2.166H9.13a.732.732 0 000-1.465H2.447c-.81 0-1.47.66-1.47 1.471v2.16c0 .733.54 1.34 1.242 1.451v38.444h-.748c-.811 0-1.471.66-1.471 1.471v2.703a.93.93 0 00.928.928h48.144a.93.93 0 00.928-.928v-2.703c0-.81-.66-1.47-1.47-1.47zM3.683 5.788h42.632v38.424h-2.249V11.164a2.2 2.2 0 00-2.197-2.197H8.13a2.2 2.2 0 00-2.197 2.197v16.257a.732.732 0 001.465 0V17.6h35.204v26.611h-4.41V35.16a2.2 2.2 0 00-2.197-2.197h-4.033v-9.057a2.2 2.2 0 00-2.197-2.197h-9.53a2.2 2.2 0 00-2.197 2.197v9.053h-4.033a2.2 2.2 0 00-2.197 2.197v9.057h-4.41V30.35a.732.732 0 00-1.465 0v13.862h-2.25V5.788zm3.714 8.229h10.536a.732.732 0 100-1.465H7.398v-1.388c0-.403.328-.732.732-.732h33.74c.404 0 .732.329.732.732v1.388h-6.345a.732.732 0 100 1.465h6.345v2.12H7.398v-2.12zm18.888 9.156v1.235a.733.733 0 01-.733.733h-1.107a.733.733 0 01-.732-.733v-1.235h2.572zm-1.84 3.433h1.107a2.2 2.2 0 002.198-2.198v-1.235h2.014c.404 0 .732.329.732.733v9.052H19.503v-9.052c0-.404.328-.733.732-.733h2.014v1.235a2.2 2.2 0 002.198 2.197zm11.549 7.821c.404 0 .732.329.732.733v9.052H25.733v-9.785h2.883v1.235a2.2 2.2 0 002.198 2.198h1.107a2.2 2.2 0 002.197-2.198v-1.235h1.877zm-3.342 1.235a.733.733 0 01-.732.733h-1.107a.733.733 0 01-.733-.733v-1.235h2.572v1.235zM18.77 34.423h1.83v1.24a.733.733 0 01-.733.732H18.76a.733.733 0 01-.732-.733v-1.239h.742zm-.01 3.437h1.107a2.2 2.2 0 002.198-2.198v-1.239h2.202v9.785H13.273v-9.053c0-.404.329-.732.732-.732h2.558v1.24a2.2 2.2 0 002.197 2.197zm29.775 9.989H1.466l.005-2.172 47.064.006v2.166z"/><path d="M32.588 12.552H21.413a.732.732 0 000 1.465h11.175a.732.732 0 100-1.465z"/></g></g><defs><clipPath id="clip0_201_1218"><path fill="#fff" d="M0 0h50v50H0z"/></clipPath><clipPath id="clip1_201_1218"><path fill="#fff" d="M0 0h50v50H0z"/></clipPath></defs></svg>