<svg width="40" height="48" fill="none" xmlns="http://www.w3.org/2000/svg"><path d="M11.098 48h25.1c1.7 0 3-1.3 3-3V7.5c0-1.7-1.3-3-3-3h-6.4l-4.2-4.2c-.2-.2-.5-.3-.7-.3h-20.9c-1.7 0-3 1.3-3 3v35.6c0 1.7 1.3 3 3 3h4.1V45c0 1.7 1.3 3 3 3zm25.1-41.5c.6 0 1 .4 1 1V45c0 .6-.4 1-1 1h-25.1c-.6 0-1-.4-1-1v-3.4h21c1.7 0 3-1.3 3-3V9.2c0-.1 0-.2-.1-.3v-.1c0-.1-.1-.2-.2-.3l-2-2h4.4zm-10.3-3.1l4.8 4.8h-4.8V3.4zm-22.9 35.2V3c0-.6.4-1 1-1h19.9v7.2c0 .6.4 1 1 1h7.2v28.4c0 .6-.4 1-1 1h-27.1c-.5 0-1-.5-1-1z" fill="#0F5ADB"/><path d="M7.098 14.2h8.5c.6 0 1-.4 1-1s-.4-1-1-1h-8.5c-.6 0-1 .4-1 1s.5 1 1 1zm21.9 3.8c0-.6-.4-1-1-1h-20.9c-.6 0-1 .4-1 1s.4 1 1 1h20.9c.6 0 1-.5 1-1zm-5.4 6l-8.3 8.2-3.7-3.7c-.4-.4-1-.4-1.4 0-.4.4-.4 1 0 1.4l4.4 4.5c.2.2.5.3.7.3.3 0 .5-.1.7-.3l9-8.9c.4-.4.4-1 0-1.4-.4-.4-1-.5-1.4-.1z" fill="#0F5ADB"/></svg>