<svg width="51" height="34" fill="none" xmlns="http://www.w3.org/2000/svg"><path d="M1.176 10.164a.976.976 0 00.976-.976V1.375a.977.977 0 00-1.953 0v7.813c0 .539.438.976.977.976zm9.609 0c.54 0 .977-.437.977-.976V1.375a.977.977 0 00-1.953 0v7.813c0 .539.437.976.976.976zm9.61 0a.976.976 0 00.976-.976V1.375a.977.977 0 00-1.953 0v7.813c0 .539.437.976.977.976zm9.609 0c.54 0 .976-.437.976-.976V1.375a.977.977 0 00-1.953 0v7.813c0 .539.438.976.977.976zm9.609 0c.54 0 .977-.437.977-.976V1.375a.977.977 0 00-1.953 0v7.813c0 .539.437.976.976.976zm9.61-9.766a.977.977 0 00-.977.977v7.813a.977.977 0 001.953 0V1.375a.977.977 0 00-.976-.977zm0 25.157h-3.184v-1.619a.977.977 0 00-.286-.69l-5.45-5.45a.977.977 0 00-1.666.69v4.283H29.63a.977.977 0 000 1.953h9.006v3.62H11.762v-3.62h9.08a.977.977 0 000-1.953h-9.08v-4.283a.977.977 0 00-1.667-.69l-5.45 5.45a.977.977 0 00-.286.69v1.62H1.176a.977.977 0 000 1.953h3.183v5.116c0 .54.437.977.977.977h5.45a.978.978 0 00.976-.977v-2.33h26.875v2.33c0 .54.437.977.976.977h5.45c.54 0 .977-.438.977-.977V27.51h3.183a.977.977 0 000-1.954zM9.809 31.65H6.312v-7.31l3.497-3.497v10.805zm34.277 0H40.59V20.844l3.496 3.497v7.308z" fill="#0F5ADB"/><path d="M25.236 24.722a.977.977 0 100-1.953.977.977 0 000 1.953z" fill="#0F5ADB"/></svg>