<svg width="20" height="20" fill="none" xmlns="http://www.w3.org/2000/svg"><g clip-path="url(#a)" fill="currentColor"><path d="M8.462 0H.769A.77.77 0 000 .77v7.692a.77.77 0 00.77.769h7.692a.77.77 0 00.769-.77V.77A.77.77 0 008.46 0zm-.77 7.692H1.538V1.538h6.154v6.154zM19.231 0H11.54a.77.77 0 00-.77.77v7.692a.77.77 0 00.77.769h7.692a.77.77 0 00.77-.77V.77A.77.77 0 0019.23 0zm-.77 7.692h-6.153V1.538h6.154v6.154zm-9.999 3.077H.769a.77.77 0 00-.769.77v7.692A.77.77 0 00.77 20h7.692a.77.77 0 00.769-.77v-7.692a.77.77 0 00-.77-.769zm-.77 7.692H1.538v-6.153h6.154v6.153zm11.539-7.691H11.54a.77.77 0 00-.77.769v7.692c0 .425.345.77.77.77h7.692a.77.77 0 00.77-.77V11.54a.77.77 0 00-.77-.77zm-.77 7.692h-6.153v-6.154h6.154v6.154z"/></g><defs><clipPath id="a"><path fill="#fff" d="M0 0h20v20H0z"/></clipPath></defs></svg>