<svg width="406" height="49" fill="none" xmlns="http://www.w3.org/2000/svg"><path d="M0 18.566L40.22 2.742v26.373L0 46.258V18.566z" fill="#011320"/><path d="M19.78 18.566L60 2.742v26.373L19.78 46.258V18.566z" fill="#0F5ADB"/><path d="M105.68 16.56h-7.92c-.96-3.6-3.853-5.4-8.68-5.4-2.907 0-5.2.827-6.88 2.48-1.68 1.653-2.52 3.933-2.52 6.84s.84 5.187 2.52 6.84c1.68 1.653 3.973 2.48 6.88 2.48 2.533 0 4.56-.533 6.08-1.6 1.547-1.067 2.44-2.56 2.68-4.48h7.96c-.373 3.627-2.067 6.547-5.08 8.76-3.013 2.187-6.893 3.28-11.64 3.28-5.307 0-9.533-1.387-12.68-4.16-3.147-2.8-4.72-6.507-4.72-11.12 0-4.613 1.573-8.307 4.72-11.08 3.147-2.8 7.373-4.2 12.68-4.2 4.693 0 8.533 1.067 11.52 3.2 3.013 2.107 4.707 4.827 5.08 8.16zm2.021-3.2h23.44v5.16h-8.36V35h-6.72V18.52h-8.36v-5.16zm34.386 7.16h-6.96c0-2.56 1.04-4.52 3.12-5.88 2.08-1.36 5.134-2.04 9.16-2.04 1.28 0 2.414.067 3.4.2 1.014.107 2.014.347 3 .72 1.014.347 1.854.813 2.52 1.4.667.587 1.2 1.373 1.6 2.36.427.987.64 2.147.64 3.48v10.76c0 1.547.334 2.547 1 3V35h-7.4l-.32-2.36c-2.32 2.08-5.333 3.12-9.04 3.12-3.013 0-5.373-.653-7.08-1.96-1.706-1.307-2.56-3.04-2.56-5.2s.814-3.72 2.44-4.68c1.627-.987 4.24-1.627 7.84-1.92.48-.027 1.174-.08 2.08-.16a94.38 94.38 0 002.84-.2c.587-.08 1.214-.2 1.88-.36.694-.187 1.16-.427 1.4-.72.24-.32.36-.733.36-1.24 0-1.627-1.666-2.44-5-2.44-3.28 0-4.92 1.213-4.92 3.64zm9.92 4.04c-.826.453-2.653.827-5.48 1.12-1.146.107-2 .213-2.56.32-.56.08-1.133.227-1.72.44-.586.187-.986.44-1.2.76-.213.32-.32.733-.32 1.24 0 .827.32 1.493.96 2 .667.507 1.56.76 2.68.76 2.294 0 4.134-.547 5.52-1.64 1.414-1.093 2.12-2.507 2.12-4.24v-.76zm14.4-11.2h23.24V35h-6.72V18.52h-9.8v6.08c0 7.44-2.706 11.16-8.12 11.16h-3.64V29.8h1.92c1.147 0 1.947-.373 2.4-1.12.48-.747.72-2.107.72-4.08V13.36zm35.416 0v8h7.92c6.16 0 9.24 2.213 9.24 6.64 0 2.373-.734 4.133-2.2 5.28-1.467 1.147-3.827 1.72-7.08 1.72h-14.6V13.36h6.72zm0 12.76v4.12h7.36c1.066 0 1.8-.16 2.2-.48.426-.347.64-.88.64-1.6 0-.72-.214-1.24-.64-1.56-.4-.32-1.134-.48-2.2-.48h-7.36z" fill="#011320"/><path d="M256.11 16.56h-7.92c-.96-3.6-3.854-5.4-8.68-5.4-2.907 0-5.2.827-6.88 2.48-1.68 1.653-2.52 3.933-2.52 6.84s.84 5.187 2.52 6.84c1.68 1.653 3.973 2.48 6.88 2.48 2.533 0 4.56-.533 6.08-1.6 1.546-1.067 2.44-2.56 2.68-4.48h7.96c-.374 3.627-2.067 6.547-5.08 8.76-3.014 2.187-6.894 3.28-11.64 3.28-5.307 0-9.534-1.387-12.68-4.16-3.147-2.8-4.72-6.507-4.72-11.12 0-4.613 1.573-8.307 4.72-11.08 3.146-2.8 7.373-4.2 12.68-4.2 4.693 0 8.533 1.067 11.52 3.2 3.013 2.107 4.706 4.827 5.08 8.16zm28.941 11.4c-.907 2.48-2.454 4.4-4.64 5.76-2.187 1.36-4.867 2.04-8.04 2.04-4.027 0-7.214-1.04-9.56-3.12-2.32-2.08-3.48-4.907-3.48-8.48 0-3.547 1.16-6.36 3.48-8.44 2.32-2.08 5.506-3.12 9.56-3.12 4.186 0 7.4 1.08 9.64 3.24 2.266 2.133 3.4 5.187 3.4 9.16v.92h-18.52c0 1.573.506 2.84 1.52 3.8 1.013.933 2.333 1.4 3.96 1.4 2.666 0 4.426-1.053 5.28-3.16h7.4zm-17.96-6.52h10.88c-.134-1.333-.694-2.387-1.68-3.16-.96-.8-2.214-1.2-3.76-1.2-1.547 0-2.814.4-3.8 1.2-.96.773-1.507 1.827-1.64 3.16zm29.185-8.08v2.12c1.867-1.92 4.427-2.88 7.68-2.88 3.627 0 6.587 1.093 8.88 3.28 2.293 2.16 3.44 4.92 3.44 8.28 0 3.413-1.16 6.2-3.48 8.36-2.293 2.16-5.28 3.24-8.96 3.24-3.093 0-5.613-1-7.56-3v9.88h-6.72V13.36h6.72zm11 6.16c-1.147-1.173-2.68-1.76-4.6-1.76-1.92 0-3.467.6-4.64 1.8-1.173 1.2-1.76 2.747-1.76 4.64 0 1.893.573 3.44 1.72 4.64 1.173 1.173 2.72 1.76 4.64 1.76 1.92 0 3.453-.587 4.6-1.76 1.173-1.2 1.76-2.76 1.76-4.68s-.573-3.467-1.72-4.64zM320.454 35V13.36h14.88c5.6 0 8.4 1.973 8.4 5.92 0 1.84-.946 3.307-2.84 4.4a6.794 6.794 0 012.76 1.84c.747.827 1.12 1.827 1.12 3 0 2.267-.773 3.92-2.32 4.96-1.52 1.013-3.853 1.52-7 1.52h-15zm6.72-8.76v4h7.72c1.947 0 2.92-.64 2.92-1.92 0-.773-.226-1.307-.68-1.6-.453-.32-1.186-.48-2.2-.48h-7.76zm0-8.12v3.64h7.24c.907 0 1.547-.133 1.92-.4.4-.293.6-.773.6-1.44 0-1.2-.813-1.8-2.44-1.8h-7.32zm28.431-4.76v14.32l10.2-14.32h7.8V35h-6.44V20.36L356.965 35h-7.8V13.36h6.44zm48.403 8.32h-7.4c-.187-1.253-.76-2.213-1.72-2.88-.933-.693-2.2-1.04-3.8-1.04-1.813 0-3.28.587-4.4 1.76-1.093 1.173-1.64 2.733-1.64 4.68 0 1.947.547 3.507 1.64 4.68 1.12 1.147 2.587 1.72 4.4 1.72 1.547 0 2.827-.4 3.84-1.2 1.04-.827 1.613-1.893 1.72-3.2h7.6c-.213 2.827-1.533 5.133-3.96 6.92-2.4 1.76-5.493 2.64-9.28 2.64-4 0-7.213-1.053-9.64-3.16-2.4-2.107-3.6-4.92-3.6-8.44 0-3.573 1.213-6.387 3.64-8.44 2.453-2.08 5.813-3.12 10.08-3.12 3.707 0 6.627.787 8.76 2.36s3.387 3.813 3.76 6.72z" fill="#0F5ADB"/></svg>