<svg width="409" height="52" fill="none" xmlns="http://www.w3.org/2000/svg"><path d="M0 21.5l30.5-12v20L0 42.5v-21z" fill="#fff"/><path d="M15 21.5l30.5-12v20L15 42.5v-21z" fill="#0F5ADB"/><path d="M92.964 17.638h-8.316c-1.008-3.78-4.046-5.67-9.114-5.67-3.052 0-5.46.868-7.224 2.604-1.764 1.736-2.646 4.13-2.646 7.182 0 3.052.882 5.446 2.646 7.182 1.764 1.736 4.172 2.604 7.224 2.604 2.66 0 4.788-.56 6.384-1.68 1.624-1.12 2.562-2.688 2.814-4.704h8.358c-.392 3.808-2.17 6.874-5.334 9.198-3.164 2.296-7.238 3.444-12.222 3.444-5.572 0-10.01-1.456-13.314-4.368-3.304-2.94-4.956-6.832-4.956-11.676s1.652-8.722 4.956-11.634c3.304-2.94 7.742-4.41 13.314-4.41 4.928 0 8.96 1.12 12.096 3.36 3.164 2.212 4.942 5.068 5.334 8.568zm2.122-3.36h24.612v5.418h-8.778V37h-7.056V19.696h-8.778v-5.418zm36.106 7.518h-7.308c0-2.688 1.092-4.746 3.276-6.174 2.184-1.428 5.39-2.142 9.618-2.142 1.344 0 2.534.07 3.57.21 1.064.112 2.114.364 3.15.756 1.064.364 1.946.854 2.646 1.47s1.26 1.442 1.68 2.478c.448 1.036.672 2.254.672 3.654v11.298c0 1.624.35 2.674 1.05 3.15V37h-7.77l-.336-2.478c-2.436 2.184-5.6 3.276-9.492 3.276-3.164 0-5.642-.686-7.434-2.058-1.792-1.372-2.688-3.192-2.688-5.46s.854-3.906 2.562-4.914c1.708-1.036 4.452-1.708 8.232-2.016a72.704 72.704 0 002.184-.168c1.4-.084 2.394-.154 2.982-.21.616-.084 1.274-.21 1.974-.378.728-.196 1.218-.448 1.47-.756.252-.336.378-.77.378-1.302 0-1.708-1.75-2.562-5.25-2.562-3.444 0-5.166 1.274-5.166 3.822zm10.416 4.242c-.868.476-2.786.868-5.754 1.176-1.204.112-2.1.224-2.688.336a9.02 9.02 0 00-1.806.462c-.616.196-1.036.462-1.26.798-.224.336-.336.77-.336 1.302 0 .868.336 1.568 1.008 2.1.7.532 1.638.798 2.814.798 2.408 0 4.34-.574 5.796-1.722 1.484-1.148 2.226-2.632 2.226-4.452v-.798zm15.12-11.76h24.402V37h-7.056V19.696h-10.29v6.384c0 7.812-2.842 11.718-8.526 11.718h-3.822V31.54h2.016c1.204 0 2.044-.392 2.52-1.176.504-.784.756-2.212.756-4.284V14.278zm37.186 0v8.4h8.316c6.468 0 9.702 2.324 9.702 6.972 0 2.492-.77 4.34-2.31 5.544-1.54 1.204-4.018 1.806-7.434 1.806h-15.33V14.278h7.056zm0 13.398v4.326h7.728c1.12 0 1.89-.168 2.31-.504.448-.364.672-.924.672-1.68 0-.756-.224-1.302-.672-1.638-.42-.336-1.19-.504-2.31-.504h-7.728z" fill="#fff"/><path d="M250.915 17.638h-8.316c-1.008-3.78-4.046-5.67-9.114-5.67-3.052 0-5.46.868-7.224 2.604-1.764 1.736-2.646 4.13-2.646 7.182 0 3.052.882 5.446 2.646 7.182 1.764 1.736 4.172 2.604 7.224 2.604 2.66 0 4.788-.56 6.384-1.68 1.624-1.12 2.562-2.688 2.814-4.704h8.358c-.392 3.808-2.17 6.874-5.334 9.198-3.164 2.296-7.238 3.444-12.222 3.444-5.572 0-10.01-1.456-13.314-4.368-3.304-2.94-4.956-6.832-4.956-11.676s1.652-8.722 4.956-11.634c3.304-2.94 7.742-4.41 13.314-4.41 4.928 0 8.96 1.12 12.096 3.36 3.164 2.212 4.942 5.068 5.334 8.568zm30.388 11.97c-.952 2.604-2.576 4.62-4.872 6.048s-5.11 2.142-8.442 2.142c-4.228 0-7.574-1.092-10.038-3.276-2.436-2.184-3.654-5.152-3.654-8.904 0-3.724 1.218-6.678 3.654-8.862s5.782-3.276 10.038-3.276c4.396 0 7.77 1.134 10.122 3.402 2.38 2.24 3.57 5.446 3.57 9.618v.966h-19.446c0 1.652.532 2.982 1.596 3.99 1.064.98 2.45 1.47 4.158 1.47 2.8 0 4.648-1.106 5.544-3.318h7.77zm-18.858-6.846h11.424c-.14-1.4-.728-2.506-1.764-3.318-1.008-.84-2.324-1.26-3.948-1.26s-2.954.42-3.99 1.26c-1.008.812-1.582 1.918-1.722 3.318zm30.645-8.484v2.226c1.96-2.016 4.648-3.024 8.064-3.024 3.808 0 6.916 1.148 9.324 3.444 2.408 2.268 3.612 5.166 3.612 8.694 0 3.584-1.218 6.51-3.654 8.778-2.408 2.268-5.544 3.402-9.408 3.402-3.248 0-5.894-1.05-7.938-3.15v10.374h-7.056V14.278h7.056zm11.55 6.468c-1.204-1.232-2.814-1.848-4.83-1.848s-3.64.63-4.872 1.89c-1.232 1.26-1.848 2.884-1.848 4.872s.602 3.612 1.806 4.872c1.232 1.232 2.856 1.848 4.872 1.848s3.626-.616 4.83-1.848c1.232-1.26 1.848-2.898 1.848-4.914 0-2.016-.602-3.64-1.806-4.872zM318.477 37V14.278h15.624c5.88 0 8.82 2.072 8.82 6.216 0 1.932-.994 3.472-2.982 4.62a7.143 7.143 0 012.898 1.932c.784.868 1.176 1.918 1.176 3.15 0 2.38-.812 4.116-2.436 5.208-1.596 1.064-4.046 1.596-7.35 1.596h-15.75zm7.056-9.198v4.2h8.106c2.044 0 3.066-.672 3.066-2.016 0-.812-.238-1.372-.714-1.68-.476-.336-1.246-.504-2.31-.504h-8.148zm0-8.526v3.822h7.602c.952 0 1.624-.14 2.016-.42.42-.308.63-.812.63-1.512 0-1.26-.854-1.89-2.562-1.89h-7.686zm29.853-4.998v15.036l10.71-15.036h8.19V37h-6.762V21.628L356.814 37h-8.19V14.278h6.762zm50.823 8.736h-7.77c-.196-1.316-.798-2.324-1.806-3.024-.98-.728-2.31-1.092-3.99-1.092-1.904 0-3.444.616-4.62 1.848-1.148 1.232-1.722 2.87-1.722 4.914 0 2.044.574 3.682 1.722 4.914 1.176 1.204 2.716 1.806 4.62 1.806 1.624 0 2.968-.42 4.032-1.26 1.092-.868 1.694-1.988 1.806-3.36h7.98c-.224 2.968-1.61 5.39-4.158 7.266-2.52 1.848-5.768 2.772-9.744 2.772-4.2 0-7.574-1.106-10.122-3.318-2.52-2.212-3.78-5.166-3.78-8.862 0-3.752 1.274-6.706 3.822-8.862 2.576-2.184 6.104-3.276 10.584-3.276 3.892 0 6.958.826 9.198 2.478 2.24 1.652 3.556 4.004 3.948 7.056z" fill="#0F5ADB"/></svg>