<svg width="1301" height="756" fill="none" xmlns="http://www.w3.org/2000/svg"><mask id="a" fill="#fff"><path d="M18.2 636.763l-2.297-.414-1.67-2.096-2.095-2.925-2.724.415-1.67-5.021.628-9.627-.84-7.104-1.67-3.552-2.096-3.138.414-6.275-2.51-2.297L0 591.378l1.255-3.766-1.042-4.179 2.297-2.31 2.51-.414 3.352 4.18 3.138 1.041 1.469-3.137 3.552-1.469 4.807-.201h2.51l3.139 1.042.627-5.234-1.67-3.138.842-2.723 2.51.414 2.297 1.669 2.51 2.297 1.883-1.883 2.925 1.256 4.807.627 3.553 1.469.84-3.766-2.51-1.882-3.552-.841-2.297-2.297-2.51-.841 3.138-3.351 4.606-2.096 3.967 1.707 3.552-1.469 3.351 3.552 5.021 5.435 4.607-4.607 3.138-1.882-.841-4.594 2.924-2.924 2.925.414-.213-3.351 7.744-1.042 1.469-3.552 1.67-2.096 1.606 1.606v2.649h3.627l1.456 2.045h2.912l1.896-1.895h5.397l4.883-4.882 1.531-5.033h5.975l2.912-2.624 3.063.578.728 2.334 3.213 1.745h4.23l-.289 3.64 1.306 4.958 4.669.577 2.774 1.456v2.473l4.23-.151 4.958 4.807.59 5.836-3.791 3.64 2.774 2.623 1.532-1.531 2.987 1.092.879 4.23 1.97 1.97h2.988l.59 3.138 2.548 2.548.15 4.192-1.468 3.352-2.724 1.983h-4.08l-3.238 3.238-2.724 2.723v3.766l-3.552 1.468-3.766-.213-2.723 2.724-3.352 2.309 1.356 4.079 3.038 3.038-1.256 5.434-2.723 2.724 2.723 1.669 3.979 3.766 2.511 2.51-1.042 5.435 1.155 7.116v5.749l-2.197 2.196-2.096-2.297-3.138-.414.414 3.765 1.782 3.665 2.611 2.611-2.096 2.096-3.552.414h-7.105s-2.51.314-4.493.314c-1.983 0-1.594-1.544-1.594-1.544l-3.138-.841-1.469-1.468-3.765-.628v2.925l-2.925 1.255-3.552 4.179h-3.979l-4.393 1.255-2.561-.677-2.146 2.146v3.452l2.196 2.196 1.255 3.979-1.041 3.979-.942 3.665-2.41 2.397v1.468l-2.096 1.883-4.607 7.531v5.861l1.256 7.117-.829 5.422.415 6.69-5.021 2.297-3.352-1.469-4.807 1.669-4.607-1.041-.627-3.979-2.297-6.903-.414-5.021-3.352-2.297v-2.723l-1.67-4.393-2.924-3.766 1.883-3.137 1.255-3.552-3.138-3.352-1.042-3.765-3.552-.414-.728-2.197-2.636-2.598-4.606-.627-2.925-2.925-.841-6.69-2.925-2.723.841-4.18-3.552-2.937-1.883-4.807-3.138-1.468-4.606-3.138-1.469-5.021-3.138-4.807-1.042-4.192z"/></mask><path d="M18.2 636.763l-2.297-.414-1.67-2.096-2.095-2.925-2.724.415-1.67-5.021.628-9.627-.84-7.104-1.67-3.552-2.096-3.138.414-6.275-2.51-2.297L0 591.378l1.255-3.766-1.042-4.179 2.297-2.31 2.51-.414 3.352 4.18 3.138 1.041 1.469-3.137 3.552-1.469 4.807-.201h2.51l3.139 1.042.627-5.234-1.67-3.138.842-2.723 2.51.414 2.297 1.669 2.51 2.297 1.883-1.883 2.925 1.256 4.807.627 3.553 1.469.84-3.766-2.51-1.882-3.552-.841-2.297-2.297-2.51-.841 3.138-3.351 4.606-2.096 3.967 1.707 3.552-1.469 3.351 3.552 5.021 5.435 4.607-4.607 3.138-1.882-.841-4.594 2.924-2.924 2.925.414-.213-3.351 7.744-1.042 1.469-3.552 1.67-2.096 1.606 1.606v2.649h3.627l1.456 2.045h2.912l1.896-1.895h5.397l4.883-4.882 1.531-5.033h5.975l2.912-2.624 3.063.578.728 2.334 3.213 1.745h4.23l-.289 3.64 1.306 4.958 4.669.577 2.774 1.456v2.473l4.23-.151 4.958 4.807.59 5.836-3.791 3.64 2.774 2.623 1.532-1.531 2.987 1.092.879 4.23 1.97 1.97h2.988l.59 3.138 2.548 2.548.15 4.192-1.468 3.352-2.724 1.983h-4.08l-3.238 3.238-2.724 2.723v3.766l-3.552 1.468-3.766-.213-2.723 2.724-3.352 2.309 1.356 4.079 3.038 3.038-1.256 5.434-2.723 2.724 2.723 1.669 3.979 3.766 2.511 2.51-1.042 5.435 1.155 7.116v5.749l-2.197 2.196-2.096-2.297-3.138-.414.414 3.765 1.782 3.665 2.611 2.611-2.096 2.096-3.552.414h-7.105s-2.51.314-4.493.314c-1.983 0-1.594-1.544-1.594-1.544l-3.138-.841-1.469-1.468-3.765-.628v2.925l-2.925 1.255-3.552 4.179h-3.979l-4.393 1.255-2.561-.677-2.146 2.146v3.452l2.196 2.196 1.255 3.979-1.041 3.979-.942 3.665-2.41 2.397v1.468l-2.096 1.883-4.607 7.531v5.861l1.256 7.117-.829 5.422.415 6.69-5.021 2.297-3.352-1.469-4.807 1.669-4.607-1.041-.627-3.979-2.297-6.903-.414-5.021-3.352-2.297v-2.723l-1.67-4.393-2.924-3.766 1.883-3.137 1.255-3.552-3.138-3.352-1.042-3.765-3.552-.414-.728-2.197-2.636-2.598-4.606-.627-2.925-2.925-.841-6.69-2.925-2.723.841-4.18-3.552-2.937-1.883-4.807-3.138-1.468-4.606-3.138-1.469-5.021-3.138-4.807-1.042-4.192z" fill="#F3F3F3" stroke="#fff" stroke-width="2" mask="url(#a)"/><mask id="b" fill="#fff"><path d="M71.547 440.549l1.041-4.18 1.256-4.606-3.138-3.138 2.096-1.468-.214-3.552 1.256-5.021 2.297-5.434 1.682-4.607 4.18-1.255 1.468-3.138 3.979-3.351 3.552-.314 2.824 3.452 1.256-3.552h2.924l1.255-2.196 1.155-2.511.414-4.393 1.883-1.882.314-2.611 3.238-2.724 1.256 2.724 1.895 1.895h3.653l1.832 1.833 3.176-.201 2.435 1.494h4.468l2.373 2.372 2.912.339 1.757-1.758h3.515l2.234-2.234h2.774l2.297 1.155s1.079 1.694 1.694 1.694c.603 0 .741 3.05.741 3.05h2.975l2.033 2.435h2.711l.54-1.757 1.757 1.757s2.837 1.356 3.39 1.356c.552 0 2.974 1.355 2.974 1.355l1.896 1.08 2.435.954 3.389-.678 2.975.941-1.08 3.515v4.192l2.573-.465 3.854-.364 2.196 2.197 5.235 3.577 2.02-2.021 3.942 3.941v8.259l4.958 4.958 4.581-2.021 5.134-1.28 4.594 2.02 4.217-2.02 2.749 5.874 5.41 1.004 4.13 4.129 1.468 4.042 7.707 4.041 2.85 4.13 1.92-1.933 4.582 1.104 2.573-4.041 4.857 4.305-2.472 2.849-.728 9.903h-5.875l-2.472 2.661-2.109-2.109-5.046 1.745-3.251 3.263-1.418-1.418h-3.942l-2.297-2.297-1.468-3.489h-3.666l-2.384 2.384-6.427 1.657-4.958-1.104h-4.218l-1.656 4.217h-4.218l-2.937-2.937-2.385 2.385-1.104 4.405-2.661 2.661-5.41.64-4.582 1.469-4.217.74-2.573 2.573-3.49.728-2.372 2.385v3.815l2.021 1.381 1.38 1.381v2.02l.741 1.908-2.021 2.021-2.548.64-1.28 1.268-1.958 1.958h-2.385v1.644l-1.858 1.858-2.385 1.644-2.021-.954-2.385 2.711-1.958 1.958.741 3.288-.741 5.51 1.695 3.075-.427 6.577h-3.502l-1.167 2.121-4.142 2.548-3.666 1.958-2.071 2.071-2.021.113-2.949 1.331 1.669 4.305-1.531 1.531h-4.205l-3.213-1.795-.728-2.334-3.063-.578-2.912 2.624h-5.975l-1.531 5.033-4.883 4.882H95.81l-1.896 1.895h-2.912l-1.456-2.046H85.92v-2.648l-1.607-1.606-3.552-1.67v-4.393l-2.737-3.087-.602-.678-1.255-4.807-3.138-1.883-3.352-3.765 1.256-4.393-1.256-6.489-3.991-2.925-4.607-3.552-1.468-4.807-3.138-2.51-1.03-2.937 2.724-3.138 2.096-4.606v-4.393l-2.31-4.18-2.296-3.552 2.096-1.669 1.255-3.138h2.51l1.883-1.669 1.469-5.648.414-3.351-1.67-4.18-2.296-2.297-3.138-.414-2.297-2.51L54 452.071l-2.824 2.41-2.222-2.222-1.883-3.137 1.883-3.352 3.98-3.978 2.723-3.138 1.042-3.766 3.138-.213 2.297 2.51 1.255 3.138 4.18 1.469 3.979-1.243z"/></mask><path d="M71.547 440.549l1.041-4.18 1.256-4.606-3.138-3.138 2.096-1.468-.214-3.552 1.256-5.021 2.297-5.434 1.682-4.607 4.18-1.255 1.468-3.138 3.979-3.351 3.552-.314 2.824 3.452 1.256-3.552h2.924l1.255-2.196 1.155-2.511.414-4.393 1.883-1.882.314-2.611 3.238-2.724 1.256 2.724 1.895 1.895h3.653l1.832 1.833 3.176-.201 2.435 1.494h4.468l2.373 2.372 2.912.339 1.757-1.758h3.515l2.234-2.234h2.774l2.297 1.155s1.079 1.694 1.694 1.694c.603 0 .741 3.05.741 3.05h2.975l2.033 2.435h2.711l.54-1.757 1.757 1.757s2.837 1.356 3.39 1.356c.552 0 2.974 1.355 2.974 1.355l1.896 1.08 2.435.954 3.389-.678 2.975.941-1.08 3.515v4.192l2.573-.465 3.854-.364 2.196 2.197 5.235 3.577 2.02-2.021 3.942 3.941v8.259l4.958 4.958 4.581-2.021 5.134-1.28 4.594 2.02 4.217-2.02 2.749 5.874 5.41 1.004 4.13 4.129 1.468 4.042 7.707 4.041 2.85 4.13 1.92-1.933 4.582 1.104 2.573-4.041 4.857 4.305-2.472 2.849-.728 9.903h-5.875l-2.472 2.661-2.109-2.109-5.046 1.745-3.251 3.263-1.418-1.418h-3.942l-2.297-2.297-1.468-3.489h-3.666l-2.384 2.384-6.427 1.657-4.958-1.104h-4.218l-1.656 4.217h-4.218l-2.937-2.937-2.385 2.385-1.104 4.405-2.661 2.661-5.41.64-4.582 1.469-4.217.74-2.573 2.573-3.49.728-2.372 2.385v3.815l2.021 1.381 1.38 1.381v2.02l.741 1.908-2.021 2.021-2.548.64-1.28 1.268-1.958 1.958h-2.385v1.644l-1.858 1.858-2.385 1.644-2.021-.954-2.385 2.711-1.958 1.958.741 3.288-.741 5.51 1.695 3.075-.427 6.577h-3.502l-1.167 2.121-4.142 2.548-3.666 1.958-2.071 2.071-2.021.113-2.949 1.331 1.669 4.305-1.531 1.531h-4.205l-3.213-1.795-.728-2.334-3.063-.578-2.912 2.624h-5.975l-1.531 5.033-4.883 4.882H95.81l-1.896 1.895h-2.912l-1.456-2.046H85.92v-2.648l-1.607-1.606-3.552-1.67v-4.393l-2.737-3.087-.602-.678-1.255-4.807-3.138-1.883-3.352-3.765 1.256-4.393-1.256-6.489-3.991-2.925-4.607-3.552-1.468-4.807-3.138-2.51-1.03-2.937 2.724-3.138 2.096-4.606v-4.393l-2.31-4.18-2.296-3.552 2.096-1.669 1.255-3.138h2.51l1.883-1.669 1.469-5.648.414-3.351-1.67-4.18-2.296-2.297-3.138-.414-2.297-2.51L54 452.071l-2.824 2.41-2.222-2.222-1.883-3.137 1.883-3.352 3.98-3.978 2.723-3.138 1.042-3.766 3.138-.213 2.297 2.51 1.255 3.138 4.18 1.469 3.979-1.243z" fill="#F3F3F3" stroke="#fff" stroke-width="2" mask="url(#b)"/><mask id="c" fill="#fff"><path d="M285.984 624.965h7.431l2.435-.954 3.389 1.481h2.121l1.482 2.648-1.055 2.649-3.929 1.907.314 2.649h2.222l.628 3.288 1.355 3.038 2.925 2.924 1.983 1.983.841 3.552 2.925 2.925-2.925 3.978-2.724 2.724h-4.606l-4.707.314-2.373-2.385-1.669-3.401H289.9l-2.246 2.246h-3.665l-4.08-4.079-.791-2.36-3.087-3.087v-5.334l-2.611-2.611h-4.808l-3.979 1.468-1.468-3.137-3.979-3.138-3.552-1.883-4.808 2.297-4.393.628-3.552-1.042-2.511-4.807-3.552-3.138-2.51 4.179h-2.724v-3.351l2.51-2.51-1.669-3.552-2.096-5.435-.841-5.648-3.138-3.765-5.021-1.883-1.469-3.552-2.711-2.724-5.021.841h-2.924v-3.978l-1.469-4.18-5.121-.941-2.611 2.61-4.807 1.67-4.18-2.297h-4.393l-2.109 3.138h-9.201l-1.041 2.297-2.724 2.723-.414 3.979-5.122-.941-3.037-3.038v-4.179l1.355-4.08-2.196-2.196h-3.552l-.151-4.192-2.548-2.548-.59-3.138h-2.987l-1.971-1.97-.879-4.23-2.987-1.092-1.531 1.531-2.774-2.623 3.79-3.64-.59-5.836-4.958-4.807-4.23.15v-2.472l-2.774-1.456-4.669-.578-1.305-4.957.288-3.64 1.532-1.532-1.67-4.305 2.95-1.33 2.021-.113 2.071-2.071 3.665-1.958 4.142-2.548 1.168-2.121h3.502l.426-6.577-1.694-3.075.74-5.51-.74-3.288 4.355-4.67 2.021.954 2.385-1.644 1.858-1.857v-1.645h2.385l3.238-3.238 2.548-.64 2.021-2.021-.741-1.908v-2.02l-3.401-2.762v-3.815l2.372-2.385 3.49-.728 2.573-2.573 4.217-.74 4.582-1.469 5.41-.64 2.661-2.661 1.104-4.405 2.385-2.385 2.937 2.937h4.218l1.657-4.217h4.217l4.958 1.104 6.427-1.657 2.385-2.384h3.665l1.468 3.489 2.297 2.297h3.942l1.418 1.418 3.251-3.263 5.046-1.745 2.109 2.109 2.472-2.661h5.875l.728-9.903 2.472-2.849 1.381-1.381v-3.853l2.937-1.469-4.581-4.769 2.197-2.021 3.966 1.757 7.443-7.442 2.247-1.933 1.569.527 3.979 4.707-.728 2.296 1.883.942.389 3.175-2.573 2.573v4.217l-4.042.917v2.748l-2.749 2.749v3.113l2.197 2.196v3.113l.916 3.301-1.28 2.937 1.468 1.468 2.385-2.937 1.469-4.217 3.665-.916 3.853 1.832 2.385 2.385 3.301-3.112 1.745 1.744 1.004 2.297 3.113-.364 1.933-1.933h3.389l3.201-1.255v-2.51l-2.121-2.121 1.958-3.841 4.242 2.36 1.494-1.494 1.494 1.494 2.046-2.046 2.673.941 1.105 1.732-.477 2.674 2.197 2.673 2.673-.941 4.556 2.045 2.988 2.988 3.301-1.732 3.766 1.418 2.121-2.121 2.121.703 1.494 1.493 2.121-.703 1.255-2.673h2.197l4.87 3.301 4.707 2.51 5.335 2.046 7.217 1.105v3.263l-4.242 2.196v4.243l-2.36 5.811-4.243 3.765-3.138 4.707-2.824 2.824h-3.615l-3.452 2.987v5.334l2.674 4.243-1.419 4.707-2.121 2.121v1.493l2.272 2.36-2.586 2.585-2.585 2.122-3.615-.791-3.766 2.51.163 2.046 1.645 1.644-2.272 2.272-1.569 1.569-2.511-3.765h-2.824l-2.197 3.614-.941 3.929-3.452 1.732h-4.079l-1.255-1.255-1.419 2.824v3.615l-1.644 1.644-2.736 3.037 2.686 3.715 4.857 3.515h3l2.473 3.615 2.661-2.661.854 3.501-.954 3.188-2.548 4.67v2.547l-4.72 1.118-2.812 2.811-4.355-1.594v-2.862l-2.335-2.334-3.389-1.695-3.188-.954-4.569 3.402.854 4.029 2.02 2.021.641 5.622 2.648 4.243 5.197.527 2.221-1.481 5.096 1.594 1.482 4.556v4.029h-2.436l-1.481-2.021-3.502.314v1.481l-3.238 1.117-4.293 4.293v2.334l-2.761 3.715v3.615h-2.235l-2.861 5.196-.528 3.075-3.288 1.481-1.331 2.172z"/></mask><path d="M285.984 624.965h7.431l2.435-.954 3.389 1.481h2.121l1.482 2.648-1.055 2.649-3.929 1.907.314 2.649h2.222l.628 3.288 1.355 3.038 2.925 2.924 1.983 1.983.841 3.552 2.925 2.925-2.925 3.978-2.724 2.724h-4.606l-4.707.314-2.373-2.385-1.669-3.401H289.9l-2.246 2.246h-3.665l-4.08-4.079-.791-2.36-3.087-3.087v-5.334l-2.611-2.611h-4.808l-3.979 1.468-1.468-3.137-3.979-3.138-3.552-1.883-4.808 2.297-4.393.628-3.552-1.042-2.511-4.807-3.552-3.138-2.51 4.179h-2.724v-3.351l2.51-2.51-1.669-3.552-2.096-5.435-.841-5.648-3.138-3.765-5.021-1.883-1.469-3.552-2.711-2.724-5.021.841h-2.924v-3.978l-1.469-4.18-5.121-.941-2.611 2.61-4.807 1.67-4.18-2.297h-4.393l-2.109 3.138h-9.201l-1.041 2.297-2.724 2.723-.414 3.979-5.122-.941-3.037-3.038v-4.179l1.355-4.08-2.196-2.196h-3.552l-.151-4.192-2.548-2.548-.59-3.138h-2.987l-1.971-1.97-.879-4.23-2.987-1.092-1.531 1.531-2.774-2.623 3.79-3.64-.59-5.836-4.958-4.807-4.23.15v-2.472l-2.774-1.456-4.669-.578-1.305-4.957.288-3.64 1.532-1.532-1.67-4.305 2.95-1.33 2.021-.113 2.071-2.071 3.665-1.958 4.142-2.548 1.168-2.121h3.502l.426-6.577-1.694-3.075.74-5.51-.74-3.288 4.355-4.67 2.021.954 2.385-1.644 1.858-1.857v-1.645h2.385l3.238-3.238 2.548-.64 2.021-2.021-.741-1.908v-2.02l-3.401-2.762v-3.815l2.372-2.385 3.49-.728 2.573-2.573 4.217-.74 4.582-1.469 5.41-.64 2.661-2.661 1.104-4.405 2.385-2.385 2.937 2.937h4.218l1.657-4.217h4.217l4.958 1.104 6.427-1.657 2.385-2.384h3.665l1.468 3.489 2.297 2.297h3.942l1.418 1.418 3.251-3.263 5.046-1.745 2.109 2.109 2.472-2.661h5.875l.728-9.903 2.472-2.849 1.381-1.381v-3.853l2.937-1.469-4.581-4.769 2.197-2.021 3.966 1.757 7.443-7.442 2.247-1.933 1.569.527 3.979 4.707-.728 2.296 1.883.942.389 3.175-2.573 2.573v4.217l-4.042.917v2.748l-2.749 2.749v3.113l2.197 2.196v3.113l.916 3.301-1.28 2.937 1.468 1.468 2.385-2.937 1.469-4.217 3.665-.916 3.853 1.832 2.385 2.385 3.301-3.112 1.745 1.744 1.004 2.297 3.113-.364 1.933-1.933h3.389l3.201-1.255v-2.51l-2.121-2.121 1.958-3.841 4.242 2.36 1.494-1.494 1.494 1.494 2.046-2.046 2.673.941 1.105 1.732-.477 2.674 2.197 2.673 2.673-.941 4.556 2.045 2.988 2.988 3.301-1.732 3.766 1.418 2.121-2.121 2.121.703 1.494 1.493 2.121-.703 1.255-2.673h2.197l4.87 3.301 4.707 2.51 5.335 2.046 7.217 1.105v3.263l-4.242 2.196v4.243l-2.36 5.811-4.243 3.765-3.138 4.707-2.824 2.824h-3.615l-3.452 2.987v5.334l2.674 4.243-1.419 4.707-2.121 2.121v1.493l2.272 2.36-2.586 2.585-2.585 2.122-3.615-.791-3.766 2.51.163 2.046 1.645 1.644-2.272 2.272-1.569 1.569-2.511-3.765h-2.824l-2.197 3.614-.941 3.929-3.452 1.732h-4.079l-1.255-1.255-1.419 2.824v3.615l-1.644 1.644-2.736 3.037 2.686 3.715 4.857 3.515h3l2.473 3.615 2.661-2.661.854 3.501-.954 3.188-2.548 4.67v2.547l-4.72 1.118-2.812 2.811-4.355-1.594v-2.862l-2.335-2.334-3.389-1.695-3.188-.954-4.569 3.402.854 4.029 2.02 2.021.641 5.622 2.648 4.243 5.197.527 2.221-1.481 5.096 1.594 1.482 4.556v4.029h-2.436l-1.481-2.021-3.502.314v1.481l-3.238 1.117-4.293 4.293v2.334l-2.761 3.715v3.615h-2.235l-2.861 5.196-.528 3.075-3.288 1.481-1.331 2.172z" fill="#F3F3F3" stroke="#fff" stroke-width="2" mask="url(#c)"/><mask id="d" fill="#fff"><path d="M345.594 612.702l7.117-.201 4.807 1.469h3.553l3.979 2.096 4.179-.841 2.41-2.41h2.197l5.435 2.824h5.648l4.607-.841 3.765 2.096 4.607-1.255h5.234l2.511-3.552 4.606.414 4.18 2.51h5.234l1.883 3.766h3.766v-2.511l1.179-2.434 2.122-2.122v-2.824l1.732-.313 2.197-2.197.866-2.196v-3.69l2.987-2.988 2.272-2.271 4.004-.703 1.494-1.494v-2.824l-3.138-1.732-1.017-2.435-1.958-1.958-2.824-1.418v-2.36l3.301-1.569-1.419-4.242.314-3.301 2.511-2.51 1.882-3.138 3.138-2.197 3.302 3.301-2.046 2.046v2.51l2.824.942 3.615 1.104 2.36 1.105 2.673 1.732h3.452l2.197-2.046 3.615 1.883 3.138.941h5.02l4.155-1.958 3.377-3.376 1.882-2.674 5.925-3.464.64-4.38 5.673-4.13 6.954-1.932-.389-6.565 2.448-6.049 2.447-4.895 6.703-1.03 5.021 2.184h7.217l1.808 2.711 6.703.779 5.221-1.996 4.833 4.832 3.991-1.029 5.536 2.837 1.544-5.146 8.246-3.477 7.732 5.673 4.77-4.769 7.468-3.226 3.088-5.159-5.924-2.573-5.285-3.476-.025-6.427 4.958-4.92 1.783-1.782.313-4.707 3.038-3.037v-5.234l-3.138-4.393 2.096-3.979 3.038-3.866 2.824-2.824-1.469-3.351.841-4.393-.841-5.02-2.41 2.41-2.472-2.385-4.808-1.042-1.042-4.393 2.097-2.096-.415-4.807-1.882-3.765-2.511-2.511h-2.51l-2.297-4.179 1.883-1.469v-3.765l-1.469-2.51v-2.096l2.824-2.611-1.782-3.665-4.607-2.724v-2.924l-1.883-1.883 1.783-3.138-.678-3.815-2.046-2.046.1-3.351 2.925.627.791-2.56 2.247-2.247 1.355-3.979-1.669-3.137h1.569l1.155-3.038-1.984-4.807v-3.238l-3.238-.628.1-4.079-2.51 2.41-1.255-1.255-2.511 2.196-1.355-1.355-.527-2.724-3.979-.627-2.611-2.611-.578-2.247-1.832-1.832-.214-3.866 3.816-2.874 3.088-3.088 1.569-2.51h4.18v-7.217l.414-5.021-4.494-2.51-1.204-2.46-.992.992-1.306-2.774 1.105-1.105 1.782-1.782 3.979-.627-.414-2.197 1.983-1.983-.728-2.724-2.924-1.569-2.824-.728-1.569-1.568-.841-2.297h-1.984l-.213-2.511-2.41 2.41.314 2.41.841 2.724-2.511 2.297-3.351-3.352-2.096-2.096-4.393 2.925 1.468 4.606 3.138 3.138v1.669l3.766 1.883 2.41 2.41 1.355 3.238v2.51l-3.552-3.351-3.238-3.238-3.239 1.983-2.51-2.096-4.393-3.351v-9l3.765-3.765.841-5.435v-6.049l1.042-4.393h-3.351l-1.469 3.138 1.469 3.552-1.67 4.392-2.51 3.979h-4.393l-5.234 5.234-3.352 3.351 3.038 3.038-.527 4.292 1.255 3.979 1.468 4.606-4.179 4.18-1.883 5.435-2.925 4.606.628 6.69-2.511 2.51.628 3.979h3.766l1.669 2.297 3.138-1.469 2.41-2.41 2.925 2.925 5.121 1.782 1.669 1.669 2.724 2.511 2.096 4.179-1.468 3.351 1.255 3.979-1.255 2.724-3.352 1.041.414 3.766v2.51l1.783 1.782 4.707 1.356v2.924l-4.808-1.041-4.179-4.18v-3.15l-.214-5.021 3.352-3.351-2.511-6.489-1.983-1.983-1.356-4.079-4.807.627h-4.393l-2.824 2.824-2.825 2.824.415 3.979 1.041 4.393-1.255 5.02-2.611 2.611-3.238 3.238-1.883 1.883v4.393l-4.18 2.297-5.234 1.468-1.255 1.255h-2.724s-3.037 1.356-2.196 2.197c.841.841-.728 3.665-.728 3.665h-3.766l-2.51-3.552-3.553.213-4.179-2.924-3.138-1.469-3.138-4.807v-3.979l3.138 1.042 2.196 2.197 3.452 2.196 3.138-2.096 5.234 1.042 2.925-1.669 3.138-4.607 5.435-5.434 4.606-1.256.841-7.744 4.607-3.552.628-3.351-3.666-3.665-1.569-5.548 1.67-3.978 2.297-7.945 1.468-8.999 4.18-6.276 1.042-5.648 1.255-7.117-3.552-3.138 1.669-5.434 5.963-5.962.941-7.631 2.096-2.096-1.883-7.117h-4.393l-2.51-2.51h-5.021l-2.51-3.552-3.979 2.096-2.297 5.02-2.097 5.021-2.723 6.062-3.553 3.552-1.569 1.569-4.493 2.197-4.18 1.468-2.297 2.925-1.469 4.179 2.724.841v3.138l-1.883 2.51-1.041 5.021v3.351l-4.18 2.096-1.983 1.983 2.196 4.493 3.979 2.724-.841 5.861 2.297 5.435 3.352 1.042-4.808 4.393v4.393l-4.18 2.51-2.924-4.606v-4.18l-3.552-4.807-3.352-5.234-4.92-4.92-1.645-3.351-1.707 2.51-3.301 3.301 2.046 1.933.414 1.569 1.569.527v7.117h-1.983l-.941 2.296-1.67.841-.313 2.297-.314 1.569 4.18 2.096v2.724l-3.866 1.569 3.238 3.238-5.021 2.51-3.765 3.766h-3.979l-1.469 4.606h-7.117l-6.69 1.468-6.69 3.766v4.606l-5.548-.201-4.067.628-2.197 2.51-3.929 2.046-3.928 3.928-3.615.477v-3.313l-2.674-.941-3.213 3.213-4.318 4.317-1.883 3.615.791 4.556-5.021 3.138-.477 3.765-4.242 2.674-2.825 5.334.791 3.615-1.732 3.301v2.824l-5.184 5.183-.703 3.691-1.958 1.958-1.105 2.987v3.251l-4.242 2.196v4.242l-2.36 5.812-4.242 3.765-3.138 4.707-2.825 2.824h-3.615l-3.451 2.987v5.334l2.673 4.242-1.418 4.707-2.121 2.121v1.494l2.271 2.36-2.585 2.585-2.586 2.121-3.615-.79-3.766 2.51.164 2.046 1.644 1.644-2.272 2.272-1.569 1.569-2.51-3.766h-2.825l-2.196 3.615-.942 3.929-3.451 1.732h-4.08l-1.255-1.255-1.418 2.824v3.614l-1.645 1.645-2.736 3.037 2.686 3.715 4.858 3.514h3l2.472 3.615 2.661-2.661.854 3.502-.954 3.188-2.548 4.669v2.548l-4.72 1.117-2.811 2.812-4.356-1.594v-2.862l-2.334-2.335-3.389-1.694-3.189-.954-4.569 3.402.854 4.028 2.021 2.021.64 5.623 2.648 4.242 5.197.528 2.222-1.481 5.096 1.594 1.481 4.556v4.029h-2.435l-1.481-2.021-3.502.314v1.481l-3.239 1.117-4.292 4.292v2.335l-2.762 3.715v3.615h-2.234l-2.862 5.196-.527 3.075-3.289 1.481-1.28 2.222h7.431l2.435-.954 3.389 1.481h2.121l1.481 2.648-1.054 2.648-3.929 1.908.314 2.649h2.222l.627 3.288 1.67-4.393 4.179 1.042 3.553-1.042 1.468-3.765-1.468-5.234 3.552-1.469 5.435-.213 3.552 3.552h2.925l2.61-2.611-2.824-2.824-2.297-2.297-2.297-1.468 2.925-2.925-1.469-3.137 1.469-4.607h4.393l4.807 2.511 3.352 2.924 3.765-1.042 5.335 1.017zm205.978-291.051l-2.084 2.083-2.272 1.896 2.084 1.518 1.707-1.518h2.661l2.473-2.285-2.272-2.272-2.297.578zm-6.841-21.074l-1.707 1.519 1.142 1.707 2.272-1.519 2.849.753-.765-1.707-3.791-.753zm-8.736 7.594l-.954 2.472 1.519 1.331 1.707-2.084-2.272-1.719zm-20.309-12.338l-2.084 1.519.766 1.707-1.519 2.083.377 1.33 3.414.954 3.226-1.518 1.895.188v-1.895l-3.038-.753 1.519-1.707-1.707-2.473-2.083.766-.766-.201z"/></mask><path d="M345.594 612.702l7.117-.201 4.807 1.469h3.553l3.979 2.096 4.179-.841 2.41-2.41h2.197l5.435 2.824h5.648l4.607-.841 3.765 2.096 4.607-1.255h5.234l2.511-3.552 4.606.414 4.18 2.51h5.234l1.883 3.766h3.766v-2.511l1.179-2.434 2.122-2.122v-2.824l1.732-.313 2.197-2.197.866-2.196v-3.69l2.987-2.988 2.272-2.271 4.004-.703 1.494-1.494v-2.824l-3.138-1.732-1.017-2.435-1.958-1.958-2.824-1.418v-2.36l3.301-1.569-1.419-4.242.314-3.301 2.511-2.51 1.882-3.138 3.138-2.197 3.302 3.301-2.046 2.046v2.51l2.824.942 3.615 1.104 2.36 1.105 2.673 1.732h3.452l2.197-2.046 3.615 1.883 3.138.941h5.02l4.155-1.958 3.377-3.376 1.882-2.674 5.925-3.464.64-4.38 5.673-4.13 6.954-1.932-.389-6.565 2.448-6.049 2.447-4.895 6.703-1.03 5.021 2.184h7.217l1.808 2.711 6.703.779 5.221-1.996 4.833 4.832 3.991-1.029 5.536 2.837 1.544-5.146 8.246-3.477 7.732 5.673 4.77-4.769 7.468-3.226 3.088-5.159-5.924-2.573-5.285-3.476-.025-6.427 4.958-4.92 1.783-1.782.313-4.707 3.038-3.037v-5.234l-3.138-4.393 2.096-3.979 3.038-3.866 2.824-2.824-1.469-3.351.841-4.393-.841-5.02-2.41 2.41-2.472-2.385-4.808-1.042-1.042-4.393 2.097-2.096-.415-4.807-1.882-3.765-2.511-2.511h-2.51l-2.297-4.179 1.883-1.469v-3.765l-1.469-2.51v-2.096l2.824-2.611-1.782-3.665-4.607-2.724v-2.924l-1.883-1.883 1.783-3.138-.678-3.815-2.046-2.046.1-3.351 2.925.627.791-2.56 2.247-2.247 1.355-3.979-1.669-3.137h1.569l1.155-3.038-1.984-4.807v-3.238l-3.238-.628.1-4.079-2.51 2.41-1.255-1.255-2.511 2.196-1.355-1.355-.527-2.724-3.979-.627-2.611-2.611-.578-2.247-1.832-1.832-.214-3.866 3.816-2.874 3.088-3.088 1.569-2.51h4.18v-7.217l.414-5.021-4.494-2.51-1.204-2.46-.992.992-1.306-2.774 1.105-1.105 1.782-1.782 3.979-.627-.414-2.197 1.983-1.983-.728-2.724-2.924-1.569-2.824-.728-1.569-1.568-.841-2.297h-1.984l-.213-2.511-2.41 2.41.314 2.41.841 2.724-2.511 2.297-3.351-3.352-2.096-2.096-4.393 2.925 1.468 4.606 3.138 3.138v1.669l3.766 1.883 2.41 2.41 1.355 3.238v2.51l-3.552-3.351-3.238-3.238-3.239 1.983-2.51-2.096-4.393-3.351v-9l3.765-3.765.841-5.435v-6.049l1.042-4.393h-3.351l-1.469 3.138 1.469 3.552-1.67 4.392-2.51 3.979h-4.393l-5.234 5.234-3.352 3.351 3.038 3.038-.527 4.292 1.255 3.979 1.468 4.606-4.179 4.18-1.883 5.435-2.925 4.606.628 6.69-2.511 2.51.628 3.979h3.766l1.669 2.297 3.138-1.469 2.41-2.41 2.925 2.925 5.121 1.782 1.669 1.669 2.724 2.511 2.096 4.179-1.468 3.351 1.255 3.979-1.255 2.724-3.352 1.041.414 3.766v2.51l1.783 1.782 4.707 1.356v2.924l-4.808-1.041-4.179-4.18v-3.15l-.214-5.021 3.352-3.351-2.511-6.489-1.983-1.983-1.356-4.079-4.807.627h-4.393l-2.824 2.824-2.825 2.824.415 3.979 1.041 4.393-1.255 5.02-2.611 2.611-3.238 3.238-1.883 1.883v4.393l-4.18 2.297-5.234 1.468-1.255 1.255h-2.724s-3.037 1.356-2.196 2.197c.841.841-.728 3.665-.728 3.665h-3.766l-2.51-3.552-3.553.213-4.179-2.924-3.138-1.469-3.138-4.807v-3.979l3.138 1.042 2.196 2.197 3.452 2.196 3.138-2.096 5.234 1.042 2.925-1.669 3.138-4.607 5.435-5.434 4.606-1.256.841-7.744 4.607-3.552.628-3.351-3.666-3.665-1.569-5.548 1.67-3.978 2.297-7.945 1.468-8.999 4.18-6.276 1.042-5.648 1.255-7.117-3.552-3.138 1.669-5.434 5.963-5.962.941-7.631 2.096-2.096-1.883-7.117h-4.393l-2.51-2.51h-5.021l-2.51-3.552-3.979 2.096-2.297 5.02-2.097 5.021-2.723 6.062-3.553 3.552-1.569 1.569-4.493 2.197-4.18 1.468-2.297 2.925-1.469 4.179 2.724.841v3.138l-1.883 2.51-1.041 5.021v3.351l-4.18 2.096-1.983 1.983 2.196 4.493 3.979 2.724-.841 5.861 2.297 5.435 3.352 1.042-4.808 4.393v4.393l-4.18 2.51-2.924-4.606v-4.18l-3.552-4.807-3.352-5.234-4.92-4.92-1.645-3.351-1.707 2.51-3.301 3.301 2.046 1.933.414 1.569 1.569.527v7.117h-1.983l-.941 2.296-1.67.841-.313 2.297-.314 1.569 4.18 2.096v2.724l-3.866 1.569 3.238 3.238-5.021 2.51-3.765 3.766h-3.979l-1.469 4.606h-7.117l-6.69 1.468-6.69 3.766v4.606l-5.548-.201-4.067.628-2.197 2.51-3.929 2.046-3.928 3.928-3.615.477v-3.313l-2.674-.941-3.213 3.213-4.318 4.317-1.883 3.615.791 4.556-5.021 3.138-.477 3.765-4.242 2.674-2.825 5.334.791 3.615-1.732 3.301v2.824l-5.184 5.183-.703 3.691-1.958 1.958-1.105 2.987v3.251l-4.242 2.196v4.242l-2.36 5.812-4.242 3.765-3.138 4.707-2.825 2.824h-3.615l-3.451 2.987v5.334l2.673 4.242-1.418 4.707-2.121 2.121v1.494l2.271 2.36-2.585 2.585-2.586 2.121-3.615-.79-3.766 2.51.164 2.046 1.644 1.644-2.272 2.272-1.569 1.569-2.51-3.766h-2.825l-2.196 3.615-.942 3.929-3.451 1.732h-4.08l-1.255-1.255-1.418 2.824v3.614l-1.645 1.645-2.736 3.037 2.686 3.715 4.858 3.514h3l2.472 3.615 2.661-2.661.854 3.502-.954 3.188-2.548 4.669v2.548l-4.72 1.117-2.811 2.812-4.356-1.594v-2.862l-2.334-2.335-3.389-1.694-3.189-.954-4.569 3.402.854 4.028 2.021 2.021.64 5.623 2.648 4.242 5.197.528 2.222-1.481 5.096 1.594 1.481 4.556v4.029h-2.435l-1.481-2.021-3.502.314v1.481l-3.239 1.117-4.292 4.292v2.335l-2.762 3.715v3.615h-2.234l-2.862 5.196-.527 3.075-3.289 1.481-1.28 2.222h7.431l2.435-.954 3.389 1.481h2.121l1.481 2.648-1.054 2.648-3.929 1.908.314 2.649h2.222l.627 3.288 1.67-4.393 4.179 1.042 3.553-1.042 1.468-3.765-1.468-5.234 3.552-1.469 5.435-.213 3.552 3.552h2.925l2.61-2.611-2.824-2.824-2.297-2.297-2.297-1.468 2.925-2.925-1.469-3.137 1.469-4.607h4.393l4.807 2.511 3.352 2.924 3.765-1.042 5.335 1.017zm205.978-291.051l-2.084 2.083-2.272 1.896 2.084 1.518 1.707-1.518h2.661l2.473-2.285-2.272-2.272-2.297.578zm-6.841-21.074l-1.707 1.519 1.142 1.707 2.272-1.519 2.849.753-.765-1.707-3.791-.753zm-8.736 7.594l-.954 2.472 1.519 1.331 1.707-2.084-2.272-1.719zm-20.309-12.338l-2.084 1.519.766 1.707-1.519 2.083.377 1.33 3.414.954 3.226-1.518 1.895.188v-1.895l-3.038-.753 1.519-1.707-1.707-2.473-2.083.766-.766-.201z" fill="#F3F3F3" stroke="#fff" stroke-width="2" mask="url(#d)"/><mask id="e" fill="#fff"><path d="M769.812 466.141l-.125-2.485-3.075-.201-2.285 2.285-2.874-1.306-3.791 1.431-1.833-2.221h-1.958l-1.694 1.694h-3.402l-2.221-1.042v-4.179l1.305-1.306v-2.748l-1.042-3.138 2.485-3.916 1.431-4.054-4.318-4.318-1.179-5.748-3.666-1.958v-3.653l1.444-1.305-1.444-1.443v-3.402l-3.916-1.569-1.18 1.18-1.18-3.527 1.959-1.958 2.083-3.401 3.138-.916-1.18-8.096-.916-5.221v-2.749l-3.653-6.665-.389-6.928-3.652-2.485-1.569-3.665-1.13-2.812v-1.732l4.393-1.732 4.557-6.439 3.138-.941 4.242 1.255 1.255-2.824v-3.451l-2.359-2.36 1.104-4.079 3.138-1.105v-3.238l-.163-4.242 3.452-2.36 4.004-4.004.866-2.899h1.732l-.314-4.243h-3.301l-2.987-5.648v-5.183l-2.674-2.674-5.648-4.079v-2.196l-4.243-1.569-1.481-3.125.715-4.205-1.782-1.782-1.858-2.799-.941-2.423 1.443-1.518.415-2.009-1.67-1.33-.539-3.678h-2.511l-3.138.214.214 3.351-.214 1.669 2.511.214 1.569 1.569-1.984 3.865-3.351 1.255-3.552 2.925s-.628 3.765-2.511 3.765c-1.882 0-5.234 1.042-5.234 1.042l-3.765 2.297.841 4.179-3.766 1.67 1.042-3.766.841-5.434 3.452-3.452 1.569-4.707 5.02-1.255 1.256-6.489 3.138-3.137 1.255-5.862v-2.096l4.18-5.02 2.41-2.41 1.983-4.079 2.096-2.925v-4.18l2.41-2.409-2.611-4.494-4.18-2.297-1.669-1.669 4.18.841.414-4.393-2.824-2.824-2.197-2.196-1.468 1.669-2.511-2.096-2.096-4.18-2.41-2.41-3.238 1.569-2.41-2.41-4.268 3.101h-4.18l-4.606 2.51 1.882 1.883-1.041 3.552s-3.352-1.469-4.607-1.469c-1.255 0-1.042-2.724-1.042-2.724l2.724-2.723-3.038-3.038h-4.079l-1.305 1.306-6.64-.364 2.723-3.552 3.239-3.238-.942-4.293-3.138.414-4.179-2.51-3.352 3.552-3.765 2.724-3.138 7.744-1.042 3.351v5.02l1.669 1.256.414 3.552h-1.468l-4.808 1.468h-4.606l1.255 2.297 2.51 1.883 1.883 2.51-4.18-.841-4.179.841-.628 3.351-6.489-.213-2.611 2.61v-3.012l1.983-3.765-3.766.627-1.041 2.297-4.607.628-5.435 1.255-2.096 2.096 3.765 1.255-1.255 1.468-5.648 1.67-1.983 1.983-7.845 1.155-2.197 2.196-5.761 2.197-2.297 4.807-5.862-.214.213 3.138 2.925.214-2.925 2.296-2.096 2.937 1.782 1.783-1.154 2.61 1.669 1.883-2.51.628s0-3.138-1.569-1.569l-2.41 2.41 2.096 2.096 2.51.84 2.097 3.138-2.097 2.096h-3.979l-5.435 2.297h-8.158v1.255l-5.021-1.882h-9.828l-4.18 3.765 1.042 5.234 1.669 1.669-1.883 4.18-1.255 5.02 1.669 1.67 2.925 4.807 3.979 1.468-.201 2.925 2.297 3.138-.841 3.351h-5.648l-3.665-3.665-1.356-1.356 1.469-4.179-5.435-2.937-2.825-2.824-3.451.527-4.18-.841.213 2.51h1.983l.841 2.297 1.783 1.782 2.611.527 2.924 1.569.728 2.724-1.983 1.983.414 2.197-3.979.627-2.874 2.874 1.305 2.774.841-1.155 1.356 2.611 4.493 2.51-.414 5.021v7.217h-4.18l-1.569 2.51-3.087 3.088-3.816 2.874.213 3.866 1.833 1.832.577 2.247 2.611 2.61 3.979.628.527 2.724 1.356 1.355 2.51-2.196s.916 1.594 1.255 1.255a406.06 406.06 0 012.511-2.41l-.101 4.079 3.239.628v3.238l1.983 4.807-1.155 3.038h-1.569l1.67 3.137-1.356 3.979-2.247 2.247-.791 2.56-2.924-.627-.101 3.351 2.046 2.046.678 3.815-1.782 3.138 1.883 1.883v2.924l4.606 2.724 1.783 3.665-2.837 2.623v2.096l1.468 2.51v3.766l-1.882 1.468 2.297 4.18h2.51l2.51 2.51 1.883 3.765.414 4.808-2.096 2.096 1.042 4.393 4.807 1.041 2.41 2.41 2.41-2.41.841 5.021-.841 4.393 1.469 3.351-2.824 2.824-3.038 3.866-2.096 3.979 3.138 4.392v5.234l-3.038 3.038-.313 4.706-1.783 1.783-4.92 4.92.063 6.426 5.284 3.477 5.925 2.573-3.088 5.158-7.469 3.226-4.769 4.769-7.732-5.66-8.247 3.477-1.544 5.158-5.535-2.836-3.992 1.029-4.832-4.832-5.222 1.995-6.703-.778-1.807-2.711h-7.218l-5.02-2.184-6.703 1.029-4.896 10.945.39 6.564-6.954 1.933-5.636 4.104-.64 4.381-5.925 3.464-1.883 2.673-3.376 3.377-4.155 1.958h-5.021l-3.137-.942-3.615-1.882-1.419 2.045h-4.242l-2.674-1.732-2.36-1.104-3.615-1.105-2.824-.941v-2.51l2.046-2.046-3.301-3.301-3.138 2.196-1.456 2.423-2.937 3.225-.314 3.301 1.418 4.243-3.301 1.569v2.359l2.824 1.419 1.958 1.958 1.017 2.435 3.138 1.732v2.824l-1.494 1.493-4.004.703-5.259 5.259v3.69l-.866 2.197-2.197 2.196-1.732.314v2.824l-2.121 2.121-1.18 2.435v2.51l3.138 1.469 1.669 5.234-1.041 2.924v3.979l-2.611 2.61 1.155 3.665 4.606 1.256 4.18-2.511 3.038 3.038-1.356 4.92 4.18 1.255 2.297-2.297 3.765 2.297h4.18v2.924l-5.021 2.297-1.255 5.648h3.552l4.394-2.096 2.297 3.351 5.02-2.723 5.862-1.67 3.452-3.451 3.238-.1 4.394-.214 3.138-3.138h3.765l1.042 2.925-2.51 3.351h-2.925v3.765l3.615 1.431 2.611 2.611 2.41 5.121 2.297 2.297 3.552 3.552 2.51 8.371v6.904l3.352 3.137v5.021l3.552 6.275 1.042 5.435 1.468 4.807 2.724 5.435 4.607-.841 2.297-4.807 3.351-1.042 2.297 2.724v3.138l2.297 2.296 2.51 2.511 4.607-.841 2.096 2.096 5.234-.841 2.611-2.611h5.335l2.56 2.561 3.929 1.732 2.925 2.723.841 5.021 3.552 2.297 1.669 3.765 4.394 2.724v5.02l5.648 1.469 5.021 1.669 5.435-2.096 3.238-3.238 1.155 4.292 2.31 4.192 1.882 3.138 6.063 1.042 2.724-2.724 5.234-2.924 6.276.213 3.452-3.451 4.92-1.155.841-4.393h4.18l4.18-4.179 6.903-4.393h5.435l1.469-4.393h4.606l3.666-3.665 4.493 1.983 3.552 3.552 5.649-2.297 4.807 1.468 3.979 3.979 3.352 3.351 6.062 2.096 4.18 1.256 5.862-1.042 5.648 1.468H709.4l4.707-4.706 4.92-3.239v-5.02l-3.665-3.665v-4.707l-2.611-3.138.841-5.434 2.824-2.824 2.611-5.335 3.238-3.238 2.411-2.41 4.807 3.552h8.159l4.079 4.079 5.962-1.569h5.234l5.435 2.097 3.866 3.865 3.038 6.376 3.238 3.239 5.122 2.196 7.531.628 5.234-1.469 5.435-1.255 4.92-4.92h5.963l9.627-1.356 2.925 1.883 7.317 1.042h7.946l2.924 2.924 1.67 3.138 5.648 1.883 6.276-.841h8.573l6.063-1.883h6.69l2.611-2.61 5.159-5.121 6.69-3.138 4.807-3.351 3.665-3.665 1.783-6.176 7.531-7.53 5.234-2.297 3.979 1.468 4.393 2.297 5.862-3.351 4.18-2.51 5.648 1.041 7.745.628 6.903-2.51 4.08-4.079 2.824-6.59 4.393-1.255v-5.861l-1.883-1.883-3.138-6.062 2.297-5.862v-5.648l1.256-8.999 1.669-3.552-1.669-6.69-2.937-2.912-2.611-2.61-3.239 2.61-2.297-2.924 1.67-4.18 2.297-6.903 3.238-3.238 6.59-3.866-3.025-5.221-1.356-2.724h-3.552l-1.042-4.493-1.782-2.724 3.138-1.883v-1.468h-1.67l-2.824-3.038-2.297-.313.527-5.335-1.355-2.409-1.469-4.08-3.351-1.669-2.41 3.351-2.511-.941-.213-3.552-1.669-1.669-2.461-.678-2.56 2.56-1.255 3.138-4.293-1.155-1.356-2.61 2.511-3.138-1.469-2.41-2.824.941-3.665-.941-2.523-2.548-.05-2.523-3.402-.916v-3.652l-3.138-1.042-3.264-4.318-4.568-1.694-.98-4.77-2.158-2.158.715-2.285-5.95-5.949-1.694-4.707-2.611-.263v-3.013l-2.812-3.075-2.284-2.284h-3.339v3.201l-2.937 2.937-4.569-.653v-3l-1.958-1.694v-3.791l-4.054-.527-4.707-2.221-4.444.527-4.443-.653-2.485 3-1.243 4.117-2.937 2.937 1.18 4.054-1.569 4.706-3.917 3.916v7.318l-5.485 3.79v4.318l-2.347-3.264v-3.664l-2.749-2.749-2.611 1.18-.652 3.401-6.929 2.611h-3.264l-1.305 3.916-2.096 3.138-4.506.326-5.034-5.033-.527-10.455.653-6.276v-5.887l.791-5.221v-5.096L797 513.296l-2.611-.916-.389-2.485-1.205-2.837-2.385-2.384v-2.812l1.632-1.632.452-3.853-2.285-2.284h-3l-3.263-1.569v-3.012l1.305-1.306-1.431-1.43-1.179-4.569-2.611-4.707-3.138-2.221-3.527 1.041-3.402.264v-4.054l2.812-.791v-2.673l-2.963-2.925zm-70.353-241.31l-.766 1.142 1.707 1.142.753-1.33-1.694-.954zm-8.159-16.894l-1.896 1.142 2.661 1.33 1.896 1.331 2.083-.565-.564-2.473-2.084.565-2.096-1.33zm-18.615-9.301v-2.661l.188-4.744-1.33-2.661-1.895.189-2.661 3.225.188 2.849-1.142 1.896.765 5.12-2.284 2.272.188 5.121-1.142 4.368-.954 4.368 1.707.954 3.602-2.849 2.084-1.331 4.745-2.472 3.803-.377 4.745-3.602 2.271-4.368-1.518-3.803-1.707-2.849-2.272.954-2.285-3.992-1.707-1.707-2.083 2.473-1.306 3.627zm-17.083-20.32l-1.707 2.083-1.519 2.85-1.33-.565.954-3.603v-3.79l-4.18 1.33s-2.473.565-3.038.754l-3.414 1.142-1.331 2.849-.765 2.472-1.707 2.084.565 2.473-3.226 2.472 1.519 1.331 2.271-.754 1.896 2.661.188 2.473 1.707 2.083 4.368.377.565 2.473 3.038-1.896 1.518 2.473 4.18 1.519 3.992-1.896 1.895-2.66-1.519-3.038-2.472-3.414 1.895-1.33.753-3.226-.954-3.602.377-3.602-4.519-2.523zm-3.414 58.1l-1.896 2.271-2.472.565 2.272 1.707 2.284-2.272-.188-2.271zm-31.707-.766l-.953 1.519 1.33 1.142 1.707-2.473-2.084-.188zm-19.555 52.025l-2.285 1.142s.954 2.849.954 2.473c0-.377 1.707-.753 1.707-.753l-.376-2.862zm-16.318-17.095l-2.084 1.707 1.143 2.284 1.895-.376-.954-3.615zm-.766 24.877l-.376 2.083h3.226l1.707 1.707.188-2.849-1.895-.376-2.85-.565zm-11.008-112.585l-1.142 1.142 1.33.753 2.084 1.519.565-1.895-2.837-1.519zM561.249 315.2l-1.331 1.707.753 2.284 1.331 1.707 1.895-2.083.766-2.473-1.707-1.707-1.707.565zm27.539-156.903l-1.569.313-1.017 1.017 1.569 1.569 2.121-.703 1.256-1.255-2.36-.941zm35.936-3.138l-1.418 1.418 1.104 1.105 1.18 1.179 2.435-2.271v-1.569l-3.301.138zm15.062-2.034l-.477 3.138-2.824 1.255-4.242 2.824v3.929l1.732 1.732-2.272 2.272-1.494 2.899 2.046 2.824.791 2.824 3.615 3.138 3.301-3.138h2.197l3.301-1.882 3.929-1.256-1.105-3.765v-4.707l2.36-2.046-1.958-1.957-4.004-4.004-1.419-3.138-3.477-.942zm-9.263 26.044l-2.673-.313.476 3.451v2.197l3.452.941 1.419 1.418 2.121-2.121 1.18-3.062-2.046-1.569-3.929-.942zm-41.886 80.328l-1.017 1.017 1.331 1.18 2.197-.628-2.511-1.569z"/></mask><path d="M769.812 466.141l-.125-2.485-3.075-.201-2.285 2.285-2.874-1.306-3.791 1.431-1.833-2.221h-1.958l-1.694 1.694h-3.402l-2.221-1.042v-4.179l1.305-1.306v-2.748l-1.042-3.138 2.485-3.916 1.431-4.054-4.318-4.318-1.179-5.748-3.666-1.958v-3.653l1.444-1.305-1.444-1.443v-3.402l-3.916-1.569-1.18 1.18-1.18-3.527 1.959-1.958 2.083-3.401 3.138-.916-1.18-8.096-.916-5.221v-2.749l-3.653-6.665-.389-6.928-3.652-2.485-1.569-3.665-1.13-2.812v-1.732l4.393-1.732 4.557-6.439 3.138-.941 4.242 1.255 1.255-2.824v-3.451l-2.359-2.36 1.104-4.079 3.138-1.105v-3.238l-.163-4.242 3.452-2.36 4.004-4.004.866-2.899h1.732l-.314-4.243h-3.301l-2.987-5.648v-5.183l-2.674-2.674-5.648-4.079v-2.196l-4.243-1.569-1.481-3.125.715-4.205-1.782-1.782-1.858-2.799-.941-2.423 1.443-1.518.415-2.009-1.67-1.33-.539-3.678h-2.511l-3.138.214.214 3.351-.214 1.669 2.511.214 1.569 1.569-1.984 3.865-3.351 1.255-3.552 2.925s-.628 3.765-2.511 3.765c-1.882 0-5.234 1.042-5.234 1.042l-3.765 2.297.841 4.179-3.766 1.67 1.042-3.766.841-5.434 3.452-3.452 1.569-4.707 5.02-1.255 1.256-6.489 3.138-3.137 1.255-5.862v-2.096l4.18-5.02 2.41-2.41 1.983-4.079 2.096-2.925v-4.18l2.41-2.409-2.611-4.494-4.18-2.297-1.669-1.669 4.18.841.414-4.393-2.824-2.824-2.197-2.196-1.468 1.669-2.511-2.096-2.096-4.18-2.41-2.41-3.238 1.569-2.41-2.41-4.268 3.101h-4.18l-4.606 2.51 1.882 1.883-1.041 3.552s-3.352-1.469-4.607-1.469c-1.255 0-1.042-2.724-1.042-2.724l2.724-2.723-3.038-3.038h-4.079l-1.305 1.306-6.64-.364 2.723-3.552 3.239-3.238-.942-4.293-3.138.414-4.179-2.51-3.352 3.552-3.765 2.724-3.138 7.744-1.042 3.351v5.02l1.669 1.256.414 3.552h-1.468l-4.808 1.468h-4.606l1.255 2.297 2.51 1.883 1.883 2.51-4.18-.841-4.179.841-.628 3.351-6.489-.213-2.611 2.61v-3.012l1.983-3.765-3.766.627-1.041 2.297-4.607.628-5.435 1.255-2.096 2.096 3.765 1.255-1.255 1.468-5.648 1.67-1.983 1.983-7.845 1.155-2.197 2.196-5.761 2.197-2.297 4.807-5.862-.214.213 3.138 2.925.214-2.925 2.296-2.096 2.937 1.782 1.783-1.154 2.61 1.669 1.883-2.51.628s0-3.138-1.569-1.569l-2.41 2.41 2.096 2.096 2.51.84 2.097 3.138-2.097 2.096h-3.979l-5.435 2.297h-8.158v1.255l-5.021-1.882h-9.828l-4.18 3.765 1.042 5.234 1.669 1.669-1.883 4.18-1.255 5.02 1.669 1.67 2.925 4.807 3.979 1.468-.201 2.925 2.297 3.138-.841 3.351h-5.648l-3.665-3.665-1.356-1.356 1.469-4.179-5.435-2.937-2.825-2.824-3.451.527-4.18-.841.213 2.51h1.983l.841 2.297 1.783 1.782 2.611.527 2.924 1.569.728 2.724-1.983 1.983.414 2.197-3.979.627-2.874 2.874 1.305 2.774.841-1.155 1.356 2.611 4.493 2.51-.414 5.021v7.217h-4.18l-1.569 2.51-3.087 3.088-3.816 2.874.213 3.866 1.833 1.832.577 2.247 2.611 2.61 3.979.628.527 2.724 1.356 1.355 2.51-2.196s.916 1.594 1.255 1.255a406.06 406.06 0 012.511-2.41l-.101 4.079 3.239.628v3.238l1.983 4.807-1.155 3.038h-1.569l1.67 3.137-1.356 3.979-2.247 2.247-.791 2.56-2.924-.627-.101 3.351 2.046 2.046.678 3.815-1.782 3.138 1.883 1.883v2.924l4.606 2.724 1.783 3.665-2.837 2.623v2.096l1.468 2.51v3.766l-1.882 1.468 2.297 4.18h2.51l2.51 2.51 1.883 3.765.414 4.808-2.096 2.096 1.042 4.393 4.807 1.041 2.41 2.41 2.41-2.41.841 5.021-.841 4.393 1.469 3.351-2.824 2.824-3.038 3.866-2.096 3.979 3.138 4.392v5.234l-3.038 3.038-.313 4.706-1.783 1.783-4.92 4.92.063 6.426 5.284 3.477 5.925 2.573-3.088 5.158-7.469 3.226-4.769 4.769-7.732-5.66-8.247 3.477-1.544 5.158-5.535-2.836-3.992 1.029-4.832-4.832-5.222 1.995-6.703-.778-1.807-2.711h-7.218l-5.02-2.184-6.703 1.029-4.896 10.945.39 6.564-6.954 1.933-5.636 4.104-.64 4.381-5.925 3.464-1.883 2.673-3.376 3.377-4.155 1.958h-5.021l-3.137-.942-3.615-1.882-1.419 2.045h-4.242l-2.674-1.732-2.36-1.104-3.615-1.105-2.824-.941v-2.51l2.046-2.046-3.301-3.301-3.138 2.196-1.456 2.423-2.937 3.225-.314 3.301 1.418 4.243-3.301 1.569v2.359l2.824 1.419 1.958 1.958 1.017 2.435 3.138 1.732v2.824l-1.494 1.493-4.004.703-5.259 5.259v3.69l-.866 2.197-2.197 2.196-1.732.314v2.824l-2.121 2.121-1.18 2.435v2.51l3.138 1.469 1.669 5.234-1.041 2.924v3.979l-2.611 2.61 1.155 3.665 4.606 1.256 4.18-2.511 3.038 3.038-1.356 4.92 4.18 1.255 2.297-2.297 3.765 2.297h4.18v2.924l-5.021 2.297-1.255 5.648h3.552l4.394-2.096 2.297 3.351 5.02-2.723 5.862-1.67 3.452-3.451 3.238-.1 4.394-.214 3.138-3.138h3.765l1.042 2.925-2.51 3.351h-2.925v3.765l3.615 1.431 2.611 2.611 2.41 5.121 2.297 2.297 3.552 3.552 2.51 8.371v6.904l3.352 3.137v5.021l3.552 6.275 1.042 5.435 1.468 4.807 2.724 5.435 4.607-.841 2.297-4.807 3.351-1.042 2.297 2.724v3.138l2.297 2.296 2.51 2.511 4.607-.841 2.096 2.096 5.234-.841 2.611-2.611h5.335l2.56 2.561 3.929 1.732 2.925 2.723.841 5.021 3.552 2.297 1.669 3.765 4.394 2.724v5.02l5.648 1.469 5.021 1.669 5.435-2.096 3.238-3.238 1.155 4.292 2.31 4.192 1.882 3.138 6.063 1.042 2.724-2.724 5.234-2.924 6.276.213 3.452-3.451 4.92-1.155.841-4.393h4.18l4.18-4.179 6.903-4.393h5.435l1.469-4.393h4.606l3.666-3.665 4.493 1.983 3.552 3.552 5.649-2.297 4.807 1.468 3.979 3.979 3.352 3.351 6.062 2.096 4.18 1.256 5.862-1.042 5.648 1.468H709.4l4.707-4.706 4.92-3.239v-5.02l-3.665-3.665v-4.707l-2.611-3.138.841-5.434 2.824-2.824 2.611-5.335 3.238-3.238 2.411-2.41 4.807 3.552h8.159l4.079 4.079 5.962-1.569h5.234l5.435 2.097 3.866 3.865 3.038 6.376 3.238 3.239 5.122 2.196 7.531.628 5.234-1.469 5.435-1.255 4.92-4.92h5.963l9.627-1.356 2.925 1.883 7.317 1.042h7.946l2.924 2.924 1.67 3.138 5.648 1.883 6.276-.841h8.573l6.063-1.883h6.69l2.611-2.61 5.159-5.121 6.69-3.138 4.807-3.351 3.665-3.665 1.783-6.176 7.531-7.53 5.234-2.297 3.979 1.468 4.393 2.297 5.862-3.351 4.18-2.51 5.648 1.041 7.745.628 6.903-2.51 4.08-4.079 2.824-6.59 4.393-1.255v-5.861l-1.883-1.883-3.138-6.062 2.297-5.862v-5.648l1.256-8.999 1.669-3.552-1.669-6.69-2.937-2.912-2.611-2.61-3.239 2.61-2.297-2.924 1.67-4.18 2.297-6.903 3.238-3.238 6.59-3.866-3.025-5.221-1.356-2.724h-3.552l-1.042-4.493-1.782-2.724 3.138-1.883v-1.468h-1.67l-2.824-3.038-2.297-.313.527-5.335-1.355-2.409-1.469-4.08-3.351-1.669-2.41 3.351-2.511-.941-.213-3.552-1.669-1.669-2.461-.678-2.56 2.56-1.255 3.138-4.293-1.155-1.356-2.61 2.511-3.138-1.469-2.41-2.824.941-3.665-.941-2.523-2.548-.05-2.523-3.402-.916v-3.652l-3.138-1.042-3.264-4.318-4.568-1.694-.98-4.77-2.158-2.158.715-2.285-5.95-5.949-1.694-4.707-2.611-.263v-3.013l-2.812-3.075-2.284-2.284h-3.339v3.201l-2.937 2.937-4.569-.653v-3l-1.958-1.694v-3.791l-4.054-.527-4.707-2.221-4.444.527-4.443-.653-2.485 3-1.243 4.117-2.937 2.937 1.18 4.054-1.569 4.706-3.917 3.916v7.318l-5.485 3.79v4.318l-2.347-3.264v-3.664l-2.749-2.749-2.611 1.18-.652 3.401-6.929 2.611h-3.264l-1.305 3.916-2.096 3.138-4.506.326-5.034-5.033-.527-10.455.653-6.276v-5.887l.791-5.221v-5.096L797 513.296l-2.611-.916-.389-2.485-1.205-2.837-2.385-2.384v-2.812l1.632-1.632.452-3.853-2.285-2.284h-3l-3.263-1.569v-3.012l1.305-1.306-1.431-1.43-1.179-4.569-2.611-4.707-3.138-2.221-3.527 1.041-3.402.264v-4.054l2.812-.791v-2.673l-2.963-2.925zm-70.353-241.31l-.766 1.142 1.707 1.142.753-1.33-1.694-.954zm-8.159-16.894l-1.896 1.142 2.661 1.33 1.896 1.331 2.083-.565-.564-2.473-2.084.565-2.096-1.33zm-18.615-9.301v-2.661l.188-4.744-1.33-2.661-1.895.189-2.661 3.225.188 2.849-1.142 1.896.765 5.12-2.284 2.272.188 5.121-1.142 4.368-.954 4.368 1.707.954 3.602-2.849 2.084-1.331 4.745-2.472 3.803-.377 4.745-3.602 2.271-4.368-1.518-3.803-1.707-2.849-2.272.954-2.285-3.992-1.707-1.707-2.083 2.473-1.306 3.627zm-17.083-20.32l-1.707 2.083-1.519 2.85-1.33-.565.954-3.603v-3.79l-4.18 1.33s-2.473.565-3.038.754l-3.414 1.142-1.331 2.849-.765 2.472-1.707 2.084.565 2.473-3.226 2.472 1.519 1.331 2.271-.754 1.896 2.661.188 2.473 1.707 2.083 4.368.377.565 2.473 3.038-1.896 1.518 2.473 4.18 1.519 3.992-1.896 1.895-2.66-1.519-3.038-2.472-3.414 1.895-1.33.753-3.226-.954-3.602.377-3.602-4.519-2.523zm-3.414 58.1l-1.896 2.271-2.472.565 2.272 1.707 2.284-2.272-.188-2.271zm-31.707-.766l-.953 1.519 1.33 1.142 1.707-2.473-2.084-.188zm-19.555 52.025l-2.285 1.142s.954 2.849.954 2.473c0-.377 1.707-.753 1.707-.753l-.376-2.862zm-16.318-17.095l-2.084 1.707 1.143 2.284 1.895-.376-.954-3.615zm-.766 24.877l-.376 2.083h3.226l1.707 1.707.188-2.849-1.895-.376-2.85-.565zm-11.008-112.585l-1.142 1.142 1.33.753 2.084 1.519.565-1.895-2.837-1.519zM561.249 315.2l-1.331 1.707.753 2.284 1.331 1.707 1.895-2.083.766-2.473-1.707-1.707-1.707.565zm27.539-156.903l-1.569.313-1.017 1.017 1.569 1.569 2.121-.703 1.256-1.255-2.36-.941zm35.936-3.138l-1.418 1.418 1.104 1.105 1.18 1.179 2.435-2.271v-1.569l-3.301.138zm15.062-2.034l-.477 3.138-2.824 1.255-4.242 2.824v3.929l1.732 1.732-2.272 2.272-1.494 2.899 2.046 2.824.791 2.824 3.615 3.138 3.301-3.138h2.197l3.301-1.882 3.929-1.256-1.105-3.765v-4.707l2.36-2.046-1.958-1.957-4.004-4.004-1.419-3.138-3.477-.942zm-9.263 26.044l-2.673-.313.476 3.451v2.197l3.452.941 1.419 1.418 2.121-2.121 1.18-3.062-2.046-1.569-3.929-.942zm-41.886 80.328l-1.017 1.017 1.331 1.18 2.197-.628-2.511-1.569z" fill="#F3F3F3" stroke="#fff" stroke-width="2" mask="url(#e)"/><mask id="f" fill="#fff"><path d="M909.746 555.753l-3.389-.904v-3.652l-3.138-1.042-3.264-4.318-4.569-1.694-.979-4.77-2.159-2.158.716-2.285-3.201-3.2-2.749-2.749-1.694-4.707-2.611-.263v-3l-2.812-3.075-2.284-2.284h-3.326v3.2l-2.938 2.937-4.569-.653v-2.999l-1.958-1.695v-3.79l-4.054-.527-4.707-2.222-4.443.527-4.444-.652-2.485 2.999-1.243 4.117-2.937 2.937 1.18 4.054-1.569 4.707-3.916 3.916v7.317l-5.485 3.791v4.317l-2.348-3.263v-3.665l-2.749-2.749-2.61 1.18-.653 3.402-6.929 2.61h-3.263l-1.306 3.916-2.096 3.138-4.506.326-5.033-5.033-.528-10.455.653-6.275v-5.874l.791-5.222v-5.096l-3.653-1.568-2.61-.917-.39-2.485-1.242-2.849-2.385-2.385v-2.811l1.632-1.632.451-3.853-2.284-2.284h-3l-3.263-1.569v-3.013l1.305-1.305-1.443-1.443-1.18-4.569-2.611-4.707-3.138-2.221-3.527 1.041-3.402.264v-4.054l2.812-.791v-2.673l-2.937-2.937-.138-2.485-3.076-.201-2.284 2.284-2.875-1.305-3.79 1.431-1.833-2.222h-1.958l-1.694 1.694h-3.402l-2.222-1.041v-4.18l1.306-1.305v-2.749l-1.042-3.138 2.485-3.916 1.431-4.054-4.318-4.305-1.18-5.748-3.652-1.958v-3.653l1.443-1.305-1.443-1.443v-3.402l-3.917-1.569-1.179 1.18-1.18-3.527 1.958-1.958 2.096-3.401 3.138-.916-1.18-8.109-.916-5.221v-2.749l-3.665-6.664-.389-6.929-3.653-2.485-1.569-3.652-1.13-2.812v-1.732l4.393-1.732 4.557-6.439 3.138-.941 4.242 1.255 1.256-2.824v-3.451l-2.36-2.36 1.104-4.079 3.138-1.105-.163-7.531 3.452-2.359 4.004-4.004.866-2.899h1.732l-.313-4.243h-3.302l-2.987-5.648v-5.183l-2.674-2.674-5.648-4.079v-2.197l-4.243-1.568-1.481-3.126.716-4.204-1.783-1.783-1.857-2.799-.942-2.422 1.444-1.519.414-2.008-1.669-1.33-.54-3.678 3.552.841 4.18 1.669.841-2.51 2.611-3.665 2.196 2.197v4.179l2.511 3.552h2.924l-2.924-2.723 1.983-1.996 3.866-3.866 5.234-2.723 7.945-1.469 6.276-1.883 1.569 2.41-1.468 1.469 3.452 3.451h6.527l.213-1.669.628-2.297 2.51 3.979 4.393-1.669 4.393-3.766s4.607-.841 5.649-.841c1.042 0 0-3.765 0-3.765l-.628-4.18-3.138-4.807.841-4.807.628-2.51 2.51 2.51 2.611-1.983 2.197 2.196 3.351 2.297.841-2.51 1.669-.414 1.67 1.883 1.669-1.256s-.213-3.865 1.356-3.865c1.569 0 1.983-1.983 1.983-1.983l4.607 3.552 1.468-1.381 5.021 1.669-1.669 5.121h2.41l2.41 2.41v3.979l3.978-2.511 2.097 2.097v4.606l-2.724.841-1.67 1.669 2.925 2.925s2.297-1.042 2.297-2.097c0-1.041 1.883 1.883 1.883 1.883v3.351l4.293-.1 4.079 4.079 3.138 2.096 4.393.841 1.883-1.883 4.807 2.511.415-3.979-2.097-6.903-1.255-3.138v-2.925l-2.723-2.736v-3.765l5.234.627 2.924 2.925 4.607-1.255h5.234l-1.042-5.435 2.925-5.435 5.435-1.255 3.979-.213 4.606 1.255v-3.138l-4.92-2.196 1.782-1.783 2.297-2.51 3.979.214 3.138-3.138-1.468-.841-3.138-3.138-3.552-1.883v-4.606l-1.469-1.255-2.096 5.435-2.511-1.67v-4.393l4.607-4.179-.628-2.925-4.393-2.723 2.724-2.724h3.979l5.862-2.924 1.669-4.807 7.745-2.925 6.062-2.724s.841.841.841 2.097c0 1.255-3.979 2.723-3.979 2.723l-1.468 5.648 3.552-1.669 3.138-3.138 3.979 1.255-1.042 8.159 3.552-3.352v-3.978l-1.255-6.69.841-2.925 1.883-5.234 4.393-2.096 6.276-2.723 3.766 2.723s-1.783 2.41-3.138 3.766c-1.356 1.355 1.468 2.297 1.468 2.297h4.607l2.924-3.352s3.352 3.552 3.98 4.18c.627.628-.628-4.807-.628-4.807l5.648-3.138 3.979 2.096 4.393-.213 3.979-3.979 4.18-5.234v-6.062l5.234-7.744 4.394-4.393 3.979-4.807 6.903-1.042 5.749-.314 2.824 2.824 5.827 5.862 5.23-2.297 3.77-3.038h4.08l-1.99-1.983v-2.924l3.98-3.979v-6.903l1.89-3.552h3.13l2.73-2.724v-4.179l5.23-3.766 1.26-5.02-2.1-2.096.84-2.511-2.95-4.192 2.3-4.179 2.19-2.197 3.98 3.979-3.03 3.037 3.13 3.138h4.81l3.35-1.255 4.61-2.096 4.18-1.042 1.04-3.351-1.25-3.351-2.3-.414-7.12-3.138-5.23.841-1.26-2.925h-4.18v-2.296l1.06-3.992 3.76-1.882.42-4.393 3.35-1.883h2.92l-1.25-3.552 1.25-3.766 3.56-5.233 1.66-6.063 6.38-6.175 7.12-7.116 3.24-3.239 6.27-2.723 4.5-2.61 4.18-4.18 4.29-4.293 5.23-2.096 3.77-5.435 7.12-2.096 3.76-3.978 4.61-2.097 2.92-1.669 3.35 3.351 4.81-1.468 4.29 3.238 2.83-2.824 5.02-2.724v-2.51l-5.02 1.042-5.86-.414-3.77-1.042 1.26-3.765 3.97-2.724-3.33-.816v-1.883l2.29.214.42-3.766 2.09-2.924 2.93-2.925 5.02-1.882h1.47l3.76-5.234s3.56-1.042 4.81-2.297c1.26-1.255 0 3.552 0 3.552l2.72 2.297 2.1 2.083-2.3 4.808s3.14 0 4.4-1.256c1.25-1.255 0 2.51 0 2.51v4.394l-4.81 3.137 3.76.628 2.3-2.297 4.92 1.883V19.75l3.87 3.866 2.72 4.18 2.3-.628 2.3-2.924v2.723l1.46 3.352h-4.39v1.669l3.55 1.042-1.88 5.434-4.81.427-4.39 4.807-2.3 5.02-4.39 1.47-3.14-1.256h-3.98l-3.55 5.234 1.57 3.138v5.334l-3.45 3.452-2.73-2.096-2.72 2.096h-3.98l-2.3-1.883-2.09-1.255-.32 1.983 1.57 1.569-1.88.84-1.25 1.256 3.66.627v2.824l2.82 2.824 4.61-1.255h3.14l.21 3.98 1.89-1.884 3.23 3.239 3.46 3.451 1.67 6.063.84 4.807-3.36 5.447h-3.13l-4.4 1.883-1.47 3.351 3.56-1.469h2.29l-3.35 3.979 2.1 2.096 2.72-1.042v-3.991l2.51-1.883 4.5-.1 2.61-2.61 1.25-2.097 3.14.214 2.51-.415 4.61-.213v2.924h3.76l1.05-1.983h3.66l2.2-2.196 2.72-.414 2.31 1.87 3.35-2.51 1.57 3.665 3.04 3.037v4.393l-4.19 1.669-2.73 5.862h-4.39l-1.26 1.882 4.92 3.239-1.57 1.568 3.56 5.435 1.47 6.69v7.531l1.25 5.861 2.1 5.021 1.04 6.689 2.1 6.489 3.97 3.552v6.063l2.1 8.371 3.55 3.979 2.3 2.297-3.55 3.138-3.77-1.883-5.23 1.67-2.73 6.275-4.39 6.276 2.3 2.297-1.67 5.861v3.138l3.55 5.435v3.351l-3.98-1.883-2.92-2.924-2.51.213 2.29 6.062v3.979l3.87 1.782-3.87 3.866h-2.51v5.435l-2.29 2.297 3.13 5.234 2.51 2.51 2.93 2.924 3.98 3.979.84 5.861.63 4.607 5.75 3.037 3.45 3.452h5.86l-1.57-3.552v-1.783l1.98-1.983 1.47-3.137 5.44 5.434 1.04 4.807 5.43 3.766 5.39 1.205 2.14-2.147h3.46l4.08 4.08-1.67 3.978-4.18 1.255 1.25 5.021 4.4 7.317 3.86.942 3.04 3.037 7.12-.841 4.18 3.351 1.46 3.766-2.51 1.669-3.55 2.297-2.09 4.606 1.46 8.372 4.18 6.489 3.67 1.355 1.78 1.783 6.06 1.468v2.51l-4.6.628v3.765l-1.67 3.766 2.09 7.531 3.56 1.468 5.43 5.435 3.98 3.765.84 6.69 2.1 8.786 1.04 5.648v4.179l-2.3-3.137h-6.06l-3.87-1.983-3.03-3.038h-4.18l-3.77-3.765-7.32-3.351-6.9-2.925-7.95-4.179-2.29-3.138-3.77-2.511-4.18-.84-9-2.724-5.86-3.138-5.65-3.765c-.94-.942-2.72-5.021-2.72-5.021l-6.06-6.049-4.18-4.393v-4.393l-2.93-2.925-.63-4.807-3.55-5.02-3.87-.841V316.4l1.79-1.782 1.47-3.138-1.99-3.451 1.89-1.883 1.56-1.569-2.09-6.276-1.04-6.689-2.51-7.745-3.98-5.233-1.67-6.904-1.89-6.489-2.09-5.233-2.51-7.745-2.51-2.096-.22-4.179 1.47-5.021v-6.476l-2.51-2.51-2.72-5.234h-2.72l-2.62-.942-2.41-2.409-2.92-3.766-4.39-2.723v-4.808l3.98-3.765-1.36-1.356-3.24 3.239-4.61 2.51v4.393l-1.25 3.351 2.51 2.297 3.67 3.665 3.45 3.452h4.18l-.42 2.723-1.88-.213-1.98 2.824 2.61 2.61v6.69l2.09 5.021.42 7.945-1.47 4.807-1.67-4.18-3.77-1.882v5.233l-3.13-3.137-2.1-2.096-1.67-3.552-5.86-5.435 1.67 4.606-1.67 5.021h-5.65v3.351l-1.88 6.903-2.36 2.711.21 9.2 3.77 2.511-.63 5.861 3.76 5.861v6.276l1.16 8.259 3.45 3.451v3.766l2.93 2.924 2.72-.414 2.41-2.197 1.78-1.782h3.14l-.23 3.979-3.35 1.042v5.648l-6.27 1.042 1.47 7.317-.63 3.138-3.98 1.669v4.393l-1.47 3.979s-4.92 1.154-3.98.213-1.88-1.883-1.88-1.883v-2.711l.84-2.723 3.45-1.155-1.57-1.569-3.76 1.469-3.98.627v1.883l-5.86 2.723-2.93 3.552-3.35.841-2.72 2.724-1.05 3.138 1.05 3.979 2.29 2.297-2.72 2.924-4.39-1.669 1.35 4.493-3.24 3.238-2.92 2.724h-2.51l-2.51 2.297 1.67 2.723 1.25 1.255-3.55 2.297h-4.81l-4.7 4.707-3.02 3.037-3.35 5.648-3.55 3.552-3.55 7.117-.63 6.903 3.35 6.69-3.14 3.138-1.04 6.69 1.87 4.819 2.93 2.925-2.51 4.179v13.179l-1.26 5.234v7.117l2.1 2.297v10.668l-1.89 7.117v5.861l-3.13 5.234v5.221l-1.67 4.607 1.88 4.242h3.19l2.46-2.46h3.45l2.72-2.724 3.04-3.037 2.1 2.096 2.51 1.255v2.724l1.98 3.665 2.51 2.51 2.2-2.197v-3.351l-2.93-1.255v-3.138l2.3-2.51v2.084l2.51 1.882 1.26-.414 1.25 1.255v6.489l4.18-1.669v-2.096l2.3-3.138 1.47-1.255 2.29 1.669.53-3.451-1.98-1.983-1.9-3.565-2.29-4.18 3.76-2.096 2.3-2.297 4.6-1.041h5.44l4.49.527 1.99 1.983s4.8-.841 5.86-.841c1.04 0 3.98-1.255 3.98-1.255l2.61 2.611-1.99 1.983-1.46 1.468-1.26 2.297h7.32l.84 2.724 3.14 3.137 3.86-.527 1.99 1.983 2.09 3.979.63 7.945 2.72 8.372 4.3 6.175 5.33 5.334 2.1 2.096 1.04 3.552 4.18 4.18 2.92 5.02 1.05 2.925 3.86 5.962 3.24 3.238v8.786l-1.25 7.531 2.29 7.53-.21 7.744 2.3 6.063 1.67 6.69 1.25 6.062 1.26 8.158v7.97l-1.26 4.18v18.199l-1.25 7.531 1.25 7.744-.41 10.041v4.807l-4.18 6.903-2.73 5.862-3.14 5.861h-2.68l-5.24 2.096-4.39 2.511-3.04-1.256v-2.824l-1.57-1.569-1.56 3.552v3.866l-1.79-1.782-2.72-2.724v2.096l-.84 5.234.84 3.552-1.16 4.079-1.78 1.783v5.447l-3.98-.213-1.67-1.67 1.47-4.807 2.51-5.02v-4.18l-2.19-4.92-4.5-4.493-2.29-2.297-1.89-4.807-3.98-3.979-3.76-1.255-.1-4.079 2.61-2.611 2.3-2.297v-4.18l2.92-2.924 3.35-1.669 3.45 1.154 3.04-3.037 1.88-3.765-3.35-5.234 1.67-4.393-2.09-4.606-.39-4.845-2.93-3.979.84-3.351-2.31-3.966-1.04-4.607-4.18-4.393 3.14-3.138v-4.606l-2.61-2.61-3.03-3.038-.84-2.724h-3.55l-5.02 2.724-1.26 4.18-3.35 5.434-3.76 4.807 1.67 5.234-4.4 3.552-4.39 2.511-3.76 1.255-1.05 3.765h-3.99l-3.98-2.297-2.92-1.029v-4.807l-3.35-2.925-2.71-2.723-4.51-1.155-2.41 2.41-4.81-1.255-3.98-1.042-6.06.841h-5.65l-2.29 2.297-6.28 2.297-6.28-1.255-2.61-5.121-3.04-3.038s-3.55-2.096-3.55-2.924c0-.841-3.98-3.979-3.98-3.979l-5.02-.841-2.09-5.02-4.81-3.766-3.35-3.351-4.61-1.255-1.67-4.393-4.18-1.883-2.51-2.51-8.37-.841h-4.394l-5.02 2.724-6.276-1.042-4.808 1.669h-5.234l-7.117 5.234-3.351 3.351-3.025-5.221-1.356-2.723h-3.552l-1.042-4.494-1.782-2.723 3.138-1.883v-1.469h-1.67l-2.824-3.037-2.297-.314.527-5.334-1.356-2.41-1.468-4.079-3.351-1.669-2.41 3.351-2.511-.942-.213-3.552-1.67-1.669-2.46-.678-2.56 2.561-1.256 3.138-4.292-1.155-1.356-2.611 2.51-3.138-1.468-2.409-2.824.941-3.666-.941-2.523-2.548-.037-2.523zm220.214-86.591l-1.45.364-1.08-3.075v-2.711l4.71 1.267 2.35 1.092 1.27 2.9 2.53 2.535 4.52.904 1.09 2.899 5.07 3.263h2.72l2.17 3.075 1.8 4.883 2.82 2.799 5.33 5.522 3.44.904 4.71 1.807 4.53 3.979 6.15 3.439 3.98 3.439 5.24 2.711 4.52 2.711 2.9 2.347 5.07 1.996-.72 2.36-1.81 1.807-3.44 1.092h-2.71l.73 3.803-.73 2.711v2.171l3.07 4.707s2.9 3.251 2.36 3.803c-.54.54.18 5.611.18 5.611l2.36 2.359 3.61 3.615 3.08 1.996h4.71l2.71 2.711h3.07l1.63 3.439 3.98.176 2.45-2.448 4.25 2.448 2.54 3.263s.9 2.171 0 2.171-5.8-2.359-5.8-2.359l-2.08 2.083h-4.62l-1.44 3.715.9 3.615 2.9 2.899 2.17 4.707-2.9 2.36-2.36-2.9-3.07-3.075-5.44-5.07v-3.439l-3.61-3.615-3.44-3.439-2.36-3.075-2.9-5.611-3.62-3.439-3.8-2.171-3.62-1.092-3.07-6.514-6.7-9.225-5.44-5.435-4.52-4.518-3.98-5.435-2.53-4.167-6.88-3.075-5.44-2.347-3.26-.364-4.34-5.975v-2.711l-4.71-4.707-2.53-4.706-5.08-1.632 1.27-3.615v-2.711l4.17 1.268.73-3.615-2.45-2.447v-1.356l-2.4-2.397-3.46-1.255zm152.94 94.473l.73 3.803.37 3.615 1.44.54v-2.9l1.09-2.359v-3.264l-3.63.565zm12.49 2.171v1.632l2.36 1.268v-2.711l-2.36-.189zm-7.42-14.659l2.18.903.72-2.899-1.09-5.786 2-1.996-.37-4.167-3.07-.904-.91 4.707 1.18 1.18-.99 3.527.35 5.435zm5.43-23.886l-.91.904.73 3.075 1.44-2.171-1.26-1.808zm2.17-11.045l.9-4.706-1.27-2.9.73-3.075 2.45-2.447.63 3.351-.54 3.439.73 3.979-1.27 2.899-2.36-.54zm2.36-40.364v7.229h2.53l-.72-3.075v-4.33l-1.81.176zm-105.35-233.655v3.979l-.36 3.615 2.17 1.443 1.44 1.808.18 3.25 2.9 1.092-.73-3.25-1.27-2.536 1.27-4.167v-5.071l-3.44-1.443-2.16 1.28zM1263 261.2l-2.54.904 1.27 2.711h8.68l2.72-2.711-3.44-1.092-3.44 1.443-3.25-1.255zm12.49 133.395l-1.1 3.263-1.72 1.72 2 1.995 1.18 2.448-.36 3.263-.18 4.167 1.9 1.895 2.08-1.18v-4.342l1.89-1.896-1.54-3.702-2.54-2.536.18-3.263-1.79-1.832zm7.78 28.227v2.712l1.81.903 1.26-1.631-3.07-1.984zm-4.89-171.036l-2.35 1.632 1.26 1.268 1.72-1.72 1.72-1.719-2.35.539zM1038.83 34.072l-1.66-.627-1.45 1.519-3.19 1.656-2.6 2.598.24 4.469-1.11 1.104.56 3.602 2.07 3.05 2.14 4.983 3.33.69 2.25-2.246 1.69-3.075-1.87-2.009 2.78-4.016-.49-4.355V36.23l-2.69-2.159zm40.81 453.728l-1.81 1.996v5.246l3.07-1.267 1.64 1.631 1.8-1.807.73-3.627-1.99-2.9-3.44.728zM872.454 165.773l-.377-1.519 2.85 1.33 1.418-1.43 1.996-1.996 2.937-2.937 1.807 2.184h.954l2.373-2.372 2.184-2.561 4.18-1.895 3.037 2.272-1.707 4.744v2.661l-1.996 1.996-3.138 1.43-3.414 1.331h-3.414l-2.561 2.56-4.079-1.43-2.084-3.038-.966-1.33zm-7.017 3.991h-6.075l-1.996 1.996-3.138 2.184-2.284-2.272-5.51 1.707.376 3.414 1.419 1.431 2.083 2.083 1.419 1.418-2.084 1.707-2.849-2.472-1.519 1.518-2.084-2.083-4.744.954-2.084-1.142-.954 2.472 1.519 1.519-2.85 1.519v3.602l2.285 2.284-.577 2.661h2.083l2.661 2.661-.765 3.037 3.414 1.707 4.556.189 1.895 1.895h3.415l3.991-1.142v-3.038l-2.473-2.272 1.331-1.33 1.996 1.996 3.514-6.364 3.326-3.326 1.419 1.418 3.037-3.037.954-2.849-3.414-1.142-2.272 2.284-2.849-2.083-3.414-2.084-3.414-2.473 1.142-2.472 1.807-1.808 1.419 4.845 2.184 2.184 3.703.665 2.284-.954h1.895l1.896-1.895-.954-3.991h-3.038l.766-3.414v-2.473l-2.448.766zm3.226 33.411l-1.707 1.519 1.331 3.803 2.184 2.184 1.807-3.514v-2.849l-1.33-1.331-2.285.188zm7.782 3.414l-2.184 2.184 1.23 2.937 2.084 2.084-1.33 3.037 1.142 1.142 1.707-3.602 4.368-.954 3.803-1.518 5.121-3.038-2.661-4.932h-3.602l-5.121-1.707-2.373 2.183-2.184 2.184zm-42.714-8.158l-1.707-1.707-3.038-.188 1.996 1.995 1.23 4.456h2.473v-2.472l-.954-2.084zM738.8 272.27l-3.514 3.514v2.373h2.937l.954 2.271 2.473-1.142 2.849-2.849v-4.556h-3.602l-2.097.389zm123.776-133.646l-1.143 2.084 1.23 1.23 1.419-1.23-1.506-2.084zm-10.632 82.964l-3.602-.753-1.143.954 2.084.954 2.661 2.083 1.142-1.518-1.142-1.72z"/></mask><path d="M909.746 555.753l-3.389-.904v-3.652l-3.138-1.042-3.264-4.318-4.569-1.694-.979-4.77-2.159-2.158.716-2.285-3.201-3.2-2.749-2.749-1.694-4.707-2.611-.263v-3l-2.812-3.075-2.284-2.284h-3.326v3.2l-2.938 2.937-4.569-.653v-2.999l-1.958-1.695v-3.79l-4.054-.527-4.707-2.222-4.443.527-4.444-.652-2.485 2.999-1.243 4.117-2.937 2.937 1.18 4.054-1.569 4.707-3.916 3.916v7.317l-5.485 3.791v4.317l-2.348-3.263v-3.665l-2.749-2.749-2.61 1.18-.653 3.402-6.929 2.61h-3.263l-1.306 3.916-2.096 3.138-4.506.326-5.033-5.033-.528-10.455.653-6.275v-5.874l.791-5.222v-5.096l-3.653-1.568-2.61-.917-.39-2.485-1.242-2.849-2.385-2.385v-2.811l1.632-1.632.451-3.853-2.284-2.284h-3l-3.263-1.569v-3.013l1.305-1.305-1.443-1.443-1.18-4.569-2.611-4.707-3.138-2.221-3.527 1.041-3.402.264v-4.054l2.812-.791v-2.673l-2.937-2.937-.138-2.485-3.076-.201-2.284 2.284-2.875-1.305-3.79 1.431-1.833-2.222h-1.958l-1.694 1.694h-3.402l-2.222-1.041v-4.18l1.306-1.305v-2.749l-1.042-3.138 2.485-3.916 1.431-4.054-4.318-4.305-1.18-5.748-3.652-1.958v-3.653l1.443-1.305-1.443-1.443v-3.402l-3.917-1.569-1.179 1.18-1.18-3.527 1.958-1.958 2.096-3.401 3.138-.916-1.18-8.109-.916-5.221v-2.749l-3.665-6.664-.389-6.929-3.653-2.485-1.569-3.652-1.13-2.812v-1.732l4.393-1.732 4.557-6.439 3.138-.941 4.242 1.255 1.256-2.824v-3.451l-2.36-2.36 1.104-4.079 3.138-1.105-.163-7.531 3.452-2.359 4.004-4.004.866-2.899h1.732l-.313-4.243h-3.302l-2.987-5.648v-5.183l-2.674-2.674-5.648-4.079v-2.197l-4.243-1.568-1.481-3.126.716-4.204-1.783-1.783-1.857-2.799-.942-2.422 1.444-1.519.414-2.008-1.669-1.33-.54-3.678 3.552.841 4.18 1.669.841-2.51 2.611-3.665 2.196 2.197v4.179l2.511 3.552h2.924l-2.924-2.723 1.983-1.996 3.866-3.866 5.234-2.723 7.945-1.469 6.276-1.883 1.569 2.41-1.468 1.469 3.452 3.451h6.527l.213-1.669.628-2.297 2.51 3.979 4.393-1.669 4.393-3.766s4.607-.841 5.649-.841c1.042 0 0-3.765 0-3.765l-.628-4.18-3.138-4.807.841-4.807.628-2.51 2.51 2.51 2.611-1.983 2.197 2.196 3.351 2.297.841-2.51 1.669-.414 1.67 1.883 1.669-1.256s-.213-3.865 1.356-3.865c1.569 0 1.983-1.983 1.983-1.983l4.607 3.552 1.468-1.381 5.021 1.669-1.669 5.121h2.41l2.41 2.41v3.979l3.978-2.511 2.097 2.097v4.606l-2.724.841-1.67 1.669 2.925 2.925s2.297-1.042 2.297-2.097c0-1.041 1.883 1.883 1.883 1.883v3.351l4.293-.1 4.079 4.079 3.138 2.096 4.393.841 1.883-1.883 4.807 2.511.415-3.979-2.097-6.903-1.255-3.138v-2.925l-2.723-2.736v-3.765l5.234.627 2.924 2.925 4.607-1.255h5.234l-1.042-5.435 2.925-5.435 5.435-1.255 3.979-.213 4.606 1.255v-3.138l-4.92-2.196 1.782-1.783 2.297-2.51 3.979.214 3.138-3.138-1.468-.841-3.138-3.138-3.552-1.883v-4.606l-1.469-1.255-2.096 5.435-2.511-1.67v-4.393l4.607-4.179-.628-2.925-4.393-2.723 2.724-2.724h3.979l5.862-2.924 1.669-4.807 7.745-2.925 6.062-2.724s.841.841.841 2.097c0 1.255-3.979 2.723-3.979 2.723l-1.468 5.648 3.552-1.669 3.138-3.138 3.979 1.255-1.042 8.159 3.552-3.352v-3.978l-1.255-6.69.841-2.925 1.883-5.234 4.393-2.096 6.276-2.723 3.766 2.723s-1.783 2.41-3.138 3.766c-1.356 1.355 1.468 2.297 1.468 2.297h4.607l2.924-3.352s3.352 3.552 3.98 4.18c.627.628-.628-4.807-.628-4.807l5.648-3.138 3.979 2.096 4.393-.213 3.979-3.979 4.18-5.234v-6.062l5.234-7.744 4.394-4.393 3.979-4.807 6.903-1.042 5.749-.314 2.824 2.824 5.827 5.862 5.23-2.297 3.77-3.038h4.08l-1.99-1.983v-2.924l3.98-3.979v-6.903l1.89-3.552h3.13l2.73-2.724v-4.179l5.23-3.766 1.26-5.02-2.1-2.096.84-2.511-2.95-4.192 2.3-4.179 2.19-2.197 3.98 3.979-3.03 3.037 3.13 3.138h4.81l3.35-1.255 4.61-2.096 4.18-1.042 1.04-3.351-1.25-3.351-2.3-.414-7.12-3.138-5.23.841-1.26-2.925h-4.18v-2.296l1.06-3.992 3.76-1.882.42-4.393 3.35-1.883h2.92l-1.25-3.552 1.25-3.766 3.56-5.233 1.66-6.063 6.38-6.175 7.12-7.116 3.24-3.239 6.27-2.723 4.5-2.61 4.18-4.18 4.29-4.293 5.23-2.096 3.77-5.435 7.12-2.096 3.76-3.978 4.61-2.097 2.92-1.669 3.35 3.351 4.81-1.468 4.29 3.238 2.83-2.824 5.02-2.724v-2.51l-5.02 1.042-5.86-.414-3.77-1.042 1.26-3.765 3.97-2.724-3.33-.816v-1.883l2.29.214.42-3.766 2.09-2.924 2.93-2.925 5.02-1.882h1.47l3.76-5.234s3.56-1.042 4.81-2.297c1.26-1.255 0 3.552 0 3.552l2.72 2.297 2.1 2.083-2.3 4.808s3.14 0 4.4-1.256c1.25-1.255 0 2.51 0 2.51v4.394l-4.81 3.137 3.76.628 2.3-2.297 4.92 1.883V19.75l3.87 3.866 2.72 4.18 2.3-.628 2.3-2.924v2.723l1.46 3.352h-4.39v1.669l3.55 1.042-1.88 5.434-4.81.427-4.39 4.807-2.3 5.02-4.39 1.47-3.14-1.256h-3.98l-3.55 5.234 1.57 3.138v5.334l-3.45 3.452-2.73-2.096-2.72 2.096h-3.98l-2.3-1.883-2.09-1.255-.32 1.983 1.57 1.569-1.88.84-1.25 1.256 3.66.627v2.824l2.82 2.824 4.61-1.255h3.14l.21 3.98 1.89-1.884 3.23 3.239 3.46 3.451 1.67 6.063.84 4.807-3.36 5.447h-3.13l-4.4 1.883-1.47 3.351 3.56-1.469h2.29l-3.35 3.979 2.1 2.096 2.72-1.042v-3.991l2.51-1.883 4.5-.1 2.61-2.61 1.25-2.097 3.14.214 2.51-.415 4.61-.213v2.924h3.76l1.05-1.983h3.66l2.2-2.196 2.72-.414 2.31 1.87 3.35-2.51 1.57 3.665 3.04 3.037v4.393l-4.19 1.669-2.73 5.862h-4.39l-1.26 1.882 4.92 3.239-1.57 1.568 3.56 5.435 1.47 6.69v7.531l1.25 5.861 2.1 5.021 1.04 6.689 2.1 6.489 3.97 3.552v6.063l2.1 8.371 3.55 3.979 2.3 2.297-3.55 3.138-3.77-1.883-5.23 1.67-2.73 6.275-4.39 6.276 2.3 2.297-1.67 5.861v3.138l3.55 5.435v3.351l-3.98-1.883-2.92-2.924-2.51.213 2.29 6.062v3.979l3.87 1.782-3.87 3.866h-2.51v5.435l-2.29 2.297 3.13 5.234 2.51 2.51 2.93 2.924 3.98 3.979.84 5.861.63 4.607 5.75 3.037 3.45 3.452h5.86l-1.57-3.552v-1.783l1.98-1.983 1.47-3.137 5.44 5.434 1.04 4.807 5.43 3.766 5.39 1.205 2.14-2.147h3.46l4.08 4.08-1.67 3.978-4.18 1.255 1.25 5.021 4.4 7.317 3.86.942 3.04 3.037 7.12-.841 4.18 3.351 1.46 3.766-2.51 1.669-3.55 2.297-2.09 4.606 1.46 8.372 4.18 6.489 3.67 1.355 1.78 1.783 6.06 1.468v2.51l-4.6.628v3.765l-1.67 3.766 2.09 7.531 3.56 1.468 5.43 5.435 3.98 3.765.84 6.69 2.1 8.786 1.04 5.648v4.179l-2.3-3.137h-6.06l-3.87-1.983-3.03-3.038h-4.18l-3.77-3.765-7.32-3.351-6.9-2.925-7.95-4.179-2.29-3.138-3.77-2.511-4.18-.84-9-2.724-5.86-3.138-5.65-3.765c-.94-.942-2.72-5.021-2.72-5.021l-6.06-6.049-4.18-4.393v-4.393l-2.93-2.925-.63-4.807-3.55-5.02-3.87-.841V316.4l1.79-1.782 1.47-3.138-1.99-3.451 1.89-1.883 1.56-1.569-2.09-6.276-1.04-6.689-2.51-7.745-3.98-5.233-1.67-6.904-1.89-6.489-2.09-5.233-2.51-7.745-2.51-2.096-.22-4.179 1.47-5.021v-6.476l-2.51-2.51-2.72-5.234h-2.72l-2.62-.942-2.41-2.409-2.92-3.766-4.39-2.723v-4.808l3.98-3.765-1.36-1.356-3.24 3.239-4.61 2.51v4.393l-1.25 3.351 2.51 2.297 3.67 3.665 3.45 3.452h4.18l-.42 2.723-1.88-.213-1.98 2.824 2.61 2.61v6.69l2.09 5.021.42 7.945-1.47 4.807-1.67-4.18-3.77-1.882v5.233l-3.13-3.137-2.1-2.096-1.67-3.552-5.86-5.435 1.67 4.606-1.67 5.021h-5.65v3.351l-1.88 6.903-2.36 2.711.21 9.2 3.77 2.511-.63 5.861 3.76 5.861v6.276l1.16 8.259 3.45 3.451v3.766l2.93 2.924 2.72-.414 2.41-2.197 1.78-1.782h3.14l-.23 3.979-3.35 1.042v5.648l-6.27 1.042 1.47 7.317-.63 3.138-3.98 1.669v4.393l-1.47 3.979s-4.92 1.154-3.98.213-1.88-1.883-1.88-1.883v-2.711l.84-2.723 3.45-1.155-1.57-1.569-3.76 1.469-3.98.627v1.883l-5.86 2.723-2.93 3.552-3.35.841-2.72 2.724-1.05 3.138 1.05 3.979 2.29 2.297-2.72 2.924-4.39-1.669 1.35 4.493-3.24 3.238-2.92 2.724h-2.51l-2.51 2.297 1.67 2.723 1.25 1.255-3.55 2.297h-4.81l-4.7 4.707-3.02 3.037-3.35 5.648-3.55 3.552-3.55 7.117-.63 6.903 3.35 6.69-3.14 3.138-1.04 6.69 1.87 4.819 2.93 2.925-2.51 4.179v13.179l-1.26 5.234v7.117l2.1 2.297v10.668l-1.89 7.117v5.861l-3.13 5.234v5.221l-1.67 4.607 1.88 4.242h3.19l2.46-2.46h3.45l2.72-2.724 3.04-3.037 2.1 2.096 2.51 1.255v2.724l1.98 3.665 2.51 2.51 2.2-2.197v-3.351l-2.93-1.255v-3.138l2.3-2.51v2.084l2.51 1.882 1.26-.414 1.25 1.255v6.489l4.18-1.669v-2.096l2.3-3.138 1.47-1.255 2.29 1.669.53-3.451-1.98-1.983-1.9-3.565-2.29-4.18 3.76-2.096 2.3-2.297 4.6-1.041h5.44l4.49.527 1.99 1.983s4.8-.841 5.86-.841c1.04 0 3.98-1.255 3.98-1.255l2.61 2.611-1.99 1.983-1.46 1.468-1.26 2.297h7.32l.84 2.724 3.14 3.137 3.86-.527 1.99 1.983 2.09 3.979.63 7.945 2.72 8.372 4.3 6.175 5.33 5.334 2.1 2.096 1.04 3.552 4.18 4.18 2.92 5.02 1.05 2.925 3.86 5.962 3.24 3.238v8.786l-1.25 7.531 2.29 7.53-.21 7.744 2.3 6.063 1.67 6.69 1.25 6.062 1.26 8.158v7.97l-1.26 4.18v18.199l-1.25 7.531 1.25 7.744-.41 10.041v4.807l-4.18 6.903-2.73 5.862-3.14 5.861h-2.68l-5.24 2.096-4.39 2.511-3.04-1.256v-2.824l-1.57-1.569-1.56 3.552v3.866l-1.79-1.782-2.72-2.724v2.096l-.84 5.234.84 3.552-1.16 4.079-1.78 1.783v5.447l-3.98-.213-1.67-1.67 1.47-4.807 2.51-5.02v-4.18l-2.19-4.92-4.5-4.493-2.29-2.297-1.89-4.807-3.98-3.979-3.76-1.255-.1-4.079 2.61-2.611 2.3-2.297v-4.18l2.92-2.924 3.35-1.669 3.45 1.154 3.04-3.037 1.88-3.765-3.35-5.234 1.67-4.393-2.09-4.606-.39-4.845-2.93-3.979.84-3.351-2.31-3.966-1.04-4.607-4.18-4.393 3.14-3.138v-4.606l-2.61-2.61-3.03-3.038-.84-2.724h-3.55l-5.02 2.724-1.26 4.18-3.35 5.434-3.76 4.807 1.67 5.234-4.4 3.552-4.39 2.511-3.76 1.255-1.05 3.765h-3.99l-3.98-2.297-2.92-1.029v-4.807l-3.35-2.925-2.71-2.723-4.51-1.155-2.41 2.41-4.81-1.255-3.98-1.042-6.06.841h-5.65l-2.29 2.297-6.28 2.297-6.28-1.255-2.61-5.121-3.04-3.038s-3.55-2.096-3.55-2.924c0-.841-3.98-3.979-3.98-3.979l-5.02-.841-2.09-5.02-4.81-3.766-3.35-3.351-4.61-1.255-1.67-4.393-4.18-1.883-2.51-2.51-8.37-.841h-4.394l-5.02 2.724-6.276-1.042-4.808 1.669h-5.234l-7.117 5.234-3.351 3.351-3.025-5.221-1.356-2.723h-3.552l-1.042-4.494-1.782-2.723 3.138-1.883v-1.469h-1.67l-2.824-3.037-2.297-.314.527-5.334-1.356-2.41-1.468-4.079-3.351-1.669-2.41 3.351-2.511-.942-.213-3.552-1.67-1.669-2.46-.678-2.56 2.561-1.256 3.138-4.292-1.155-1.356-2.611 2.51-3.138-1.468-2.409-2.824.941-3.666-.941-2.523-2.548-.037-2.523zm220.214-86.591l-1.45.364-1.08-3.075v-2.711l4.71 1.267 2.35 1.092 1.27 2.9 2.53 2.535 4.52.904 1.09 2.899 5.07 3.263h2.72l2.17 3.075 1.8 4.883 2.82 2.799 5.33 5.522 3.44.904 4.71 1.807 4.53 3.979 6.15 3.439 3.98 3.439 5.24 2.711 4.52 2.711 2.9 2.347 5.07 1.996-.72 2.36-1.81 1.807-3.44 1.092h-2.71l.73 3.803-.73 2.711v2.171l3.07 4.707s2.9 3.251 2.36 3.803c-.54.54.18 5.611.18 5.611l2.36 2.359 3.61 3.615 3.08 1.996h4.71l2.71 2.711h3.07l1.63 3.439 3.98.176 2.45-2.448 4.25 2.448 2.54 3.263s.9 2.171 0 2.171-5.8-2.359-5.8-2.359l-2.08 2.083h-4.62l-1.44 3.715.9 3.615 2.9 2.899 2.17 4.707-2.9 2.36-2.36-2.9-3.07-3.075-5.44-5.07v-3.439l-3.61-3.615-3.44-3.439-2.36-3.075-2.9-5.611-3.62-3.439-3.8-2.171-3.62-1.092-3.07-6.514-6.7-9.225-5.44-5.435-4.52-4.518-3.98-5.435-2.53-4.167-6.88-3.075-5.44-2.347-3.26-.364-4.34-5.975v-2.711l-4.71-4.707-2.53-4.706-5.08-1.632 1.27-3.615v-2.711l4.17 1.268.73-3.615-2.45-2.447v-1.356l-2.4-2.397-3.46-1.255zm152.94 94.473l.73 3.803.37 3.615 1.44.54v-2.9l1.09-2.359v-3.264l-3.63.565zm12.49 2.171v1.632l2.36 1.268v-2.711l-2.36-.189zm-7.42-14.659l2.18.903.72-2.899-1.09-5.786 2-1.996-.37-4.167-3.07-.904-.91 4.707 1.18 1.18-.99 3.527.35 5.435zm5.43-23.886l-.91.904.73 3.075 1.44-2.171-1.26-1.808zm2.17-11.045l.9-4.706-1.27-2.9.73-3.075 2.45-2.447.63 3.351-.54 3.439.73 3.979-1.27 2.899-2.36-.54zm2.36-40.364v7.229h2.53l-.72-3.075v-4.33l-1.81.176zm-105.35-233.655v3.979l-.36 3.615 2.17 1.443 1.44 1.808.18 3.25 2.9 1.092-.73-3.25-1.27-2.536 1.27-4.167v-5.071l-3.44-1.443-2.16 1.28zM1263 261.2l-2.54.904 1.27 2.711h8.68l2.72-2.711-3.44-1.092-3.44 1.443-3.25-1.255zm12.49 133.395l-1.1 3.263-1.72 1.72 2 1.995 1.18 2.448-.36 3.263-.18 4.167 1.9 1.895 2.08-1.18v-4.342l1.89-1.896-1.54-3.702-2.54-2.536.18-3.263-1.79-1.832zm7.78 28.227v2.712l1.81.903 1.26-1.631-3.07-1.984zm-4.89-171.036l-2.35 1.632 1.26 1.268 1.72-1.72 1.72-1.719-2.35.539zM1038.83 34.072l-1.66-.627-1.45 1.519-3.19 1.656-2.6 2.598.24 4.469-1.11 1.104.56 3.602 2.07 3.05 2.14 4.983 3.33.69 2.25-2.246 1.69-3.075-1.87-2.009 2.78-4.016-.49-4.355V36.23l-2.69-2.159zm40.81 453.728l-1.81 1.996v5.246l3.07-1.267 1.64 1.631 1.8-1.807.73-3.627-1.99-2.9-3.44.728zM872.454 165.773l-.377-1.519 2.85 1.33 1.418-1.43 1.996-1.996 2.937-2.937 1.807 2.184h.954l2.373-2.372 2.184-2.561 4.18-1.895 3.037 2.272-1.707 4.744v2.661l-1.996 1.996-3.138 1.43-3.414 1.331h-3.414l-2.561 2.56-4.079-1.43-2.084-3.038-.966-1.33zm-7.017 3.991h-6.075l-1.996 1.996-3.138 2.184-2.284-2.272-5.51 1.707.376 3.414 1.419 1.431 2.083 2.083 1.419 1.418-2.084 1.707-2.849-2.472-1.519 1.518-2.084-2.083-4.744.954-2.084-1.142-.954 2.472 1.519 1.519-2.85 1.519v3.602l2.285 2.284-.577 2.661h2.083l2.661 2.661-.765 3.037 3.414 1.707 4.556.189 1.895 1.895h3.415l3.991-1.142v-3.038l-2.473-2.272 1.331-1.33 1.996 1.996 3.514-6.364 3.326-3.326 1.419 1.418 3.037-3.037.954-2.849-3.414-1.142-2.272 2.284-2.849-2.083-3.414-2.084-3.414-2.473 1.142-2.472 1.807-1.808 1.419 4.845 2.184 2.184 3.703.665 2.284-.954h1.895l1.896-1.895-.954-3.991h-3.038l.766-3.414v-2.473l-2.448.766zm3.226 33.411l-1.707 1.519 1.331 3.803 2.184 2.184 1.807-3.514v-2.849l-1.33-1.331-2.285.188zm7.782 3.414l-2.184 2.184 1.23 2.937 2.084 2.084-1.33 3.037 1.142 1.142 1.707-3.602 4.368-.954 3.803-1.518 5.121-3.038-2.661-4.932h-3.602l-5.121-1.707-2.373 2.183-2.184 2.184zm-42.714-8.158l-1.707-1.707-3.038-.188 1.996 1.995 1.23 4.456h2.473v-2.472l-.954-2.084zM738.8 272.27l-3.514 3.514v2.373h2.937l.954 2.271 2.473-1.142 2.849-2.849v-4.556h-3.602l-2.097.389zm123.776-133.646l-1.143 2.084 1.23 1.23 1.419-1.23-1.506-2.084zm-10.632 82.964l-3.602-.753-1.143.954 2.084.954 2.661 2.083 1.142-1.518-1.142-1.72z" fill="#F3F3F3" stroke="#fff" stroke-width="2" mask="url(#f)"/><mask id="g" fill="#fff"><path d="M230.329 260.225l.527-3.866 6.376-6.376h10.67l3.351-5.861v-11.296l6.69-3.351 8.787-4.393 6.062 2.297h3.552l2.925 2.924 3.59-2.51-.879 4.393 3.552-.414 5.021.213v3.351l1.042 3.765-2.297-1.468-2.41-2.41-2.197 2.197 1.042 3.978v3.979l3.552 1.883 2.724 2.723v4.393l3.038 1.469v4.92l3.452 3.452 1.669 5.861v6.05l-1.042 5.234 1.255 2.924.101 6.376 3.665 3.665-.213 4.606-.841 7.531-3.666 6.376-5.548 5.548h-5.861l-6.49 1.255-5.648-2.096-6.176-3.452-3.866-3.866v-5.648l-3.979-3.978-1.882-4.393-1.469-4.18-2.724-4.606-1.468-7.744-2.925-1.255.941-4.707 2.41-2.41-2.924-2.924-1.356 3.665-1.983 1.983.841 4.606.1 5.334-2.297 2.297 3.038 3.038-.841 4.606-2.925 6.489-5.121 1.569-4.079 4.079-1.569 7.43-3.866 3.866 3.138 9.828-3.038 5.334 4.293 4.292 4.606 4.607 5.235-3.766 1.041-5.233-2.723-2.724.452-4.606v-3.552l3.552-3.766h3.552l1.255 9.414 1.155 6.175 3.665 3.665 2.297 4.807 5.962 1.782 1.783-1.782-1.469-3.552 3.552-2.924.214-7.318 6.489 1.042 6.063-2.297 5.02 2.724 5.649-1.783h3.866l2.41 2.41 3.552 5.435-2.925 2.924v4.607l2.611-3.239 3.665-3.665 5.021-1.041 4.18-6.063v-5.259l1.669-3.552 5.435-2.723v-3.351l5.235-3.138v-5.234l-.841-5.021h3.552l1.155 2.611 4.707 4.707 3.552 5.435v7.317l-1.255 3.765-1.883 1.883-3.138-3.138-4.393-1.042-6.691 2.297v5.46l1.67 5.021v4.179l4.807 1.255 4.607 2.096 5.234-2.51v-3.765l5.435-1.255 5.234 2.51-.841-3.351 8.159 1.468 4.393-.841 7.946 1.042h4.606l2.322 4.192h2.097v-3.765l6.69-2.096h3.564l1.469 5.434H386.4l-1.255 3.766-3.138 1.042 4.807 4.392h3.352l6.276-2.723 5.962 1.155 6.489 6.489 2.197-2.197h4.393l5.548-1.782 2.197 2.196-.628 2.925-3.351 2.297v3.552l3.979 3.351.313-3.866 1.783-1.782 4.18 1.041v-3.351l3.979-.627.841-5.021-.628-6.062 3.765-1.883 3.239-.941 3.866 3.866 1.669-1.67 4.293 5.335 4.921 4.92 3.978 3.979.98 1.983-1.708 2.51-2.046 2.046-1.255 1.255 2.046 1.933.414 1.569 1.569.527v7.104h-1.983l-.941 2.297-1.67.841-.627 3.865 4.18 2.096v2.724l-3.866 1.569 3.238 3.238-5.021 2.51-3.765 3.766h-3.979l-1.469 4.606h-7.117l-6.69 1.469-6.69 3.765v4.606l-5.435-.213-4.029.628-2.197 2.51-3.929 2.046-3.929 3.928-3.615.477v-3.301l-2.673-.941-3.213 3.213-4.318 4.318-1.883 3.614.791 4.556-5.021 3.138-.477 3.766-4.243 2.673-2.824 5.334.791 3.615-1.732 3.301v2.824l-5.184 5.184-.703 3.69-1.958 1.958-1.105 2.987-7.217-1.104-5.335-2.046-4.707-2.511-4.87-3.301h-2.197l-1.255 2.674-2.121.703-1.494-1.494-2.121-.703-2.121 2.121-3.766-1.418-3.301 1.732-2.987-2.987-4.557-2.046-2.673.942-2.197-2.674.477-2.673-1.105-1.732-2.673-.942-2.046 2.046-1.494-1.493-1.493 1.493-4.243-2.36-1.958 3.841 2.121 2.121v2.511l-3.201 1.255h-3.389l-1.933 1.933-3.113.364-1.004-2.297-1.744-1.745-3.302 3.113-2.384-2.385-3.854-1.832-3.665.916-1.469 4.217-2.385 2.937-1.468-1.468 1.28-2.937-.916-3.301v-3.113l-2.197-2.197v-3.112l2.749-2.749v-2.749l4.042-.916v-4.217l2.573-2.573-.389-3.176-1.883-.941.728-2.297-2.046-2.046-.791-.791-1.154-1.882-1.569-.527-2.247 1.933-4.594 4.593-2.85 2.837-3.966-1.757-2.197 2.02 4.582 4.77-2.937 1.468v3.854l-1.381 1.38-4.858-4.305-2.573 4.042-4.581-1.105-1.921 1.933-2.849-4.129-4.217-2.385-3.49-1.657-1.468-4.041-4.13-4.13-5.41-1.004-2.749-5.874-4.217 2.021-4.594-2.021-5.134 1.28-4.582 2.021-4.958-4.957v-8.259l-3.941-3.941-2.021 2.02-5.234-3.577-2.197-2.196-3.853.364-2.573.464v-4.192l1.079-3.514-2.974-.942-3.377.678-4.33-2.033-3.515-1.356-2.837-1.355-1.757-1.757-.54 1.757h-2.711l-2.033-2.435h-2.975l-.741-3.05-1.694-1.694-2.297-1.155h-2.774l-2.235 2.234h-3.514l-1.757 1.757-2.912-.339-2.373-2.372h-4.468l-2.435-1.494-3.176.201-1.833-1.832h-3.652l-1.896-1.895-1.255-2.724-3.238 2.724-.314 2.61-1.883 1.883-.414 4.393-1.155 2.51-1.255 2.197h-2.925l-1.255 3.552-2.824-3.452-3.552.314v-7.117l-3.502-3.301-3.98-1.042 1.256-3.137 1.054-3.352-2.924-2.924-1.883-4.18.628-2.924 3.979-3.979 2.297-4.179-1.042-3.766 3.351-.841 5.021-3.138v-4.392l2.096-2.511 5.234-.213 2.297-2.724.214-3.138 4.393-1.669 3.552-4.807 4.795.201 4.18-2.51 5.648 1.255.841-3.138 1.883-1.883 3.552 1.67 2.925 3.137 4.606 1.469 1.67 3.765 1.669 4.18 2.511-2.51-.415-6.063-3.765-3.351v-7.116l3.351-.841 1.042-1.042-4.607-1.883-2.723-3.138h19.154l27.715-.213 8.786-3.138v-5.435l1.469-13.806h5.861l5.021-3.979v-5.434l3.766-1.469v-7.116l3.351-.214 7.318-5.861 3.552 1.669 7.745-14.409zm12.727 51.749l-.753 1.142 1.331 1.707 1.707-1.707-2.285-1.142zm176.946 2.648h-2.084l-2.284-3.414-1.331.766-3.991-3.79-3.038-3.226 1.142-3.414 3.038-.954 1.142-1.895-2.084-1.707.189-4.556-1.331-.377-1.33-3.414-2.85-.188-2.272-3.226.754-4.179 3.037-4.18 3.615.377 1.142 1.33 1.331.565.565-2.473 4.368-1.33 3.414-3.602-2.272-2.473 3.038-1.895 3.414 1.33.954-2.849v-2.849h4.368l2.083 2.084 2.184-2.184.477-1.996 4.745-.954-1.619-1.606-4.08-1.431v-1.519l4.745-1.33 4.933-1.331 2.473-2.472h3.226v-2.272l4.556-.189-2.473-2.472 3.992-.188 1.519 1.518-.189-3.79 1.896-1.895-2.084-2.473 1.331-2.083 2.271 2.271h2.85v-2.849l4.18 1.519 2.083-2.272 2.084-2.473h2.661l4.556-2.083 3.226 1.142h4.745l3.138-3.138 3.703.289 1.707 2.473h3.991l1.896 1.895 3.414-.954h4.744l3.138-3.125 3.703-1.996 4.933-1.895h4.556l2.661 4.179v4.556l-3.991 3.603-3.603 3.414-4.744.376-5.699 2.661-5.121-1.895-2.473 2.472-5.887-.188h-7.594l-2.849 3.038h-5.887l-4.368 2.472 1.331 3.038-3.038 1.142-3.602-.377h-3.226l-.377 2.084-3.414-.954v3.414l-3.414 2.472-2.849 2.084v-3.226l-2.285 2.084.565 3.803h-2.272l-1.619-1.619v4.656l-1.657-1.657-2.134 2.134-1.807 1.807h-2.473l-1.895 2.473-2.473 4.18h-3.992l-3.225 2.66v3.603l-3.226 1.33-1.143 3.803-2.661 2.661v4.707l-1.33 3.414 1.707 4.932-1.519 4.933 2.084 3.226.954 3.414-1.142 1.142-3.226 1.518v-2.472l-3.025-1.695zM540.94 128.023l-1.569.477 1.255 1.732v1.556h2.197v-2.987l-1.883-.778zm-.477 13.329l-1.105 1.732-4.079.791-2.673 1.418 2.045.942-.941 2.196 1.732.477h3.452l2.749-2.749 2.046-2.045-.703-3.063-2.523.301zm-13.016-2.824l-.866.866 1.644 1.644 2.987-1.104v-2.51h-1.732l-2.033 1.104zm-2.272 4.945l-2.272-2.585-1.732 1.732-1.256 2.51v3.138l2.674.477.628 1.883 3.301-.791 2.121-2.121 1.569-1.569.866-2.586h-2.36l-3.539-.088zm-9.339 10.907l-1.017 1.017v1.958h2.122l.79-2.51-1.895-.465zm-4.393-8.007l-1.105-1.105h-3.452v2.36l-1.882 1.883 1.104 1.104 3.766-.791 1.418 1.419 3.301-.791.942-2.197 2.36.791-1.256-2.824-2.121-2.121-3.075 2.272zm17.409-26.195l-.941 1.883 1.644 1.644 1.569-1.569-2.272-1.958zm-3.451 4.393h-2.511v2.824l2.674 2.674v2.196l2.36-1.104-1.419-2.988-1.104-3.602zm-15.69 8.159h-2.197l-.477.477 1.808 1.807.866-2.284zm1.882 3.602l-1.493 1.493 1.493 1.645 1.733-.164-1.733-2.974zm1.419-6.903v2.045h2.196l-.477-2.359-1.719.314zm3.063 5.108v1.807h1.807l-1.418-1.418-.389-.389zm1.794 4.154l.791.791 1.419-1.418-2.21.627zm2.197-8.321v2.196l1.883.164v-2.36h-1.883zm-2.824-4.393l1.104 2.046 1.017-1.017-1.017-1.016h-1.104v-.013zm-20.234 13.179l-1.18 1.18 2.046 2.045 2.272.076v-3.766l-1.569-2.045-1.569 2.51zm5.172-2.51l.79 2.196h1.569v-1.883l-2.359-.313zm-8.787-12.552l-1.569 1.569v1.732l-1.807 1.808-3.214-2.272-2.673 1.418v1.883l-3.301-2.36-2.511.942.791 3.765 2.36-.791v2.51l2.51.628 2.272-2.272 3.213-1.33 2.674.791h3.929l2.824-2.824-2.674-2.674 1.808-1.807-3.063-1.808-1.569 1.092zm-8.937-3.916h-3.452l-2.046-2.046-1.418 2.824 1.807 1.808.703 2.121 4.08-1.418 1.418 1.418 2.674-1.104 1.104 1.104v-2.36l-1.807-1.807h-1.645l-1.418-.54zm3.063 16.555h-1.331l.477 1.958 2.824.164-1.97-2.122zm.54 4.155l-1.419 1.418 1.105 1.105 2.673.627-1.732-1.732-.627-1.418zm11.459-20.245v2.046h1.569l1.569-1.569-3.138-.477zM1.72 321.337l3.25.728 2.787-.79 1.067-2.059 2.523.402 2.36 2.359.1 3.226 1.933.603.402 2.522 2.987.528.665-2.398-1.631-1.631 1.393-1.394.904.892 2.862 2.384v3.59l-.402 3.125 1.657 2.724 1.657 1.129.602 4.054-1.456 3.05-6.979 3.527-10.569-12.551-6.112-14.02zm431.574 4.494l-3.037 1.518-2.285.766.565 4.933.377 2.661 2.083.564.766 3.992 3.991.376 1.331-3.226-1.895-3.225.188-3.602-2.084-4.757zm-67.203-16.518l-4.18 1.142-2.473 3.226-1.895 2.473 1.331 3.602 3.037 1.142 2.849 1.142 2.661-1.895 3.226.565 1.707-3.979-2.661-3.414-.188-2.849-3.414-1.155z"/></mask><path d="M230.329 260.225l.527-3.866 6.376-6.376h10.67l3.351-5.861v-11.296l6.69-3.351 8.787-4.393 6.062 2.297h3.552l2.925 2.924 3.59-2.51-.879 4.393 3.552-.414 5.021.213v3.351l1.042 3.765-2.297-1.468-2.41-2.41-2.197 2.197 1.042 3.978v3.979l3.552 1.883 2.724 2.723v4.393l3.038 1.469v4.92l3.452 3.452 1.669 5.861v6.05l-1.042 5.234 1.255 2.924.101 6.376 3.665 3.665-.213 4.606-.841 7.531-3.666 6.376-5.548 5.548h-5.861l-6.49 1.255-5.648-2.096-6.176-3.452-3.866-3.866v-5.648l-3.979-3.978-1.882-4.393-1.469-4.18-2.724-4.606-1.468-7.744-2.925-1.255.941-4.707 2.41-2.41-2.924-2.924-1.356 3.665-1.983 1.983.841 4.606.1 5.334-2.297 2.297 3.038 3.038-.841 4.606-2.925 6.489-5.121 1.569-4.079 4.079-1.569 7.43-3.866 3.866 3.138 9.828-3.038 5.334 4.293 4.292 4.606 4.607 5.235-3.766 1.041-5.233-2.723-2.724.452-4.606v-3.552l3.552-3.766h3.552l1.255 9.414 1.155 6.175 3.665 3.665 2.297 4.807 5.962 1.782 1.783-1.782-1.469-3.552 3.552-2.924.214-7.318 6.489 1.042 6.063-2.297 5.02 2.724 5.649-1.783h3.866l2.41 2.41 3.552 5.435-2.925 2.924v4.607l2.611-3.239 3.665-3.665 5.021-1.041 4.18-6.063v-5.259l1.669-3.552 5.435-2.723v-3.351l5.235-3.138v-5.234l-.841-5.021h3.552l1.155 2.611 4.707 4.707 3.552 5.435v7.317l-1.255 3.765-1.883 1.883-3.138-3.138-4.393-1.042-6.691 2.297v5.46l1.67 5.021v4.179l4.807 1.255 4.607 2.096 5.234-2.51v-3.765l5.435-1.255 5.234 2.51-.841-3.351 8.159 1.468 4.393-.841 7.946 1.042h4.606l2.322 4.192h2.097v-3.765l6.69-2.096h3.564l1.469 5.434H386.4l-1.255 3.766-3.138 1.042 4.807 4.392h3.352l6.276-2.723 5.962 1.155 6.489 6.489 2.197-2.197h4.393l5.548-1.782 2.197 2.196-.628 2.925-3.351 2.297v3.552l3.979 3.351.313-3.866 1.783-1.782 4.18 1.041v-3.351l3.979-.627.841-5.021-.628-6.062 3.765-1.883 3.239-.941 3.866 3.866 1.669-1.67 4.293 5.335 4.921 4.92 3.978 3.979.98 1.983-1.708 2.51-2.046 2.046-1.255 1.255 2.046 1.933.414 1.569 1.569.527v7.104h-1.983l-.941 2.297-1.67.841-.627 3.865 4.18 2.096v2.724l-3.866 1.569 3.238 3.238-5.021 2.51-3.765 3.766h-3.979l-1.469 4.606h-7.117l-6.69 1.469-6.69 3.765v4.606l-5.435-.213-4.029.628-2.197 2.51-3.929 2.046-3.929 3.928-3.615.477v-3.301l-2.673-.941-3.213 3.213-4.318 4.318-1.883 3.614.791 4.556-5.021 3.138-.477 3.766-4.243 2.673-2.824 5.334.791 3.615-1.732 3.301v2.824l-5.184 5.184-.703 3.69-1.958 1.958-1.105 2.987-7.217-1.104-5.335-2.046-4.707-2.511-4.87-3.301h-2.197l-1.255 2.674-2.121.703-1.494-1.494-2.121-.703-2.121 2.121-3.766-1.418-3.301 1.732-2.987-2.987-4.557-2.046-2.673.942-2.197-2.674.477-2.673-1.105-1.732-2.673-.942-2.046 2.046-1.494-1.493-1.493 1.493-4.243-2.36-1.958 3.841 2.121 2.121v2.511l-3.201 1.255h-3.389l-1.933 1.933-3.113.364-1.004-2.297-1.744-1.745-3.302 3.113-2.384-2.385-3.854-1.832-3.665.916-1.469 4.217-2.385 2.937-1.468-1.468 1.28-2.937-.916-3.301v-3.113l-2.197-2.197v-3.112l2.749-2.749v-2.749l4.042-.916v-4.217l2.573-2.573-.389-3.176-1.883-.941.728-2.297-2.046-2.046-.791-.791-1.154-1.882-1.569-.527-2.247 1.933-4.594 4.593-2.85 2.837-3.966-1.757-2.197 2.02 4.582 4.77-2.937 1.468v3.854l-1.381 1.38-4.858-4.305-2.573 4.042-4.581-1.105-1.921 1.933-2.849-4.129-4.217-2.385-3.49-1.657-1.468-4.041-4.13-4.13-5.41-1.004-2.749-5.874-4.217 2.021-4.594-2.021-5.134 1.28-4.582 2.021-4.958-4.957v-8.259l-3.941-3.941-2.021 2.02-5.234-3.577-2.197-2.196-3.853.364-2.573.464v-4.192l1.079-3.514-2.974-.942-3.377.678-4.33-2.033-3.515-1.356-2.837-1.355-1.757-1.757-.54 1.757h-2.711l-2.033-2.435h-2.975l-.741-3.05-1.694-1.694-2.297-1.155h-2.774l-2.235 2.234h-3.514l-1.757 1.757-2.912-.339-2.373-2.372h-4.468l-2.435-1.494-3.176.201-1.833-1.832h-3.652l-1.896-1.895-1.255-2.724-3.238 2.724-.314 2.61-1.883 1.883-.414 4.393-1.155 2.51-1.255 2.197h-2.925l-1.255 3.552-2.824-3.452-3.552.314v-7.117l-3.502-3.301-3.98-1.042 1.256-3.137 1.054-3.352-2.924-2.924-1.883-4.18.628-2.924 3.979-3.979 2.297-4.179-1.042-3.766 3.351-.841 5.021-3.138v-4.392l2.096-2.511 5.234-.213 2.297-2.724.214-3.138 4.393-1.669 3.552-4.807 4.795.201 4.18-2.51 5.648 1.255.841-3.138 1.883-1.883 3.552 1.67 2.925 3.137 4.606 1.469 1.67 3.765 1.669 4.18 2.511-2.51-.415-6.063-3.765-3.351v-7.116l3.351-.841 1.042-1.042-4.607-1.883-2.723-3.138h19.154l27.715-.213 8.786-3.138v-5.435l1.469-13.806h5.861l5.021-3.979v-5.434l3.766-1.469v-7.116l3.351-.214 7.318-5.861 3.552 1.669 7.745-14.409zm12.727 51.749l-.753 1.142 1.331 1.707 1.707-1.707-2.285-1.142zm176.946 2.648h-2.084l-2.284-3.414-1.331.766-3.991-3.79-3.038-3.226 1.142-3.414 3.038-.954 1.142-1.895-2.084-1.707.189-4.556-1.331-.377-1.33-3.414-2.85-.188-2.272-3.226.754-4.179 3.037-4.18 3.615.377 1.142 1.33 1.331.565.565-2.473 4.368-1.33 3.414-3.602-2.272-2.473 3.038-1.895 3.414 1.33.954-2.849v-2.849h4.368l2.083 2.084 2.184-2.184.477-1.996 4.745-.954-1.619-1.606-4.08-1.431v-1.519l4.745-1.33 4.933-1.331 2.473-2.472h3.226v-2.272l4.556-.189-2.473-2.472 3.992-.188 1.519 1.518-.189-3.79 1.896-1.895-2.084-2.473 1.331-2.083 2.271 2.271h2.85v-2.849l4.18 1.519 2.083-2.272 2.084-2.473h2.661l4.556-2.083 3.226 1.142h4.745l3.138-3.138 3.703.289 1.707 2.473h3.991l1.896 1.895 3.414-.954h4.744l3.138-3.125 3.703-1.996 4.933-1.895h4.556l2.661 4.179v4.556l-3.991 3.603-3.603 3.414-4.744.376-5.699 2.661-5.121-1.895-2.473 2.472-5.887-.188h-7.594l-2.849 3.038h-5.887l-4.368 2.472 1.331 3.038-3.038 1.142-3.602-.377h-3.226l-.377 2.084-3.414-.954v3.414l-3.414 2.472-2.849 2.084v-3.226l-2.285 2.084.565 3.803h-2.272l-1.619-1.619v4.656l-1.657-1.657-2.134 2.134-1.807 1.807h-2.473l-1.895 2.473-2.473 4.18h-3.992l-3.225 2.66v3.603l-3.226 1.33-1.143 3.803-2.661 2.661v4.707l-1.33 3.414 1.707 4.932-1.519 4.933 2.084 3.226.954 3.414-1.142 1.142-3.226 1.518v-2.472l-3.025-1.695zM540.94 128.023l-1.569.477 1.255 1.732v1.556h2.197v-2.987l-1.883-.778zm-.477 13.329l-1.105 1.732-4.079.791-2.673 1.418 2.045.942-.941 2.196 1.732.477h3.452l2.749-2.749 2.046-2.045-.703-3.063-2.523.301zm-13.016-2.824l-.866.866 1.644 1.644 2.987-1.104v-2.51h-1.732l-2.033 1.104zm-2.272 4.945l-2.272-2.585-1.732 1.732-1.256 2.51v3.138l2.674.477.628 1.883 3.301-.791 2.121-2.121 1.569-1.569.866-2.586h-2.36l-3.539-.088zm-9.339 10.907l-1.017 1.017v1.958h2.122l.79-2.51-1.895-.465zm-4.393-8.007l-1.105-1.105h-3.452v2.36l-1.882 1.883 1.104 1.104 3.766-.791 1.418 1.419 3.301-.791.942-2.197 2.36.791-1.256-2.824-2.121-2.121-3.075 2.272zm17.409-26.195l-.941 1.883 1.644 1.644 1.569-1.569-2.272-1.958zm-3.451 4.393h-2.511v2.824l2.674 2.674v2.196l2.36-1.104-1.419-2.988-1.104-3.602zm-15.69 8.159h-2.197l-.477.477 1.808 1.807.866-2.284zm1.882 3.602l-1.493 1.493 1.493 1.645 1.733-.164-1.733-2.974zm1.419-6.903v2.045h2.196l-.477-2.359-1.719.314zm3.063 5.108v1.807h1.807l-1.418-1.418-.389-.389zm1.794 4.154l.791.791 1.419-1.418-2.21.627zm2.197-8.321v2.196l1.883.164v-2.36h-1.883zm-2.824-4.393l1.104 2.046 1.017-1.017-1.017-1.016h-1.104v-.013zm-20.234 13.179l-1.18 1.18 2.046 2.045 2.272.076v-3.766l-1.569-2.045-1.569 2.51zm5.172-2.51l.79 2.196h1.569v-1.883l-2.359-.313zm-8.787-12.552l-1.569 1.569v1.732l-1.807 1.808-3.214-2.272-2.673 1.418v1.883l-3.301-2.36-2.511.942.791 3.765 2.36-.791v2.51l2.51.628 2.272-2.272 3.213-1.33 2.674.791h3.929l2.824-2.824-2.674-2.674 1.808-1.807-3.063-1.808-1.569 1.092zm-8.937-3.916h-3.452l-2.046-2.046-1.418 2.824 1.807 1.808.703 2.121 4.08-1.418 1.418 1.418 2.674-1.104 1.104 1.104v-2.36l-1.807-1.807h-1.645l-1.418-.54zm3.063 16.555h-1.331l.477 1.958 2.824.164-1.97-2.122zm.54 4.155l-1.419 1.418 1.105 1.105 2.673.627-1.732-1.732-.627-1.418zm11.459-20.245v2.046h1.569l1.569-1.569-3.138-.477zM1.72 321.337l3.25.728 2.787-.79 1.067-2.059 2.523.402 2.36 2.359.1 3.226 1.933.603.402 2.522 2.987.528.665-2.398-1.631-1.631 1.393-1.394.904.892 2.862 2.384v3.59l-.402 3.125 1.657 2.724 1.657 1.129.602 4.054-1.456 3.05-6.979 3.527-10.569-12.551-6.112-14.02zm431.574 4.494l-3.037 1.518-2.285.766.565 4.933.377 2.661 2.083.564.766 3.992 3.991.376 1.331-3.226-1.895-3.225.188-3.602-2.084-4.757zm-67.203-16.518l-4.18 1.142-2.473 3.226-1.895 2.473 1.331 3.602 3.037 1.142 2.849 1.142 2.661-1.895 3.226.565 1.707-3.979-2.661-3.414-.188-2.849-3.414-1.155z" fill="#F3F3F3" stroke="#fff" stroke-width="2" mask="url(#g)"/></svg>